<?xml version="1.0" encoding="utf-8"?>
<!-- Generator: Adobe Illustrator 12.0.0, SVG Export Plug-In . SVG Version: 6.00 Build 51448)  -->
<!DOCTYPE svg PUBLIC "-//W3C//DTD SVG 1.1//EN" "http://www.w3.org/Graphics/SVG/1.1/DTD/svg11.dtd" [
	<!ENTITY ns_svg "http://www.w3.org/2000/svg">
	<!ENTITY ns_xlink "http://www.w3.org/1999/xlink">
]>
<svg  version="1.1" id="レイヤー_1" xmlns="&ns_svg;" xmlns:xlink="&ns_xlink;" width="176.772" height="142.618"
	 viewBox="0 0 176.772 142.618" overflow="visible" enable-background="new 0 0 176.772 142.618" xml:space="preserve">
<g>
	<path d="M64.516,99.351c-0.084,1.057-0.504,1.974-0.903,1.974c-0.126,0-0.217-0.175-0.217-0.413c0-0.126,0.035-0.182,0.182-0.266
		c0.371-0.224,0.707-0.763,0.813-1.309L64.516,99.351z M63.711,98.021c0.314,0.364,0.454,0.434,0.812,0.434
		c0.294,0,0.714-0.042,1.253-0.119v-0.105c0-0.735-0.014-0.896-0.084-1.015c-0.084-0.14-0.196-0.21-0.504-0.287
		c0.084-0.07,0.14-0.091,0.238-0.091c0.188,0,0.518,0.084,0.714,0.175c0.168,0.077,0.23,0.154,0.23,0.287
		c0,0.042-0.007,0.07-0.049,0.147c-0.104,0.231-0.14,0.427-0.146,0.833c0.119-0.028,0.119-0.028,0.602-0.126
		c0.267-0.056,0.483-0.14,0.616-0.231c0.049-0.035,0.084-0.049,0.126-0.049c0.084,0,0.245,0.042,0.378,0.105
		c0.175,0.084,0.266,0.161,0.266,0.245c0,0.091-0.084,0.133-0.321,0.161c-0.364,0.035-1.31,0.168-1.681,0.231
		c-0.007,0.392-0.007,0.462-0.007,0.602c0,0.644,0.021,1.274,0.063,1.869c0.014,0.126,0.014,0.168,0.014,0.238
		c0,0.203-0.035,0.371-0.119,0.56c-0.07,0.168-0.161,0.252-0.28,0.252c-0.091,0-0.146-0.063-0.202-0.224
		c-0.077-0.21-0.147-0.273-0.735-0.63c-0.105-0.063-0.196-0.126-0.357-0.231l0.035-0.07c0.469,0.154,0.791,0.238,1.155,0.308
		c0.014-0.21,0.035-1.092,0.056-2.639c-0.363,0.049-0.902,0.091-1.134,0.091c-0.511,0-0.728-0.14-1.029-0.665L63.711,98.021z
		 M67.141,99.232c0.588,0.364,0.882,0.595,1.105,0.882c0.147,0.182,0.21,0.343,0.21,0.532c0,0.287-0.126,0.539-0.266,0.539
		c-0.084,0-0.098-0.014-0.217-0.371c-0.189-0.574-0.504-1.099-0.903-1.505L67.141,99.232z"/>
	<path d="M73.994,101.199c0.686-0.539,1.295-1.225,1.722-1.939c0.217-0.371,0.287-0.539,0.287-0.693
		c0-0.112-0.091-0.224-0.351-0.399c0.077-0.021,0.112-0.028,0.154-0.028c0.119,0,0.364,0.098,0.574,0.238
		c0.238,0.154,0.336,0.266,0.336,0.378c0,0.056-0.021,0.098-0.084,0.154c-0.133,0.112-0.133,0.112-0.294,0.322
		c-0.603,0.791-0.882,1.078-1.47,1.533c-0.309,0.238-0.505,0.357-0.819,0.511L73.994,101.199z M77.746,98.125
		c0.734,0.434,1.399,1.029,1.841,1.631c0.217,0.294,0.294,0.49,0.294,0.742c0,0.294-0.112,0.518-0.267,0.518
		c-0.098,0-0.133-0.042-0.23-0.322c-0.343-0.938-0.896-1.736-1.715-2.485L77.746,98.125z M78.46,97.216
		c0.405,0.175,0.7,0.329,0.896,0.483c0.183,0.147,0.245,0.259,0.245,0.441c0,0.196-0.063,0.322-0.161,0.322
		c-0.077,0-0.111-0.042-0.237-0.245c-0.245-0.399-0.399-0.567-0.799-0.91L78.46,97.216z M79.146,96.824
		c0.406,0.133,0.687,0.259,0.89,0.399c0.188,0.126,0.259,0.224,0.259,0.378c0,0.224-0.063,0.357-0.168,0.357
		c-0.049,0-0.091-0.035-0.154-0.126c-0.238-0.385-0.441-0.595-0.882-0.924L79.146,96.824z"/>
	<path d="M86.691,97.097c0.169,0,0.47,0.098,0.658,0.217c0.119,0.077,0.183,0.161,0.183,0.245c0,0.021-0.015,0.091-0.021,0.154
		c-0.035,0.161-0.063,0.707-0.063,1.204c0,0.091,0,0.252,0.007,0.532c0,0.091,0,0.161,0,0.238c0,0.224-0.007,0.301-0.021,0.378
		c-0.014,0.098-0.069,0.154-0.14,0.154c-0.091,0-0.182-0.084-0.266-0.238c-0.077-0.14-0.126-0.301-0.126-0.392
		c0-0.049,0.007-0.07,0.027-0.154c0.063-0.189,0.091-0.588,0.091-1.141c0-0.511-0.027-0.679-0.133-0.84
		c-0.084-0.14-0.146-0.182-0.413-0.301C86.559,97.104,86.587,97.097,86.691,97.097z M87.427,102.396
		c0.7-0.476,1.099-0.868,1.414-1.393c0.392-0.665,0.497-1.267,0.497-2.919c0-0.7-0.028-0.924-0.133-1.057
		c-0.091-0.112-0.252-0.196-0.504-0.252c0.098-0.084,0.153-0.105,0.287-0.105c0.168,0,0.497,0.091,0.714,0.196
		c0.175,0.084,0.252,0.175,0.252,0.28c0,0.049,0,0.049-0.042,0.168c-0.057,0.168-0.091,0.63-0.119,1.498
		c-0.035,1.015-0.077,1.337-0.224,1.75c-0.295,0.805-1.044,1.505-2.087,1.925L87.427,102.396z"/>
	<path d="M97.338,97.489c0.672,0.168,1.078,0.329,1.352,0.525c0.161,0.112,0.237,0.266,0.237,0.476c0,0.231-0.076,0.392-0.195,0.392
		c-0.077,0-0.112-0.035-0.302-0.28c-0.343-0.455-0.595-0.686-1.141-1.029L97.338,97.489z M102.315,97.888
		c-0.351,0.658-0.777,1.211-1.471,1.883c-0.644,0.623-1.077,0.973-1.967,1.596c-0.329,0.231-0.364,0.259-0.413,0.322
		c-0.111,0.133-0.153,0.168-0.245,0.168c-0.286,0-0.818-0.672-0.818-1.029c0-0.042,0.007-0.07,0.035-0.14
		c0.14,0.21,0.153,0.224,0.252,0.308c0.104,0.098,0.202,0.147,0.279,0.147c0.119,0,0.336-0.091,0.68-0.294
		c0.783-0.455,1.057-0.651,1.673-1.155c0.86-0.7,1.281-1.127,1.883-1.869L102.315,97.888z"/>
	<path d="M108.405,99.883c0.504-0.42,0.973-0.966,1.47-1.708c0.287-0.427,0.462-0.791,0.462-0.945c0-0.091-0.027-0.147-0.133-0.238
		c-0.084-0.084-0.084-0.084-0.168-0.126c-0.077-0.042-0.077-0.042-0.126-0.07c0.063-0.028,0.091-0.035,0.133-0.035
		c0.147,0,0.386,0.077,0.574,0.189c0.224,0.126,0.329,0.245,0.329,0.357c0,0.084-0.007,0.091-0.378,0.63
		c0.091,0.028,0.133,0.035,0.188,0.035c0.134,0,0.47-0.056,0.833-0.147c0.295-0.07,0.406-0.105,0.554-0.189
		c0.056-0.035,0.077-0.042,0.119-0.042c0.168,0,0.566,0.364,0.566,0.518c0,0.056-0.027,0.098-0.104,0.175
		c-0.119,0.112-0.154,0.161-0.336,0.497c-0.616,1.162-1.211,1.918-2.065,2.639c-0.602,0.504-1.127,0.84-1.736,1.092l-0.049-0.098
		c0.561-0.35,0.98-0.686,1.547-1.253c0.848-0.847,1.505-1.792,1.911-2.772c0.07-0.154,0.112-0.301,0.112-0.357
		c0-0.028-0.021-0.049-0.063-0.049c-0.104,0-0.539,0.105-0.889,0.224c-0.126,0.042-0.168,0.049-0.23,0.049
		c-0.147,0-0.295-0.07-0.435-0.203c-0.539,0.77-1.246,1.442-2.016,1.918L108.405,99.883z M112.27,96.614
		c0.392,0.147,0.644,0.28,0.882,0.462c0.161,0.126,0.238,0.266,0.238,0.441c0,0.21-0.063,0.336-0.168,0.336
		c-0.07,0-0.099-0.028-0.21-0.224c-0.189-0.343-0.441-0.637-0.791-0.938L112.27,96.614z M112.886,96.208
		c0.42,0.105,0.706,0.231,0.938,0.392c0.14,0.098,0.203,0.224,0.203,0.399c0,0.196-0.049,0.301-0.147,0.301
		c-0.069,0-0.098-0.028-0.21-0.21c-0.203-0.308-0.434-0.532-0.833-0.805L112.886,96.208z"/>
	<path d="M67.896,115.248h3.402c0.364-0.49,0.476-0.63,0.882-1.078l1.372,1.204c0.042,0.056,0.07,0.098,0.07,0.126
		c0,0.042-0.042,0.07-0.112,0.07H62.745c-0.519,0-0.826,0.028-1.47,0.126l-0.141-0.588c0.658,0.084,1.33,0.14,1.708,0.14h4.046
		v-3.626h-3.332c-0.224,0-0.405,0.028-1.078,0.14l-0.111-0.574c0.434,0.056,1.021,0.112,1.288,0.112h6.691
		c0.336-0.462,0.448-0.588,0.798-1.022c0.588,0.49,0.771,0.644,1.372,1.148c0.042,0.042,0.057,0.07,0.057,0.098
		c0,0.056-0.057,0.098-0.112,0.098h-4.564V115.248z M66.497,105.966c-0.042,0.7-0.057,0.84-0.154,1.218
		c-0.504,1.974-2.17,3.108-4.983,3.388l-0.127-0.252c1.666-0.28,2.828-0.896,3.557-1.904c0.476-0.686,0.672-1.302,0.742-2.45h-2.576
		c-0.196,1.316-0.645,2.072-1.204,2.072c-0.112,0-0.196-0.056-0.28-0.21c-0.111-0.182-0.21-0.434-0.21-0.546
		c0-0.196,0.056-0.266,0.351-0.476c0.657-0.448,1.077-1.19,1.218-2.156h0.21c-0.015,0.462-0.015,0.63-0.057,0.994h3.837v-1.05
		c0-0.56-0.015-0.63-0.07-1.008c1.357,0.126,1.414,0.126,1.567,0.182c0.112,0.042,0.168,0.098,0.168,0.154
		c0,0.126-0.182,0.224-0.686,0.378v1.344h3.78c0.237-0.336,0.308-0.434,0.588-0.742c0.546,0.378,0.714,0.504,1.204,0.938
		c0.098,0.084,0.14,0.14,0.14,0.196c0,0.028-0.028,0.056-0.056,0.084c-0.057,0.042-0.196,0.084-0.364,0.112
		c-0.364,0.07-0.574,0.112-0.63,0.126c-0.448,0.476-0.742,0.728-1.414,1.246l-0.112-0.098c0.267-0.504,0.309-0.574,0.645-1.54
		h-2.437v2.604c0,0.224,0.028,0.266,0.21,0.308c0.084,0.014,1.009,0.042,1.555,0.042c0.531,0,1.092-0.042,1.218-0.084
		c0.14-0.042,0.14-0.042,0.35-0.518c0.154-0.364,0.267-0.672,0.49-1.4l0.21,0.014l-0.084,1.456c0,0.098,0,0.168,0,0.196
		c0,0.126,0.07,0.196,0.224,0.238c0.267,0.084,0.364,0.168,0.364,0.35c0,0.168-0.14,0.322-0.378,0.378
		c-0.294,0.07-1.176,0.126-2.044,0.126c-1.078,0-2.198-0.028-2.45-0.056c-0.434-0.056-0.588-0.252-0.588-0.728v-2.926H66.497z"/>
	<path d="M81.757,111.188c0,2.072,0,2.086,0.042,4.956c0,0.084-0.028,0.112-0.098,0.14c-0.112,0.042-0.504,0.084-0.756,0.084
		c-0.141,0-0.183-0.028-0.183-0.154c0.028-2.016,0.028-2.016,0.028-3.696v-1.33h-3.654v0.77c0,0.098-0.027,0.126-0.112,0.154
		c-0.098,0.028-0.489,0.07-0.699,0.07c-0.168,0-0.225-0.042-0.225-0.182c0.028-2.1,0.042-3.22,0.042-3.346
		c0-0.742,0-1.288-0.027-2.422c0.531,0.21,0.699,0.294,1.218,0.602h3.458c-0.014-2.576-0.014-2.576-0.084-3.192
		c0.322,0.028,0.574,0.056,0.728,0.056c0.771,0.07,0.938,0.112,0.938,0.252c0,0.126-0.084,0.168-0.63,0.364v2.52h3.892
		c0.224-0.266,0.294-0.35,0.504-0.616c0.42,0.266,0.532,0.35,0.91,0.616c0.098,0.084,0.154,0.14,0.154,0.21c0,0,0,0,0,0.014
		c-0.015,0.098-0.099,0.168-0.448,0.364c-0.014,0.644-0.014,1.106-0.014,1.456c0,1.078,0.014,1.806,0.056,2.996
		c0,0.098-0.028,0.126-0.112,0.168c-0.111,0.042-0.489,0.084-0.728,0.084c-0.141,0-0.183-0.042-0.183-0.168v-0.77H81.757z
		 M80.791,107.87v-0.714h-3.654v3.71h3.654V107.87z M85.774,107.156h-4.031c0,0.476,0,1.708,0.014,3.71h4.018V107.156z"/>
	<path d="M93.797,105.35c0.266-0.308,0.35-0.392,0.644-0.672c0.406,0.35,0.519,0.462,0.896,0.826
		c0.028,0.042,0.042,0.084,0.042,0.112c0,0.028-0.042,0.056-0.14,0.056h-2.576v1.176h0.966c0.252-0.294,0.336-0.378,0.616-0.658
		c0.392,0.336,0.504,0.448,0.868,0.798c0.027,0.042,0.042,0.084,0.042,0.112c0,0.042-0.057,0.07-0.126,0.07h-2.366v1.288h1.105
		c0.28-0.294,0.378-0.392,0.658-0.672c0.435,0.336,0.561,0.448,0.952,0.798c0.056,0.056,0.07,0.098,0.07,0.126
		c0,0.042-0.042,0.07-0.141,0.07h-5.306c-0.406,0-0.574,0.014-0.813,0.07l-0.084-0.476c0.337,0.07,0.519,0.084,0.896,0.084h1.792
		v-1.288h-1.358c-0.294,0-0.392,0.014-0.699,0.056l-0.084-0.476c0.266,0.084,0.434,0.098,0.783,0.098h1.358v-1.176h-1.792
		c-0.224,0-0.42,0.014-0.588,0.056l-0.099-0.504c0.28,0.084,0.547,0.126,0.715,0.126h1.764v-0.224c0-0.644-0.014-0.952-0.056-1.568
		c1.428,0.21,1.554,0.238,1.554,0.364s-0.168,0.224-0.63,0.336v1.092H93.797z M90.871,113.232v1.148
		c0.014,1.246,0.014,1.246,0.014,1.708c0,0.084-0.028,0.126-0.112,0.154c-0.098,0.028-0.434,0.07-0.672,0.07
		c-0.153,0-0.195-0.028-0.195-0.14c0.069-2.24,0.098-3.584,0.098-5.684c0-0.602,0-0.756-0.014-1.246
		c0.447,0.252,0.602,0.322,1.077,0.574h2.492c0.225-0.182,0.294-0.252,0.504-0.462c0.309,0.224,0.393,0.294,0.687,0.532
		c0.098,0.07,0.14,0.126,0.14,0.182c0,0.084-0.069,0.154-0.364,0.322v3.304c0,0.098,0,0.196,0.028,1.288c0,0.084,0,0.14,0,0.182
		s0,0.084,0,0.084c0,0.616-0.196,0.756-1.386,0.966c-0.042-0.294-0.112-0.434-0.267-0.56c-0.14-0.126-0.294-0.182-1.134-0.35v-0.182
		c0.393,0.014,0.393,0.014,1.064,0.056c0.378,0.028,0.378,0.028,0.672,0.042c0.112,0,0.126-0.014,0.126-0.112v-1.876H90.871z
		 M93.629,110.138h-2.758v1.218h2.758V110.138z M93.629,111.678h-2.758v1.232h2.758V111.678z M98.263,112.532
		c0.028,1.316,0.042,2.142,0.042,2.464c0.015,0.112,0.015,0.196,0.015,0.266c0,0.644-0.238,0.84-1.358,1.064
		c-0.042-0.644-0.07-0.658-1.862-1.12l0.015-0.168c1.47,0.14,1.47,0.14,2.086,0.168c0.168,0,0.21-0.028,0.21-0.168v-2.674h-1.442
		c-0.322,0-0.546,0.014-0.756,0.07l-0.084-0.476c0.322,0.07,0.49,0.084,0.868,0.084h1.414v-1.974h-1.61
		c-0.336,0-0.448,0.014-0.672,0.056l-0.084-0.448c0.322,0.056,0.42,0.07,0.756,0.07h1.61v-1.904h-0.938
		c-0.392,0-0.518,0.014-0.756,0.056l-0.084-0.462c0.308,0.056,0.546,0.084,0.84,0.084h1.554c0.49-0.924,0.603-1.162,0.883-1.974
		h-1.792c-0.574,0.77-1.078,1.358-1.988,2.268l-0.154-0.126c0.994-1.316,1.75-2.758,2.198-4.144
		c0.252,0.084,0.448,0.154,0.574,0.196c0.672,0.224,0.756,0.252,0.756,0.364c0,0.112-0.14,0.168-0.603,0.21
		c-0.266,0.462-0.336,0.56-0.56,0.91h1.54c0.196-0.266,0.266-0.35,0.476-0.588c0.477,0.322,0.616,0.42,1.064,0.742
		c0.098,0.07,0.14,0.126,0.14,0.168c0,0.126-0.126,0.168-0.714,0.266c-0.21,0.252-0.378,0.462-0.49,0.588
		c-0.518,0.63-0.615,0.742-0.993,1.12H99.9c0.211-0.21,0.267-0.28,0.49-0.476c0.322,0.21,0.42,0.28,0.714,0.504
		c0.099,0.084,0.141,0.14,0.141,0.182c0,0.112-0.112,0.21-0.448,0.364v1.652h0.126c0.238-0.322,0.308-0.434,0.574-0.756
		c0.308,0.392,0.392,0.518,0.686,0.924c0.015,0.042,0.028,0.07,0.028,0.098c0,0.028-0.042,0.056-0.098,0.056h-1.316
		c0.014,2.072,0.014,2.268,0.042,3.066c0,0.084-0.014,0.126-0.056,0.154c-0.057,0.028-0.336,0.07-0.603,0.07
		c-0.21,0-0.28-0.042-0.28-0.154c0-0.014,0-0.028,0-0.042v-0.798h-1.638V112.532z M99.9,109.746v-1.904h-1.638v1.904H99.9z
		 M99.9,112.042v-1.974h-1.638v1.974H99.9z"/>
	<path d="M109.169,115.262v-9.702c0-1.092,0-1.246-0.042-1.624c0.322,0.042,0.574,0.07,0.728,0.084
		c0.7,0.084,0.938,0.168,0.938,0.294c0,0.112-0.154,0.182-0.616,0.308v4.816h2.38c0.393-0.462,0.504-0.602,0.882-1.036
		c0.589,0.49,0.771,0.644,1.345,1.19c0.027,0.028,0.042,0.07,0.042,0.098c0,0.042-0.057,0.07-0.126,0.07h-4.522v5.502h3.178
		c0.42-0.49,0.546-0.644,0.994-1.134c0.603,0.518,0.784,0.686,1.386,1.246c0.028,0.042,0.042,0.084,0.042,0.126
		c0,0.056-0.069,0.084-0.168,0.084h-11.004c-0.756,0-1.008,0.014-1.372,0.056l-0.084-0.518c0.49,0.112,0.799,0.14,1.456,0.14h0.854
		v-7.014c-0.014-1.246-0.014-1.246-0.028-1.596c1.513,0.196,1.61,0.224,1.61,0.364c0,0.112-0.182,0.196-0.588,0.294v7.952H109.169z"
		/>
</g>
<g>
	<path d="M64.516,125.601c-0.084,1.057-0.504,1.974-0.903,1.974c-0.126,0-0.217-0.175-0.217-0.413c0-0.126,0.035-0.182,0.182-0.266
		c0.371-0.224,0.707-0.763,0.813-1.309L64.516,125.601z M63.711,124.271c0.314,0.364,0.454,0.434,0.812,0.434
		c0.294,0,0.714-0.042,1.253-0.119v-0.105c0-0.735-0.014-0.896-0.084-1.015c-0.084-0.14-0.196-0.21-0.504-0.287
		c0.084-0.07,0.14-0.091,0.238-0.091c0.188,0,0.518,0.084,0.714,0.175c0.168,0.077,0.23,0.154,0.23,0.287
		c0,0.042-0.007,0.07-0.049,0.147c-0.104,0.231-0.14,0.427-0.146,0.833c0.119-0.028,0.119-0.028,0.602-0.126
		c0.267-0.056,0.483-0.14,0.616-0.231c0.049-0.035,0.084-0.049,0.126-0.049c0.084,0,0.245,0.042,0.378,0.105
		c0.175,0.084,0.266,0.161,0.266,0.245c0,0.091-0.084,0.133-0.321,0.161c-0.364,0.035-1.31,0.168-1.681,0.231
		c-0.007,0.392-0.007,0.462-0.007,0.602c0,0.644,0.021,1.274,0.063,1.869c0.014,0.126,0.014,0.168,0.014,0.238
		c0,0.203-0.035,0.371-0.119,0.56c-0.07,0.168-0.161,0.252-0.28,0.252c-0.091,0-0.146-0.063-0.202-0.224
		c-0.077-0.21-0.147-0.273-0.735-0.63c-0.105-0.063-0.196-0.126-0.357-0.231l0.035-0.07c0.469,0.154,0.791,0.238,1.155,0.308
		c0.014-0.21,0.035-1.092,0.056-2.639c-0.363,0.049-0.902,0.091-1.134,0.091c-0.511,0-0.728-0.14-1.029-0.665L63.711,124.271z
		 M67.141,125.482c0.588,0.364,0.882,0.595,1.105,0.882c0.147,0.182,0.21,0.343,0.21,0.532c0,0.287-0.126,0.539-0.266,0.539
		c-0.084,0-0.098-0.014-0.217-0.371c-0.189-0.574-0.504-1.099-0.903-1.505L67.141,125.482z"/>
	<path d="M73.994,127.449c0.686-0.539,1.295-1.225,1.722-1.939c0.217-0.371,0.287-0.539,0.287-0.693
		c0-0.112-0.091-0.224-0.351-0.399c0.077-0.021,0.112-0.028,0.154-0.028c0.119,0,0.364,0.098,0.574,0.238
		c0.238,0.154,0.336,0.266,0.336,0.378c0,0.056-0.021,0.098-0.084,0.154c-0.133,0.112-0.133,0.112-0.294,0.322
		c-0.603,0.791-0.882,1.078-1.47,1.533c-0.309,0.238-0.505,0.357-0.819,0.511L73.994,127.449z M77.746,124.375
		c0.734,0.434,1.399,1.029,1.841,1.631c0.217,0.294,0.294,0.49,0.294,0.742c0,0.294-0.112,0.518-0.267,0.518
		c-0.098,0-0.133-0.042-0.23-0.322c-0.343-0.938-0.896-1.736-1.715-2.485L77.746,124.375z M78.46,123.466
		c0.405,0.175,0.7,0.329,0.896,0.483c0.183,0.147,0.245,0.259,0.245,0.441c0,0.196-0.063,0.322-0.161,0.322
		c-0.077,0-0.111-0.042-0.237-0.245c-0.245-0.399-0.399-0.567-0.799-0.91L78.46,123.466z M79.146,123.074
		c0.406,0.133,0.687,0.259,0.89,0.399c0.188,0.126,0.259,0.224,0.259,0.378c0,0.224-0.063,0.357-0.168,0.357
		c-0.049,0-0.091-0.035-0.154-0.126c-0.238-0.385-0.441-0.595-0.882-0.924L79.146,123.074z"/>
	<path d="M86.691,123.347c0.169,0,0.47,0.098,0.658,0.217c0.119,0.077,0.183,0.161,0.183,0.245c0,0.021-0.015,0.091-0.021,0.154
		c-0.035,0.161-0.063,0.707-0.063,1.204c0,0.091,0,0.252,0.007,0.532c0,0.091,0,0.161,0,0.238c0,0.224-0.007,0.301-0.021,0.378
		c-0.014,0.098-0.069,0.154-0.14,0.154c-0.091,0-0.182-0.084-0.266-0.238c-0.077-0.14-0.126-0.301-0.126-0.392
		c0-0.049,0.007-0.07,0.027-0.154c0.063-0.189,0.091-0.588,0.091-1.141c0-0.511-0.027-0.679-0.133-0.84
		c-0.084-0.14-0.146-0.182-0.413-0.301C86.559,123.354,86.587,123.347,86.691,123.347z M87.427,128.646
		c0.7-0.476,1.099-0.868,1.414-1.393c0.392-0.665,0.497-1.267,0.497-2.919c0-0.7-0.028-0.924-0.133-1.057
		c-0.091-0.112-0.252-0.196-0.504-0.252c0.098-0.084,0.153-0.105,0.287-0.105c0.168,0,0.497,0.091,0.714,0.196
		c0.175,0.084,0.252,0.175,0.252,0.28c0,0.049,0,0.049-0.042,0.168c-0.057,0.168-0.091,0.63-0.119,1.498
		c-0.035,1.015-0.077,1.337-0.224,1.75c-0.295,0.805-1.044,1.505-2.087,1.925L87.427,128.646z"/>
	<path d="M97.338,123.739c0.672,0.168,1.078,0.329,1.352,0.525c0.161,0.112,0.237,0.266,0.237,0.476
		c0,0.231-0.076,0.392-0.195,0.392c-0.077,0-0.112-0.035-0.302-0.28c-0.343-0.455-0.595-0.686-1.141-1.029L97.338,123.739z
		 M102.315,124.138c-0.351,0.658-0.777,1.211-1.471,1.883c-0.644,0.623-1.077,0.973-1.967,1.596
		c-0.329,0.231-0.364,0.259-0.413,0.322c-0.111,0.133-0.153,0.168-0.245,0.168c-0.286,0-0.818-0.672-0.818-1.029
		c0-0.042,0.007-0.07,0.035-0.14c0.14,0.21,0.153,0.224,0.252,0.308c0.104,0.098,0.202,0.147,0.279,0.147
		c0.119,0,0.336-0.091,0.68-0.294c0.783-0.455,1.057-0.651,1.673-1.155c0.86-0.7,1.281-1.127,1.883-1.869L102.315,124.138z"/>
	<path d="M108.405,126.133c0.504-0.42,0.973-0.966,1.47-1.708c0.287-0.427,0.462-0.791,0.462-0.945c0-0.091-0.027-0.147-0.133-0.238
		c-0.084-0.084-0.084-0.084-0.168-0.126c-0.077-0.042-0.077-0.042-0.126-0.07c0.063-0.028,0.091-0.035,0.133-0.035
		c0.147,0,0.386,0.077,0.574,0.189c0.224,0.126,0.329,0.245,0.329,0.357c0,0.084-0.007,0.091-0.378,0.63
		c0.091,0.028,0.133,0.035,0.188,0.035c0.134,0,0.47-0.056,0.833-0.147c0.295-0.07,0.406-0.105,0.554-0.189
		c0.056-0.035,0.077-0.042,0.119-0.042c0.168,0,0.566,0.364,0.566,0.518c0,0.056-0.027,0.098-0.104,0.175
		c-0.119,0.112-0.154,0.161-0.336,0.497c-0.616,1.162-1.211,1.918-2.065,2.639c-0.602,0.504-1.127,0.84-1.736,1.092l-0.049-0.098
		c0.561-0.35,0.98-0.686,1.547-1.253c0.848-0.847,1.505-1.792,1.911-2.772c0.07-0.154,0.112-0.301,0.112-0.357
		c0-0.028-0.021-0.049-0.063-0.049c-0.104,0-0.539,0.105-0.889,0.224c-0.126,0.042-0.168,0.049-0.23,0.049
		c-0.147,0-0.295-0.07-0.435-0.203c-0.539,0.77-1.246,1.442-2.016,1.918L108.405,126.133z M112.27,122.864
		c0.392,0.147,0.644,0.28,0.882,0.462c0.161,0.126,0.238,0.266,0.238,0.441c0,0.21-0.063,0.336-0.168,0.336
		c-0.07,0-0.099-0.028-0.21-0.224c-0.189-0.343-0.441-0.637-0.791-0.938L112.27,122.864z M112.886,122.458
		c0.42,0.105,0.706,0.231,0.938,0.392c0.14,0.098,0.203,0.224,0.203,0.399c0,0.196-0.049,0.301-0.147,0.301
		c-0.069,0-0.098-0.028-0.21-0.21c-0.203-0.308-0.434-0.532-0.833-0.805L112.886,122.458z"/>
	<path d="M67.896,141.498h3.402c0.364-0.49,0.476-0.63,0.882-1.078l1.372,1.204c0.042,0.056,0.07,0.098,0.07,0.126
		c0,0.042-0.042,0.07-0.112,0.07H62.745c-0.519,0-0.826,0.028-1.47,0.126l-0.141-0.588c0.658,0.084,1.33,0.14,1.708,0.14h4.046
		v-3.626h-3.332c-0.224,0-0.405,0.028-1.078,0.14l-0.111-0.574c0.434,0.056,1.021,0.112,1.288,0.112h6.691
		c0.336-0.462,0.448-0.588,0.798-1.022c0.588,0.49,0.771,0.644,1.372,1.148c0.042,0.042,0.057,0.07,0.057,0.098
		c0,0.056-0.057,0.098-0.112,0.098h-4.564V141.498z M66.497,132.216c-0.042,0.7-0.057,0.84-0.154,1.218
		c-0.504,1.974-2.17,3.108-4.983,3.388l-0.127-0.252c1.666-0.28,2.828-0.896,3.557-1.904c0.476-0.686,0.672-1.302,0.742-2.45h-2.576
		c-0.196,1.316-0.645,2.072-1.204,2.072c-0.112,0-0.196-0.056-0.28-0.21c-0.111-0.182-0.21-0.434-0.21-0.546
		c0-0.196,0.056-0.266,0.351-0.476c0.657-0.448,1.077-1.19,1.218-2.156h0.21c-0.015,0.462-0.015,0.63-0.057,0.994h3.837v-1.05
		c0-0.56-0.015-0.63-0.07-1.008c1.357,0.126,1.414,0.126,1.567,0.182c0.112,0.042,0.168,0.098,0.168,0.154
		c0,0.126-0.182,0.224-0.686,0.378v1.344h3.78c0.237-0.336,0.308-0.434,0.588-0.742c0.546,0.378,0.714,0.504,1.204,0.938
		c0.098,0.084,0.14,0.14,0.14,0.196c0,0.028-0.028,0.056-0.056,0.084c-0.057,0.042-0.196,0.084-0.364,0.112
		c-0.364,0.07-0.574,0.112-0.63,0.126c-0.448,0.476-0.742,0.728-1.414,1.246l-0.112-0.098c0.267-0.504,0.309-0.574,0.645-1.54
		h-2.437v2.604c0,0.224,0.028,0.266,0.21,0.308c0.084,0.014,1.009,0.042,1.555,0.042c0.531,0,1.092-0.042,1.218-0.084
		c0.14-0.042,0.14-0.042,0.35-0.518c0.154-0.364,0.267-0.672,0.49-1.4l0.21,0.014l-0.084,1.456c0,0.098,0,0.168,0,0.196
		c0,0.126,0.07,0.196,0.224,0.238c0.267,0.084,0.364,0.168,0.364,0.35c0,0.168-0.14,0.322-0.378,0.378
		c-0.294,0.07-1.176,0.126-2.044,0.126c-1.078,0-2.198-0.028-2.45-0.056c-0.434-0.056-0.588-0.252-0.588-0.728v-2.926H66.497z"/>
	<path d="M81.757,137.438c0,2.072,0,2.086,0.042,4.956c0,0.084-0.028,0.112-0.098,0.14c-0.112,0.042-0.504,0.084-0.756,0.084
		c-0.141,0-0.183-0.028-0.183-0.154c0.028-2.016,0.028-2.016,0.028-3.696v-1.33h-3.654v0.77c0,0.098-0.027,0.126-0.112,0.154
		c-0.098,0.028-0.489,0.07-0.699,0.07c-0.168,0-0.225-0.042-0.225-0.182c0.028-2.1,0.042-3.22,0.042-3.346
		c0-0.742,0-1.288-0.027-2.422c0.531,0.21,0.699,0.294,1.218,0.602h3.458c-0.014-2.576-0.014-2.576-0.084-3.192
		c0.322,0.028,0.574,0.056,0.728,0.056c0.771,0.07,0.938,0.112,0.938,0.252c0,0.126-0.084,0.168-0.63,0.364v2.52h3.892
		c0.224-0.266,0.294-0.35,0.504-0.616c0.42,0.266,0.532,0.35,0.91,0.616c0.098,0.084,0.154,0.14,0.154,0.21c0,0,0,0,0,0.014
		c-0.015,0.098-0.099,0.168-0.448,0.364c-0.014,0.644-0.014,1.106-0.014,1.456c0,1.078,0.014,1.806,0.056,2.996
		c0,0.098-0.028,0.126-0.112,0.168c-0.111,0.042-0.489,0.084-0.728,0.084c-0.141,0-0.183-0.042-0.183-0.168v-0.77H81.757z
		 M80.791,134.12v-0.714h-3.654v3.71h3.654V134.12z M85.774,133.406h-4.031c0,0.476,0,1.708,0.014,3.71h4.018V133.406z"/>
	<path d="M93.797,131.6c0.266-0.308,0.35-0.392,0.644-0.672c0.406,0.35,0.519,0.462,0.896,0.826
		c0.028,0.042,0.042,0.084,0.042,0.112c0,0.028-0.042,0.056-0.14,0.056h-2.576v1.176h0.966c0.252-0.294,0.336-0.378,0.616-0.658
		c0.392,0.336,0.504,0.448,0.868,0.798c0.027,0.042,0.042,0.084,0.042,0.112c0,0.042-0.057,0.07-0.126,0.07h-2.366v1.288h1.105
		c0.28-0.294,0.378-0.392,0.658-0.672c0.435,0.336,0.561,0.448,0.952,0.798c0.056,0.056,0.07,0.098,0.07,0.126
		c0,0.042-0.042,0.07-0.141,0.07h-5.306c-0.406,0-0.574,0.014-0.813,0.07l-0.084-0.476c0.337,0.07,0.519,0.084,0.896,0.084h1.792
		v-1.288h-1.358c-0.294,0-0.392,0.014-0.699,0.056L89.653,133c0.266,0.084,0.434,0.098,0.783,0.098h1.358v-1.176h-1.792
		c-0.224,0-0.42,0.014-0.588,0.056l-0.099-0.504c0.28,0.084,0.547,0.126,0.715,0.126h1.764v-0.224c0-0.644-0.014-0.952-0.056-1.568
		c1.428,0.21,1.554,0.238,1.554,0.364s-0.168,0.224-0.63,0.336v1.092H93.797z M90.871,139.482v1.148
		c0.014,1.246,0.014,1.246,0.014,1.708c0,0.084-0.028,0.126-0.112,0.154c-0.098,0.028-0.434,0.07-0.672,0.07
		c-0.153,0-0.195-0.028-0.195-0.14c0.069-2.24,0.098-3.584,0.098-5.684c0-0.602,0-0.756-0.014-1.246
		c0.447,0.252,0.602,0.322,1.077,0.574h2.492c0.225-0.182,0.294-0.252,0.504-0.462c0.309,0.224,0.393,0.294,0.687,0.532
		c0.098,0.07,0.14,0.126,0.14,0.182c0,0.084-0.069,0.154-0.364,0.322v3.304c0,0.098,0,0.196,0.028,1.288c0,0.084,0,0.14,0,0.182
		s0,0.084,0,0.084c0,0.616-0.196,0.756-1.386,0.966c-0.042-0.294-0.112-0.434-0.267-0.56c-0.14-0.126-0.294-0.182-1.134-0.35v-0.182
		c0.393,0.014,0.393,0.014,1.064,0.056c0.378,0.028,0.378,0.028,0.672,0.042c0.112,0,0.126-0.014,0.126-0.112v-1.876H90.871z
		 M93.629,136.388h-2.758v1.218h2.758V136.388z M93.629,137.928h-2.758v1.232h2.758V137.928z M98.263,138.782
		c0.028,1.316,0.042,2.142,0.042,2.464c0.015,0.112,0.015,0.196,0.015,0.266c0,0.644-0.238,0.84-1.358,1.064
		c-0.042-0.644-0.07-0.658-1.862-1.12l0.015-0.168c1.47,0.14,1.47,0.14,2.086,0.168c0.168,0,0.21-0.028,0.21-0.168v-2.674h-1.442
		c-0.322,0-0.546,0.014-0.756,0.07l-0.084-0.476c0.322,0.07,0.49,0.084,0.868,0.084h1.414v-1.974h-1.61
		c-0.336,0-0.448,0.014-0.672,0.056l-0.084-0.448c0.322,0.056,0.42,0.07,0.756,0.07h1.61v-1.904h-0.938
		c-0.392,0-0.518,0.014-0.756,0.056l-0.084-0.462c0.308,0.056,0.546,0.084,0.84,0.084h1.554c0.49-0.924,0.603-1.162,0.883-1.974
		h-1.792c-0.574,0.77-1.078,1.358-1.988,2.268l-0.154-0.126c0.994-1.316,1.75-2.758,2.198-4.144
		c0.252,0.084,0.448,0.154,0.574,0.196c0.672,0.224,0.756,0.252,0.756,0.364c0,0.112-0.14,0.168-0.603,0.21
		c-0.266,0.462-0.336,0.56-0.56,0.91h1.54c0.196-0.266,0.266-0.35,0.476-0.588c0.477,0.322,0.616,0.42,1.064,0.742
		c0.098,0.07,0.14,0.126,0.14,0.168c0,0.126-0.126,0.168-0.714,0.266c-0.21,0.252-0.378,0.462-0.49,0.588
		c-0.518,0.63-0.615,0.742-0.993,1.12H99.9c0.211-0.21,0.267-0.28,0.49-0.476c0.322,0.21,0.42,0.28,0.714,0.504
		c0.099,0.084,0.141,0.14,0.141,0.182c0,0.112-0.112,0.21-0.448,0.364v1.652h0.126c0.238-0.322,0.308-0.434,0.574-0.756
		c0.308,0.392,0.392,0.518,0.686,0.924c0.015,0.042,0.028,0.07,0.028,0.098c0,0.028-0.042,0.056-0.098,0.056h-1.316
		c0.014,2.072,0.014,2.268,0.042,3.066c0,0.084-0.014,0.126-0.056,0.154c-0.057,0.028-0.336,0.07-0.603,0.07
		c-0.21,0-0.28-0.042-0.28-0.154c0-0.014,0-0.028,0-0.042v-0.798h-1.638V138.782z M99.9,135.996v-1.904h-1.638v1.904H99.9z
		 M99.9,138.292v-1.974h-1.638v1.974H99.9z"/>
	<path d="M109.169,141.512v-9.702c0-1.092,0-1.246-0.042-1.624c0.322,0.042,0.574,0.07,0.728,0.084
		c0.7,0.084,0.938,0.168,0.938,0.294c0,0.112-0.154,0.182-0.616,0.308v4.816h2.38c0.393-0.462,0.504-0.602,0.882-1.036
		c0.589,0.49,0.771,0.644,1.345,1.19c0.027,0.028,0.042,0.07,0.042,0.098c0,0.042-0.057,0.07-0.126,0.07h-4.522v5.502h3.178
		c0.42-0.49,0.546-0.644,0.994-1.134c0.603,0.518,0.784,0.686,1.386,1.246c0.028,0.042,0.042,0.084,0.042,0.126
		c0,0.056-0.069,0.084-0.168,0.084h-11.004c-0.756,0-1.008,0.014-1.372,0.056l-0.084-0.518c0.49,0.112,0.799,0.14,1.456,0.14h0.854
		v-7.014c-0.014-1.246-0.014-1.246-0.028-1.596c1.513,0.196,1.61,0.224,1.61,0.364c0,0.112-0.182,0.196-0.588,0.294v7.952H109.169z"
		/>
</g>
<rect x="60.049" y="102.971" fill="none" stroke="#008CD6" stroke-width="0.5" width="56" height="14"/>
<line fill="none" stroke="#008CD6" stroke-width="0.5" x1="74.049" y1="116.971" x2="74.049" y2="102.971"/>
<line fill="none" stroke="#008CD6" stroke-width="0.5" x1="88.049" y1="116.971" x2="88.049" y2="102.971"/>
<line fill="none" stroke="#008CD6" stroke-width="0.5" x1="102.049" y1="116.971" x2="102.049" y2="102.971"/>
<polyline fill="none" stroke="#008CD6" stroke-width="0.5" points="62.149,102.971 62.149,95.971 69.149,95.971 69.149,102.971 "/>
<polyline fill="none" stroke="#008CD6" stroke-width="0.5" points="73.35,102.971 73.35,95.971 80.35,95.971 80.35,102.971 "/>
<polyline fill="none" stroke="#008CD6" stroke-width="0.5" points="84.55,102.971 84.55,95.971 91.55,95.971 91.55,102.971 "/>
<polyline fill="none" stroke="#008CD6" stroke-width="0.5" points="95.75,102.971 95.75,95.971 102.75,95.971 102.75,102.971 "/>
<polyline fill="none" stroke="#008CD6" stroke-width="0.5" points="106.95,102.971 106.95,95.971 113.95,95.971 113.95,102.971 "/>
<g>
	<path d="M73.006,35.834c0.112,0.077,0.217,0.105,0.399,0.105c0.14,0,0.279-0.007,0.489-0.035c1.911-0.224,1.911-0.224,2.065-0.294
		c0.07-0.028,0.105-0.042,0.133-0.042c0.07,0,0.231,0.098,0.406,0.259c0.168,0.154,0.252,0.259,0.252,0.336
		c0,0.049-0.021,0.077-0.07,0.126c-0.126,0.126-0.153,0.238-0.497,2.093c0.028,0.028,0.05,0.042,0.057,0.056
		c0.195,0.161,0.245,0.231,0.245,0.329c0,0.07-0.057,0.112-0.161,0.112c-0.028,0-0.028,0-0.175-0.021
		c-0.203-0.028-0.393-0.042-0.609-0.042c-0.813,0-1.848,0.161-2.254,0.35c-0.042,0.021-0.105,0.035-0.14,0.035
		c-0.231,0-0.651-0.525-0.651-0.819c0-0.035,0.007-0.063,0.035-0.126c0.224,0.315,0.398,0.427,0.658,0.427
		c0.042,0,0.489-0.042,1.351-0.126c0.616-0.063,0.7-0.07,1.197-0.091c0.069-0.343,0.111-0.63,0.188-1.288
		c0.035-0.287,0.099-0.966,0.099-1.057c0-0.098-0.05-0.126-0.196-0.126c-0.099,0-0.714,0.056-0.938,0.084
		c-0.497,0.063-0.959,0.168-1.441,0.329c-0.042,0.014-0.084,0.021-0.126,0.021c-0.147,0-0.302-0.126-0.47-0.378
		c-0.104-0.161-0.175-0.322-0.175-0.42c0-0.028,0.007-0.063,0.035-0.126C72.803,35.653,72.887,35.744,73.006,35.834z M76.17,34.512
		c0.476,0.203,0.756,0.371,0.931,0.546c0.134,0.126,0.176,0.217,0.176,0.378c0,0.196-0.07,0.336-0.176,0.336
		c-0.063,0-0.104-0.042-0.168-0.154c-0.23-0.441-0.447-0.707-0.812-1.029L76.17,34.512z M76.884,34.127
		c0.385,0.14,0.672,0.273,0.868,0.42c0.182,0.126,0.238,0.224,0.238,0.378c0,0.189-0.077,0.35-0.168,0.35
		c-0.049,0-0.091-0.035-0.147-0.14c-0.188-0.329-0.448-0.609-0.847-0.924L76.884,34.127z"/>
	<path d="M86.299,36.794c0.175,0.133,0.309,0.168,0.679,0.168c0.077,0,0.077,0,0.861-0.021c0.273-0.007,2.499-0.042,2.73-0.042
		c0.63,0,0.783,0.014,0.909,0.063c0.07,0.035,0.099,0.077,0.099,0.14c0,0.084-0.063,0.161-0.161,0.189
		c-0.189,0.063-0.357,0.07-1.68,0.084c-0.651,0.007-2.254,0.049-2.499,0.063c-0.329,0.021-0.393,0.028-0.504,0.091
		c-0.028,0.007-0.077,0.021-0.105,0.021c-0.104,0-0.217-0.077-0.336-0.231c-0.147-0.182-0.266-0.476-0.266-0.644
		c0-0.098,0.007-0.112,0.056-0.161C86.166,36.675,86.201,36.724,86.299,36.794z"/>
	<path d="M99.921,39.552c0.385-0.357,0.665-0.763,0.938-1.33c0.266-0.553,0.482-1.414,0.482-1.897c0-0.273-0.119-0.413-0.476-0.546
		c0.077-0.049,0.111-0.063,0.188-0.063c0.154,0,0.322,0.056,0.525,0.175c0.259,0.154,0.378,0.273,0.378,0.385
		c0,0.056-0.014,0.112-0.091,0.322c-0.007,0.028-0.007,0.028-0.07,0.245c-0.224,0.735-0.287,0.91-0.476,1.288
		c-0.336,0.665-0.729,1.113-1.323,1.498L99.921,39.552z M105.899,36.759c-0.218,0.371-0.399,0.602-0.764,0.987
		c-0.405,0.434-1.05,0.994-1.483,1.281c-0.134,0.091-0.336,0.252-0.399,0.315c-0.056,0.056-0.091,0.077-0.14,0.077
		c-0.161,0-0.42-0.364-0.42-0.581c0-0.014,0.014-0.084,0.049-0.217c0.042-0.161,0.063-0.784,0.063-1.897
		c0-1.589-0.027-1.68-0.539-1.792c0.07-0.084,0.119-0.105,0.225-0.105c0.168,0,0.385,0.077,0.616,0.217
		c0.202,0.126,0.286,0.224,0.286,0.322c0,0.035-0.007,0.063-0.056,0.189c-0.035,0.091-0.07,0.329-0.098,0.686
		c-0.028,0.294-0.091,1.841-0.091,2.107c0,0.091,0,0.168,0.014,0.322c0.812-0.315,1.841-1.092,2.646-1.981L105.899,36.759z"/>
	<path d="M71.557,53.685c-0.027,0.112-0.069,0.154-0.153,0.168c-0.141,0.028-0.477,0.056-0.672,0.056
		c-0.141,0-0.21-0.042-0.267-0.168c0.07-2.492,0.084-4.158,0.084-6.888c0-2.352-0.014-3.626-0.084-5.18
		c0.561,0.322,0.742,0.42,1.288,0.798h6.104c0.279-0.28,0.279-0.28,0.63-0.658c0.363,0.28,0.476,0.378,0.825,0.658
		c0.099,0.084,0.141,0.14,0.141,0.182c0,0.098-0.084,0.168-0.448,0.42c0,8.4,0,8.4,0.084,10.542
		c-0.028,0.126-0.056,0.168-0.126,0.21c-0.056,0.042-0.42,0.07-0.728,0.07c-0.126,0-0.168-0.042-0.21-0.168v-0.952h-6.469V53.685z
		 M78.025,42.793h-6.469v2.912h6.469V42.793z M71.557,46.027v2.884h6.469v-2.884H71.557z M71.557,49.247v3.206h6.469v-3.206H71.557z
		"/>
	<path d="M86.565,44.095c0.224-0.252,0.279-0.336,0.504-0.588c0.308,0.238,0.405,0.322,0.728,0.588
		c0.098,0.098,0.14,0.14,0.14,0.196c0,0.084-0.084,0.14-0.476,0.336c-0.014,0.882-0.014,1.484-0.014,1.792
		c0,2.94,0.014,5.32,0.027,6.286c0,0.028,0,0.056,0,0.07c0,0.112-0.098,0.154-0.462,0.168c-0.111,0-0.182,0.014-0.224,0.014
		c-0.014,0-0.028,0-0.042,0c-0.126,0-0.182-0.042-0.182-0.14c0,0,0-0.028,0-0.042v-0.77h-2.492v1.176
		c-0.028,0.168-0.099,0.196-0.477,0.196c-0.027,0-0.084,0-0.182,0c-0.21,0-0.252-0.014-0.252-0.154
		c0.056-1.568,0.056-2.044,0.056-4.466c0-3.122-0.014-3.906-0.084-5.376c0.477,0.28,0.603,0.378,1.05,0.714h0.393
		c0.448-1.582,0.532-1.988,0.56-2.674c0.574,0.154,1.261,0.35,1.442,0.434c0.084,0.042,0.126,0.084,0.126,0.14
		c0,0.14-0.084,0.182-0.658,0.252c-0.42,0.84-0.63,1.162-1.176,1.848H86.565z M86.565,47.581v-3.164h-2.492v3.164H86.565z
		 M84.073,47.903v3.78h2.492v-3.78H84.073z M93.593,44.095c0.267-0.308,0.351-0.392,0.616-0.686
		c0.364,0.308,0.476,0.406,0.826,0.714c0.111,0.098,0.14,0.154,0.14,0.238c0,0.126-0.028,0.14-0.518,0.392
		c-0.07,3.248-0.084,3.556-0.309,5.306c-0.21,1.624-0.476,2.618-0.854,3.122c-0.267,0.35-0.462,0.434-1.638,0.644
		c-0.126-0.476-0.225-0.644-0.448-0.784c-0.126-0.084-0.364-0.154-0.729-0.21l-0.405-0.042c-0.141-0.014-0.267-0.028-0.393-0.056
		v-0.238c0.267,0.014,0.504,0.028,0.645,0.042c0.812,0.042,1.008,0.042,1.357,0.042c0.784,0,0.84-0.014,0.966-0.252
		c0.21-0.434,0.435-1.498,0.574-2.646c0.196-1.624,0.267-2.982,0.267-5.264h-3.795c-0.854,1.652-1.287,2.324-1.987,3.108
		l-0.183-0.112c0.673-1.106,1.078-2.016,1.526-3.346c0.364-1.12,0.56-1.918,0.63-2.73c0.63,0.14,1.316,0.322,1.484,0.392
		c0.098,0.028,0.14,0.084,0.14,0.14c0,0.112-0.112,0.168-0.644,0.294c-0.238,0.742-0.393,1.106-0.798,1.932H93.593z M89.491,46.265
		c1.008,0.658,1.512,1.05,2.044,1.596c0.378,0.378,0.504,0.644,0.504,1.008c0,0.532-0.224,1.036-0.477,1.036
		c-0.111,0-0.21-0.098-0.294-0.322c-0.168-0.476-0.363-0.896-0.644-1.442c-0.392-0.77-0.644-1.12-1.246-1.736L89.491,46.265z"/>
	<path d="M99.403,45.761c0.279-0.364,0.363-0.49,0.644-0.84c0.519,0.49,0.519,0.49,1.008,0.952c0.042,0.056,0.07,0.098,0.07,0.126
		c0,0.042-0.056,0.084-0.126,0.084h-2.016v4.466c0.657-0.224,1.035-0.378,2.086-0.798l0.098,0.182
		c-0.728,0.49-1.036,0.658-1.974,1.162c-1.106,0.574-1.162,0.616-2.002,1.064c-0.028,0.14-0.042,0.252-0.057,0.322
		c-0.042,0.224-0.111,0.336-0.195,0.336c-0.126,0-0.126,0-0.547-1.484c0.49-0.098,0.49-0.098,1.694-0.49v-4.76h-0.798
		c-0.322,0-0.588,0.028-0.896,0.084l-0.098-0.504c0.266,0.07,0.616,0.098,0.994,0.098h0.798v-2.282c0-0.434-0.014-0.602-0.084-1.82
		c1.358,0.154,1.568,0.21,1.568,0.364c0,0.098-0.154,0.182-0.588,0.294v3.444H99.403z M104.163,45.635
		c-0.014-3.36-0.014-3.36-0.07-4.214c1.33,0.182,1.33,0.182,1.47,0.266c0.028,0.014,0.07,0.07,0.07,0.112
		c0,0.098-0.056,0.126-0.602,0.336v3.178l1.974-0.728c0.154-0.336,0.21-0.434,0.378-0.728c0.462,0.252,0.603,0.336,1.022,0.574
		c0.126,0.112,0.14,0.14,0.14,0.196c0,0.084-0.168,0.252-0.462,0.448c-0.084,2.52-0.168,3.696-0.336,4.48
		c-0.07,0.35-0.238,0.63-0.49,0.798c-0.21,0.14-0.406,0.196-0.896,0.28c-0.057-0.588-0.294-0.812-1.106-0.952v-0.224
		c0.519,0.056,0.896,0.084,1.162,0.084c0.406,0,0.476-0.098,0.574-0.896c0.126-1.022,0.168-1.946,0.168-3.78l-2.128,0.798v2.366
		c0,1.302,0.014,1.82,0.056,3.234c-0.014,0.182-0.182,0.238-0.686,0.238c-0.196,0-0.267-0.042-0.28-0.182
		c0.028-2.604,0.042-3.122,0.042-4.228v-1.106l-1.708,0.63v5.712c0,0.196,0.014,0.252,0.084,0.28
		c0.126,0.07,0.812,0.098,1.932,0.098c0.798,0,2.296-0.028,2.576-0.042c0.519-0.028,0.574-0.056,0.729-0.406
		c0.224-0.532,0.546-1.526,0.882-2.73l0.21,0.028l-0.21,2.464c-0.028,0.224-0.028,0.224-0.028,0.238
		c0,0.126,0.028,0.154,0.308,0.294c0.112,0.056,0.183,0.154,0.183,0.294c0,0.294-0.322,0.532-0.826,0.602
		c-0.42,0.056-0.42,0.056-2.296,0.084c-1.442,0.014-1.512,0.014-1.778,0.014c-2.38,0-2.632-0.084-2.674-0.938l0.028-3.108v-2.562
		l-0.519,0.196c-0.378,0.14-0.546,0.224-0.84,0.434l-0.28-0.434c0.378-0.07,0.448-0.098,1.009-0.308l0.63-0.224v-1.834
		c0-0.77-0.015-1.078-0.057-1.764c1.387,0.182,1.513,0.21,1.513,0.364c0,0.112-0.154,0.196-0.574,0.322v2.576L104.163,45.635z"/>
</g>
<g>
	<path d="M73.006,62.084c0.112,0.077,0.217,0.105,0.399,0.105c0.14,0,0.279-0.007,0.489-0.035c1.911-0.224,1.911-0.224,2.065-0.294
		c0.07-0.028,0.105-0.042,0.133-0.042c0.07,0,0.231,0.098,0.406,0.259c0.168,0.154,0.252,0.259,0.252,0.336
		c0,0.049-0.021,0.077-0.07,0.126c-0.126,0.126-0.153,0.238-0.497,2.093c0.028,0.028,0.05,0.042,0.057,0.056
		c0.195,0.161,0.245,0.231,0.245,0.329c0,0.07-0.057,0.112-0.161,0.112c-0.028,0-0.028,0-0.175-0.021
		c-0.203-0.028-0.393-0.042-0.609-0.042c-0.813,0-1.848,0.161-2.254,0.35c-0.042,0.021-0.105,0.035-0.14,0.035
		c-0.231,0-0.651-0.525-0.651-0.819c0-0.035,0.007-0.063,0.035-0.126c0.224,0.315,0.398,0.427,0.658,0.427
		c0.042,0,0.489-0.042,1.351-0.126c0.616-0.063,0.7-0.07,1.197-0.091c0.069-0.343,0.111-0.63,0.188-1.288
		c0.035-0.287,0.099-0.966,0.099-1.057c0-0.098-0.05-0.126-0.196-0.126c-0.099,0-0.714,0.056-0.938,0.084
		c-0.497,0.063-0.959,0.168-1.441,0.329c-0.042,0.014-0.084,0.021-0.126,0.021c-0.147,0-0.302-0.126-0.47-0.378
		c-0.104-0.161-0.175-0.322-0.175-0.42c0-0.028,0.007-0.063,0.035-0.126C72.803,61.903,72.887,61.994,73.006,62.084z M76.17,60.762
		c0.476,0.203,0.756,0.371,0.931,0.546c0.134,0.126,0.176,0.217,0.176,0.378c0,0.196-0.07,0.336-0.176,0.336
		c-0.063,0-0.104-0.042-0.168-0.154c-0.23-0.441-0.447-0.707-0.812-1.029L76.17,60.762z M76.884,60.377
		c0.385,0.14,0.672,0.273,0.868,0.42c0.182,0.126,0.238,0.224,0.238,0.378c0,0.189-0.077,0.35-0.168,0.35
		c-0.049,0-0.091-0.035-0.147-0.14c-0.188-0.329-0.448-0.609-0.847-0.924L76.884,60.377z"/>
	<path d="M86.299,63.044c0.175,0.133,0.309,0.168,0.679,0.168c0.077,0,0.077,0,0.861-0.021c0.273-0.007,2.499-0.042,2.73-0.042
		c0.63,0,0.783,0.014,0.909,0.063c0.07,0.035,0.099,0.077,0.099,0.14c0,0.084-0.063,0.161-0.161,0.189
		c-0.189,0.063-0.357,0.07-1.68,0.084c-0.651,0.007-2.254,0.049-2.499,0.063c-0.329,0.021-0.393,0.028-0.504,0.091
		c-0.028,0.007-0.077,0.021-0.105,0.021c-0.104,0-0.217-0.077-0.336-0.231c-0.147-0.182-0.266-0.476-0.266-0.644
		c0-0.098,0.007-0.112,0.056-0.161C86.166,62.925,86.201,62.974,86.299,63.044z"/>
	<path d="M99.921,65.802c0.385-0.357,0.665-0.763,0.938-1.33c0.266-0.553,0.482-1.414,0.482-1.897c0-0.273-0.119-0.413-0.476-0.546
		c0.077-0.049,0.111-0.063,0.188-0.063c0.154,0,0.322,0.056,0.525,0.175c0.259,0.154,0.378,0.273,0.378,0.385
		c0,0.056-0.014,0.112-0.091,0.322c-0.007,0.028-0.007,0.028-0.07,0.245c-0.224,0.735-0.287,0.91-0.476,1.288
		c-0.336,0.665-0.729,1.113-1.323,1.498L99.921,65.802z M105.899,63.009c-0.218,0.371-0.399,0.602-0.764,0.987
		c-0.405,0.434-1.05,0.994-1.483,1.281c-0.134,0.091-0.336,0.252-0.399,0.315c-0.056,0.056-0.091,0.077-0.14,0.077
		c-0.161,0-0.42-0.364-0.42-0.581c0-0.014,0.014-0.084,0.049-0.217c0.042-0.161,0.063-0.784,0.063-1.897
		c0-1.589-0.027-1.68-0.539-1.792c0.07-0.084,0.119-0.105,0.225-0.105c0.168,0,0.385,0.077,0.616,0.217
		c0.202,0.126,0.286,0.224,0.286,0.322c0,0.035-0.007,0.063-0.056,0.189c-0.035,0.091-0.07,0.329-0.098,0.686
		c-0.028,0.294-0.091,1.841-0.091,2.107c0,0.091,0,0.168,0.014,0.322c0.812-0.315,1.841-1.092,2.646-1.981L105.899,63.009z"/>
	<path d="M71.557,79.935c-0.027,0.112-0.069,0.154-0.153,0.168c-0.141,0.028-0.477,0.056-0.672,0.056
		c-0.141,0-0.21-0.042-0.267-0.168c0.07-2.492,0.084-4.158,0.084-6.888c0-2.352-0.014-3.626-0.084-5.18
		c0.561,0.322,0.742,0.42,1.288,0.798h6.104c0.279-0.28,0.279-0.28,0.63-0.658c0.363,0.28,0.476,0.378,0.825,0.658
		c0.099,0.084,0.141,0.14,0.141,0.182c0,0.098-0.084,0.168-0.448,0.42c0,8.4,0,8.4,0.084,10.542
		c-0.028,0.126-0.056,0.168-0.126,0.21c-0.056,0.042-0.42,0.07-0.728,0.07c-0.126,0-0.168-0.042-0.21-0.168v-0.952h-6.469V79.935z
		 M78.025,69.043h-6.469v2.912h6.469V69.043z M71.557,72.277v2.884h6.469v-2.884H71.557z M71.557,75.497v3.206h6.469v-3.206H71.557z
		"/>
	<path d="M86.565,70.345c0.224-0.252,0.279-0.336,0.504-0.588c0.308,0.238,0.405,0.322,0.728,0.588
		c0.098,0.098,0.14,0.14,0.14,0.196c0,0.084-0.084,0.14-0.476,0.336c-0.014,0.882-0.014,1.484-0.014,1.792
		c0,2.94,0.014,5.32,0.027,6.286c0,0.028,0,0.056,0,0.07c0,0.112-0.098,0.154-0.462,0.168c-0.111,0-0.182,0.014-0.224,0.014
		c-0.014,0-0.028,0-0.042,0c-0.126,0-0.182-0.042-0.182-0.14c0,0,0-0.028,0-0.042v-0.77h-2.492v1.176
		c-0.028,0.168-0.099,0.196-0.477,0.196c-0.027,0-0.084,0-0.182,0c-0.21,0-0.252-0.014-0.252-0.154
		c0.056-1.568,0.056-2.044,0.056-4.466c0-3.122-0.014-3.906-0.084-5.376c0.477,0.28,0.603,0.378,1.05,0.714h0.393
		c0.448-1.582,0.532-1.988,0.56-2.674c0.574,0.154,1.261,0.35,1.442,0.434c0.084,0.042,0.126,0.084,0.126,0.14
		c0,0.14-0.084,0.182-0.658,0.252c-0.42,0.84-0.63,1.162-1.176,1.848H86.565z M86.565,73.831v-3.164h-2.492v3.164H86.565z
		 M84.073,74.153v3.78h2.492v-3.78H84.073z M93.593,70.345c0.267-0.308,0.351-0.392,0.616-0.686
		c0.364,0.308,0.476,0.406,0.826,0.714c0.111,0.098,0.14,0.154,0.14,0.238c0,0.126-0.028,0.14-0.518,0.392
		c-0.07,3.248-0.084,3.556-0.309,5.306c-0.21,1.624-0.476,2.618-0.854,3.122c-0.267,0.35-0.462,0.434-1.638,0.644
		c-0.126-0.476-0.225-0.644-0.448-0.784c-0.126-0.084-0.364-0.154-0.729-0.21l-0.405-0.042c-0.141-0.014-0.267-0.028-0.393-0.056
		v-0.238c0.267,0.014,0.504,0.028,0.645,0.042c0.812,0.042,1.008,0.042,1.357,0.042c0.784,0,0.84-0.014,0.966-0.252
		c0.21-0.434,0.435-1.498,0.574-2.646c0.196-1.624,0.267-2.982,0.267-5.264h-3.795c-0.854,1.652-1.287,2.324-1.987,3.108
		l-0.183-0.112c0.673-1.106,1.078-2.016,1.526-3.346c0.364-1.12,0.56-1.918,0.63-2.73c0.63,0.14,1.316,0.322,1.484,0.392
		c0.098,0.028,0.14,0.084,0.14,0.14c0,0.112-0.112,0.168-0.644,0.294c-0.238,0.742-0.393,1.106-0.798,1.932H93.593z M89.491,72.515
		c1.008,0.658,1.512,1.05,2.044,1.596c0.378,0.378,0.504,0.644,0.504,1.008c0,0.532-0.224,1.036-0.477,1.036
		c-0.111,0-0.21-0.098-0.294-0.322c-0.168-0.476-0.363-0.896-0.644-1.442c-0.392-0.77-0.644-1.12-1.246-1.736L89.491,72.515z"/>
	<path d="M99.403,72.011c0.279-0.364,0.363-0.49,0.644-0.84c0.519,0.49,0.519,0.49,1.008,0.952c0.042,0.056,0.07,0.098,0.07,0.126
		c0,0.042-0.056,0.084-0.126,0.084h-2.016v4.466c0.657-0.224,1.035-0.378,2.086-0.798l0.098,0.182
		c-0.728,0.49-1.036,0.658-1.974,1.162c-1.106,0.574-1.162,0.616-2.002,1.064c-0.028,0.14-0.042,0.252-0.057,0.322
		c-0.042,0.224-0.111,0.336-0.195,0.336c-0.126,0-0.126,0-0.547-1.484c0.49-0.098,0.49-0.098,1.694-0.49v-4.76h-0.798
		c-0.322,0-0.588,0.028-0.896,0.084l-0.098-0.504c0.266,0.07,0.616,0.098,0.994,0.098h0.798v-2.282c0-0.434-0.014-0.602-0.084-1.82
		c1.358,0.154,1.568,0.21,1.568,0.364c0,0.098-0.154,0.182-0.588,0.294v3.444H99.403z M104.163,71.885
		c-0.014-3.36-0.014-3.36-0.07-4.214c1.33,0.182,1.33,0.182,1.47,0.266c0.028,0.014,0.07,0.07,0.07,0.112
		c0,0.098-0.056,0.126-0.602,0.336v3.178l1.974-0.728c0.154-0.336,0.21-0.434,0.378-0.728c0.462,0.252,0.603,0.336,1.022,0.574
		c0.126,0.112,0.14,0.14,0.14,0.196c0,0.084-0.168,0.252-0.462,0.448c-0.084,2.52-0.168,3.696-0.336,4.48
		c-0.07,0.35-0.238,0.63-0.49,0.798c-0.21,0.14-0.406,0.196-0.896,0.28c-0.057-0.588-0.294-0.812-1.106-0.952v-0.224
		c0.519,0.056,0.896,0.084,1.162,0.084c0.406,0,0.476-0.098,0.574-0.896c0.126-1.022,0.168-1.946,0.168-3.78l-2.128,0.798v2.366
		c0,1.302,0.014,1.82,0.056,3.234c-0.014,0.182-0.182,0.238-0.686,0.238c-0.196,0-0.267-0.042-0.28-0.182
		c0.028-2.604,0.042-3.122,0.042-4.228v-1.106l-1.708,0.63v5.712c0,0.196,0.014,0.252,0.084,0.28
		c0.126,0.07,0.812,0.098,1.932,0.098c0.798,0,2.296-0.028,2.576-0.042c0.519-0.028,0.574-0.056,0.729-0.406
		c0.224-0.532,0.546-1.526,0.882-2.73l0.21,0.028l-0.21,2.464c-0.028,0.224-0.028,0.224-0.028,0.238
		c0,0.126,0.028,0.154,0.308,0.294c0.112,0.056,0.183,0.154,0.183,0.294c0,0.294-0.322,0.532-0.826,0.602
		c-0.42,0.056-0.42,0.056-2.296,0.084c-1.442,0.014-1.512,0.014-1.778,0.014c-2.38,0-2.632-0.084-2.674-0.938l0.028-3.108v-2.562
		l-0.519,0.196c-0.378,0.14-0.546,0.224-0.84,0.434l-0.28-0.434c0.378-0.07,0.448-0.098,1.009-0.308l0.63-0.224v-1.834
		c0-0.77-0.015-1.078-0.057-1.764c1.387,0.182,1.513,0.21,1.513,0.364c0,0.112-0.154,0.196-0.574,0.322v2.576L104.163,71.885z"/>
</g>
<rect x="67.461" y="40.637" fill="none" stroke="#008CD6" stroke-width="0.5" width="42" height="14"/>
<line fill="none" stroke="#008CD6" stroke-width="0.5" x1="81.461" y1="54.637" x2="81.461" y2="40.637"/>
<line fill="none" stroke="#008CD6" stroke-width="0.5" x1="95.461" y1="54.637" x2="95.461" y2="40.637"/>
<polyline fill="none" stroke="#008CD6" stroke-width="0.5" points="70.961,40.637 70.961,33.637 77.961,33.637 77.961,40.637 "/>
<polyline fill="none" stroke="#008CD6" stroke-width="0.5" points="84.961,40.637 84.961,33.637 91.961,33.637 91.961,40.637 "/>
<polyline fill="none" stroke="#008CD6" stroke-width="0.5" points="98.961,40.637 98.961,33.637 105.961,33.637 105.961,40.637 "/>
<g>
	<path fill="#008CD6" d="M114.253,22.581c0.208,0.032,0.36,0.04,0.664,0.04h0.504c0.272,0,0.4-0.008,0.664-0.04
		c-0.048,0.488-0.072,0.896-0.072,1.328v3.888c0,0.376,0.016,0.608,0.064,0.904h-0.76c0.048-0.28,0.064-0.536,0.064-0.904v-4.632
		h-0.432c-0.256,0-0.464,0.016-0.696,0.048V22.581z"/>
	<path fill="#008CD6" d="M121.853,22.621l-2.88,7.32h-0.6l2.888-7.32H121.853z"/>
	<path fill="#008CD6" d="M122.261,26.581c0.168-0.192,0.352-0.416,0.52-0.616l2.024-2.528c0.272-0.336,0.416-0.536,0.6-0.816h0.6
		c-0.04,0.472-0.048,0.72-0.048,1.352v2.624h0.304c0.336,0,0.544-0.016,0.832-0.056v0.664c-0.296-0.04-0.496-0.056-0.84-0.056
		h-0.296v0.688c0,0.384,0.016,0.568,0.064,0.864h-0.728c0.048-0.28,0.064-0.504,0.064-0.864v-0.688h-2.144
		c-0.448,0-0.688,0.008-0.952,0.032V26.581z M125.365,24.573c0-0.424,0.008-0.68,0.048-1.088c-0.168,0.24-0.368,0.504-0.6,0.8
		l-1.84,2.32h2.392V24.573z"/>
	<path fill="#008CD6" d="M130.533,28.701c0.04-0.304,0.056-0.536,0.056-0.92v-4.256c0-0.336-0.016-0.592-0.056-0.904h0.704
		c-0.04,0.296-0.056,0.528-0.056,0.912v1.08c0,0.216-0.008,0.36-0.032,0.568c0.376-0.592,0.92-0.88,1.648-0.88
		c1.232,0,1.968,0.832,1.968,2.224c0,1.408-0.752,2.256-2,2.256c-0.504,0-0.872-0.128-1.24-0.432
		c-0.176-0.136-0.248-0.224-0.376-0.416c0.016,0.152,0.024,0.216,0.024,0.32v0.448H130.533z M132.749,24.813
		c-0.944,0-1.568,0.688-1.568,1.712c0,1.032,0.624,1.736,1.544,1.736c0.896,0,1.424-0.648,1.424-1.744
		C134.149,25.437,133.637,24.813,132.749,24.813z"/>
	<path fill="#008CD6" d="M138.549,28.132c-0.312,0.28-0.464,0.384-0.736,0.488c-0.272,0.104-0.56,0.16-0.832,0.16
		c-0.88,0-1.416-0.456-1.416-1.216c0-0.64,0.4-1.104,1.144-1.312c0.472-0.136,0.856-0.184,1.84-0.208v-0.464
		c0-0.544-0.344-0.824-1.008-0.824c-0.44,0-0.768,0.112-0.992,0.344c-0.104,0.112-0.168,0.224-0.248,0.464l-0.624-0.136
		c0.144-0.368,0.248-0.536,0.448-0.712c0.328-0.304,0.808-0.456,1.408-0.456c1.056,0,1.6,0.448,1.6,1.312v2.248
		c0,0.36,0.016,0.56,0.064,0.88h-0.648V28.132z M138.549,26.517c-0.952,0.024-1.408,0.08-1.768,0.232
		c-0.408,0.168-0.608,0.44-0.608,0.824c0,0.44,0.328,0.72,0.848,0.72c0.464,0,0.968-0.224,1.28-0.568
		c0.184-0.2,0.248-0.368,0.248-0.688V26.517z"/>
	<path fill="#008CD6" d="M140.725,27.42c0.056,0.296,0.12,0.44,0.28,0.584c0.2,0.184,0.52,0.28,0.928,0.28
		c0.696,0,1.136-0.296,1.136-0.768c0-0.224-0.08-0.392-0.248-0.496c-0.192-0.12-0.352-0.168-0.944-0.288
		c-0.64-0.136-0.912-0.232-1.184-0.416c-0.28-0.192-0.432-0.488-0.432-0.84c0-0.288,0.12-0.56,0.344-0.776
		c0.28-0.272,0.712-0.416,1.248-0.416c0.544,0,0.968,0.128,1.256,0.384c0.208,0.176,0.32,0.36,0.424,0.728l-0.632,0.104
		c-0.048-0.216-0.088-0.312-0.2-0.424c-0.184-0.2-0.472-0.304-0.832-0.304c-0.584,0-1,0.296-1,0.72c0,0.184,0.096,0.344,0.272,0.44
		c0.184,0.104,0.392,0.168,0.888,0.272c0.776,0.176,1.032,0.272,1.272,0.456c0.248,0.2,0.384,0.504,0.384,0.832
		c0,0.8-0.68,1.296-1.776,1.296c-0.728,0-1.288-0.216-1.584-0.624c-0.12-0.168-0.176-0.304-0.256-0.632L140.725,27.42z"/>
	<path fill="#008CD6" d="M145.005,26.637c0.024,0.536,0.104,0.832,0.32,1.12c0.256,0.352,0.648,0.544,1.128,0.544
		c0.648,0,1.096-0.32,1.32-0.936l0.56,0.224c-0.152,0.336-0.256,0.48-0.44,0.664c-0.376,0.368-0.864,0.56-1.448,0.56
		c-1.256,0-2.048-0.88-2.048-2.264c0-1.368,0.784-2.264,1.984-2.264c1.032,0,1.776,0.664,1.936,1.736
		c0.008,0.088,0.04,0.4,0.056,0.616H145.005z M147.733,26.133c-0.048-0.448-0.168-0.736-0.424-0.984
		c-0.248-0.24-0.56-0.36-0.944-0.36c-0.488,0-0.896,0.248-1.136,0.696c-0.112,0.2-0.152,0.344-0.2,0.648H147.733z"/>
	<path fill="#008CD6" d="M116.597,34.708c-0.232-0.624-0.616-0.92-1.208-0.92c-0.88,0-1.44,0.688-1.44,1.76
		c0,1.056,0.576,1.728,1.472,1.728c0.456,0,0.832-0.184,1.04-0.512c0.08-0.12,0.12-0.216,0.176-0.408l0.6,0.16
		c-0.112,0.288-0.192,0.44-0.328,0.616c-0.352,0.44-0.864,0.672-1.512,0.672c-1.256,0-2.064-0.872-2.064-2.24
		c0-1.384,0.8-2.288,2.024-2.288c0.664,0,1.2,0.256,1.544,0.736c0.112,0.152,0.184,0.28,0.28,0.512L116.597,34.708z"/>
	<path fill="#008CD6" d="M118.157,37.701c0.04-0.288,0.056-0.504,0.056-0.904v-4.272c0-0.4-0.016-0.608-0.056-0.904h0.712
		c-0.048,0.296-0.064,0.504-0.064,0.912v1.352c0,0.128,0,0.192-0.024,0.4c0.16-0.264,0.248-0.384,0.44-0.544
		c0.344-0.296,0.712-0.432,1.2-0.432c0.936,0,1.496,0.552,1.496,1.488v2.008c0,0.368,0.016,0.6,0.056,0.896h-0.72
		c0.04-0.264,0.056-0.504,0.056-0.904v-1.888c0-0.696-0.344-1.072-0.968-1.072c-0.448,0-0.816,0.192-1.128,0.584
		c-0.224,0.288-0.328,0.504-0.4,0.84v1.536c0,0.352,0.016,0.592,0.056,0.904H118.157z"/>
	<path fill="#008CD6" d="M125.941,37.132c-0.312,0.28-0.464,0.384-0.736,0.488s-0.56,0.16-0.832,0.16
		c-0.88,0-1.416-0.456-1.416-1.216c0-0.64,0.4-1.104,1.144-1.312c0.472-0.136,0.856-0.184,1.84-0.208v-0.464
		c0-0.544-0.344-0.824-1.008-0.824c-0.44,0-0.768,0.112-0.992,0.344c-0.104,0.112-0.168,0.224-0.248,0.464l-0.624-0.136
		c0.144-0.368,0.248-0.536,0.448-0.712c0.328-0.304,0.808-0.456,1.408-0.456c1.056,0,1.6,0.448,1.6,1.312v2.248
		c0,0.36,0.016,0.56,0.064,0.88h-0.648V37.132z M125.941,35.517c-0.952,0.024-1.408,0.08-1.768,0.232
		c-0.408,0.168-0.608,0.44-0.608,0.824c0,0.44,0.328,0.72,0.848,0.72c0.464,0,0.968-0.224,1.28-0.568
		c0.184-0.2,0.248-0.368,0.248-0.688V35.517z"/>
	<path fill="#008CD6" d="M130.285,34.004c-0.304-0.096-0.448-0.12-0.648-0.12c-0.408,0-0.744,0.168-0.984,0.488
		c-0.192,0.248-0.264,0.44-0.296,0.8v1.632c0,0.36,0.016,0.584,0.056,0.896h-0.72c0.04-0.368,0.056-0.576,0.056-0.904v-2.504
		c0-0.4-0.016-0.616-0.056-0.904h0.664v0.456c0,0.064,0,0.184-0.008,0.24c0.152-0.248,0.272-0.376,0.44-0.488
		c0.304-0.2,0.576-0.28,0.96-0.28c0.24,0,0.376,0.016,0.712,0.072L130.285,34.004z"/>
	<path fill="#008CD6" d="M133.981,37.132c-0.312,0.28-0.464,0.384-0.736,0.488s-0.56,0.16-0.832,0.16
		c-0.88,0-1.416-0.456-1.416-1.216c0-0.64,0.4-1.104,1.144-1.312c0.472-0.136,0.856-0.184,1.84-0.208v-0.464
		c0-0.544-0.344-0.824-1.008-0.824c-0.44,0-0.768,0.112-0.992,0.344c-0.104,0.112-0.168,0.224-0.248,0.464l-0.624-0.136
		c0.144-0.368,0.248-0.536,0.448-0.712c0.328-0.304,0.808-0.456,1.408-0.456c1.056,0,1.6,0.448,1.6,1.312v2.248
		c0,0.36,0.016,0.56,0.064,0.88h-0.648V37.132z M133.981,35.517c-0.952,0.024-1.408,0.08-1.768,0.232
		c-0.408,0.168-0.608,0.44-0.608,0.824c0,0.44,0.328,0.72,0.848,0.72c0.464,0,0.968-0.224,1.28-0.568
		c0.184-0.2,0.248-0.368,0.248-0.688V35.517z"/>
	<path fill="#008CD6" d="M138.797,34.708c-0.232-0.624-0.616-0.92-1.208-0.92c-0.88,0-1.44,0.688-1.44,1.76
		c0,1.056,0.576,1.728,1.472,1.728c0.456,0,0.832-0.184,1.04-0.512c0.08-0.12,0.12-0.216,0.176-0.408l0.6,0.16
		c-0.112,0.288-0.192,0.44-0.328,0.616c-0.352,0.44-0.864,0.672-1.512,0.672c-1.256,0-2.064-0.872-2.064-2.24
		c0-1.384,0.8-2.288,2.024-2.288c0.664,0,1.2,0.256,1.544,0.736c0.112,0.152,0.184,0.28,0.28,0.512L138.797,34.708z"/>
	<path fill="#008CD6" d="M141.581,32.197c-0.04,0.256-0.056,0.544-0.056,0.888v0.304h0.384c0.368,0,0.536-0.008,0.816-0.048v0.608
		c-0.256-0.04-0.456-0.048-0.816-0.048h-0.384v2.784c0,0.232,0.032,0.352,0.104,0.424c0.088,0.088,0.224,0.136,0.392,0.136
		c0.208,0,0.368-0.048,0.632-0.208l0.176,0.56c-0.328,0.136-0.576,0.184-0.904,0.184c-0.352,0-0.624-0.088-0.784-0.248
		c-0.16-0.16-0.224-0.392-0.224-0.768V33.9h-0.32c-0.272,0-0.456,0.016-0.72,0.048v-0.608c0.224,0.04,0.384,0.048,0.72,0.048h0.32
		v-0.304c0-0.32-0.016-0.624-0.056-0.888H141.581z"/>
	<path fill="#008CD6" d="M143.901,35.637c0.024,0.536,0.104,0.832,0.32,1.12c0.256,0.352,0.648,0.544,1.128,0.544
		c0.648,0,1.096-0.32,1.32-0.936l0.56,0.224c-0.152,0.336-0.256,0.48-0.44,0.664c-0.376,0.368-0.864,0.56-1.448,0.56
		c-1.256,0-2.048-0.88-2.048-2.264c0-1.368,0.784-2.264,1.984-2.264c1.032,0,1.776,0.664,1.936,1.736
		c0.008,0.088,0.04,0.4,0.056,0.616H143.901z M146.629,35.133c-0.048-0.448-0.168-0.736-0.424-0.984
		c-0.248-0.24-0.56-0.36-0.944-0.36c-0.488,0-0.896,0.248-1.136,0.696c-0.112,0.2-0.152,0.344-0.2,0.648H146.629z"/>
	<path fill="#008CD6" d="M150.79,34.004c-0.304-0.096-0.448-0.12-0.648-0.12c-0.408,0-0.744,0.168-0.984,0.488
		c-0.192,0.248-0.264,0.44-0.296,0.8v1.632c0,0.36,0.016,0.584,0.056,0.896h-0.72c0.04-0.368,0.056-0.576,0.056-0.904v-2.504
		c0-0.4-0.016-0.616-0.056-0.904h0.664v0.456c0,0.064,0,0.184-0.008,0.24c0.152-0.248,0.272-0.376,0.44-0.488
		c0.304-0.2,0.576-0.28,0.96-0.28c0.24,0,0.376,0.016,0.712,0.072L150.79,34.004z"/>
	<path fill="#008CD6" d="M154.726,36.42c0.056,0.296,0.12,0.44,0.28,0.584c0.2,0.184,0.52,0.28,0.928,0.28
		c0.696,0,1.136-0.296,1.136-0.768c0-0.224-0.08-0.392-0.248-0.496c-0.192-0.12-0.352-0.168-0.944-0.288
		c-0.64-0.136-0.912-0.232-1.184-0.416c-0.28-0.192-0.432-0.488-0.432-0.84c0-0.288,0.12-0.56,0.344-0.776
		c0.28-0.272,0.712-0.416,1.248-0.416c0.544,0,0.968,0.128,1.256,0.384c0.208,0.176,0.32,0.36,0.424,0.728l-0.632,0.104
		c-0.048-0.216-0.088-0.312-0.2-0.424c-0.184-0.2-0.472-0.304-0.832-0.304c-0.584,0-1,0.296-1,0.72c0,0.184,0.096,0.344,0.272,0.44
		c0.184,0.104,0.392,0.168,0.888,0.272c0.776,0.176,1.032,0.272,1.272,0.456c0.248,0.2,0.384,0.504,0.384,0.832
		c0,0.8-0.68,1.296-1.776,1.296c-0.728,0-1.288-0.216-1.584-0.624c-0.12-0.168-0.176-0.304-0.256-0.632L154.726,36.42z"/>
	<path fill="#008CD6" d="M158.597,39.38c0.04-0.312,0.056-0.568,0.056-0.896v-4.176c0-0.384-0.016-0.616-0.056-0.92h0.64v0.456
		c0,0.104-0.008,0.192-0.024,0.328c0.36-0.568,0.92-0.864,1.632-0.864c1.232,0,1.984,0.84,1.984,2.232
		c0,1.36-0.768,2.232-1.968,2.232c-0.704,0-1.272-0.296-1.648-0.848c0.024,0.224,0.032,0.344,0.032,0.56v0.992
		c0,0.376,0.016,0.608,0.056,0.904H158.597z M162.205,35.541c0-1.088-0.512-1.712-1.408-1.712c-0.92,0-1.544,0.688-1.544,1.72
		c0,0.52,0.168,1,0.456,1.28c0.28,0.272,0.68,0.424,1.096,0.424C161.677,37.252,162.205,36.604,162.205,35.541z"/>
	<path fill="#008CD6" d="M166.621,37.132c-0.312,0.28-0.464,0.384-0.735,0.488c-0.273,0.104-0.561,0.16-0.832,0.16
		c-0.881,0-1.416-0.456-1.416-1.216c0-0.64,0.399-1.104,1.144-1.312c0.472-0.136,0.856-0.184,1.84-0.208v-0.464
		c0-0.544-0.345-0.824-1.009-0.824c-0.439,0-0.768,0.112-0.991,0.344c-0.104,0.112-0.168,0.224-0.248,0.464l-0.624-0.136
		c0.145-0.368,0.248-0.536,0.448-0.712c0.327-0.304,0.808-0.456,1.407-0.456c1.057,0,1.601,0.448,1.601,1.312v2.248
		c0,0.36,0.017,0.56,0.063,0.88h-0.647V37.132z M166.621,35.517c-0.952,0.024-1.408,0.08-1.769,0.232
		c-0.408,0.168-0.607,0.44-0.607,0.824c0,0.44,0.328,0.72,0.848,0.72c0.465,0,0.969-0.224,1.28-0.568
		c0.185-0.2,0.248-0.368,0.248-0.688V35.517z"/>
	<path fill="#008CD6" d="M171.437,34.708c-0.231-0.624-0.615-0.92-1.207-0.92c-0.881,0-1.44,0.688-1.44,1.76
		c0,1.056,0.576,1.728,1.472,1.728c0.457,0,0.832-0.184,1.041-0.512c0.08-0.12,0.119-0.216,0.176-0.408l0.6,0.16
		c-0.111,0.288-0.191,0.44-0.328,0.616c-0.352,0.44-0.863,0.672-1.512,0.672c-1.256,0-2.064-0.872-2.064-2.24
		c0-1.384,0.801-2.288,2.024-2.288c0.664,0,1.2,0.256,1.544,0.736c0.111,0.152,0.184,0.28,0.279,0.512L171.437,34.708z"/>
	<path fill="#008CD6" d="M173.405,35.637c0.023,0.536,0.104,0.832,0.32,1.12c0.256,0.352,0.647,0.544,1.127,0.544
		c0.648,0,1.097-0.32,1.32-0.936l0.561,0.224c-0.152,0.336-0.256,0.48-0.44,0.664c-0.376,0.368-0.864,0.56-1.448,0.56
		c-1.256,0-2.047-0.88-2.047-2.264c0-1.368,0.783-2.264,1.983-2.264c1.032,0,1.776,0.664,1.937,1.736
		c0.008,0.088,0.039,0.4,0.055,0.616H173.405z M176.134,35.133c-0.049-0.448-0.168-0.736-0.425-0.984
		c-0.248-0.24-0.56-0.36-0.944-0.36c-0.487,0-0.896,0.248-1.135,0.696c-0.113,0.2-0.152,0.344-0.201,0.648H176.134z"/>
</g>
<g>
	<path fill="#008CD6" d="M0.92,13.581c0.208,0.032,0.36,0.04,0.664,0.04h0.504c0.272,0,0.4-0.008,0.664-0.04
		c-0.048,0.488-0.072,0.896-0.072,1.328v3.888c0,0.376,0.016,0.608,0.064,0.904h-0.76c0.048-0.28,0.064-0.536,0.064-0.904v-4.632
		H1.616c-0.256,0-0.464,0.016-0.696,0.048V13.581z"/>
	<path fill="#008CD6" d="M8.52,13.621l-2.88,7.32h-0.6l2.888-7.32H8.52z"/>
	<path fill="#008CD6" d="M8.928,17.581c0.168-0.192,0.352-0.416,0.52-0.616l2.024-2.528c0.272-0.336,0.416-0.536,0.6-0.816h0.6
		c-0.04,0.472-0.048,0.72-0.048,1.352v2.624h0.304c0.336,0,0.544-0.016,0.832-0.056v0.664c-0.296-0.04-0.496-0.056-0.84-0.056
		h-0.296v0.688c0,0.384,0.016,0.568,0.064,0.864h-0.728c0.048-0.28,0.064-0.504,0.064-0.864v-0.688H9.88
		c-0.448,0-0.688,0.008-0.952,0.032V17.581z M12.032,15.573c0-0.424,0.008-0.68,0.048-1.088c-0.168,0.24-0.368,0.504-0.6,0.8
		l-1.84,2.32h2.392V15.573z"/>
	<path fill="#008CD6" d="M17.2,19.701c0.04-0.304,0.056-0.536,0.056-0.92v-4.256c0-0.336-0.016-0.592-0.056-0.904h0.704
		c-0.04,0.296-0.056,0.528-0.056,0.912v1.08c0,0.216-0.008,0.36-0.032,0.568c0.376-0.592,0.92-0.88,1.648-0.88
		c1.232,0,1.968,0.832,1.968,2.224c0,1.408-0.752,2.256-2,2.256c-0.504,0-0.872-0.128-1.24-0.432
		c-0.176-0.136-0.248-0.224-0.376-0.416c0.016,0.152,0.024,0.216,0.024,0.32v0.448H17.2z M19.416,15.813
		c-0.944,0-1.568,0.688-1.568,1.712c0,1.032,0.624,1.736,1.544,1.736c0.896,0,1.424-0.648,1.424-1.744
		C20.816,16.437,20.304,15.813,19.416,15.813z"/>
	<path fill="#008CD6" d="M25.216,19.132c-0.312,0.28-0.464,0.384-0.736,0.488c-0.272,0.104-0.56,0.16-0.832,0.16
		c-0.88,0-1.416-0.456-1.416-1.216c0-0.64,0.4-1.104,1.144-1.312c0.472-0.136,0.856-0.184,1.84-0.208v-0.464
		c0-0.544-0.344-0.824-1.008-0.824c-0.44,0-0.768,0.112-0.992,0.344c-0.104,0.112-0.168,0.224-0.248,0.464l-0.624-0.136
		c0.144-0.368,0.248-0.536,0.448-0.712c0.328-0.304,0.808-0.456,1.408-0.456c1.056,0,1.6,0.448,1.6,1.312v2.248
		c0,0.36,0.016,0.56,0.064,0.88h-0.648V19.132z M25.216,17.517c-0.952,0.024-1.408,0.08-1.768,0.232
		c-0.408,0.168-0.608,0.44-0.608,0.824c0,0.44,0.328,0.72,0.848,0.72c0.464,0,0.968-0.224,1.28-0.568
		c0.184-0.2,0.248-0.368,0.248-0.688V17.517z"/>
	<path fill="#008CD6" d="M27.392,18.42c0.056,0.296,0.12,0.44,0.28,0.584c0.2,0.184,0.52,0.28,0.928,0.28
		c0.696,0,1.136-0.296,1.136-0.768c0-0.224-0.08-0.392-0.248-0.496c-0.192-0.12-0.352-0.168-0.944-0.288
		c-0.64-0.136-0.912-0.232-1.184-0.416c-0.28-0.192-0.432-0.488-0.432-0.84c0-0.288,0.12-0.56,0.344-0.776
		c0.28-0.272,0.712-0.416,1.248-0.416c0.544,0,0.968,0.128,1.256,0.384c0.208,0.176,0.32,0.36,0.424,0.728L29.568,16.5
		c-0.048-0.216-0.088-0.312-0.2-0.424c-0.184-0.2-0.472-0.304-0.832-0.304c-0.584,0-1,0.296-1,0.72c0,0.184,0.096,0.344,0.272,0.44
		c0.184,0.104,0.392,0.168,0.888,0.272c0.776,0.176,1.032,0.272,1.272,0.456c0.248,0.2,0.384,0.504,0.384,0.832
		c0,0.8-0.68,1.296-1.776,1.296c-0.728,0-1.288-0.216-1.584-0.624c-0.12-0.168-0.176-0.304-0.256-0.632L27.392,18.42z"/>
	<path fill="#008CD6" d="M31.672,17.637c0.024,0.536,0.104,0.832,0.32,1.12c0.256,0.352,0.648,0.544,1.128,0.544
		c0.648,0,1.096-0.32,1.32-0.936L35,18.588c-0.152,0.336-0.256,0.48-0.44,0.664c-0.376,0.368-0.864,0.56-1.448,0.56
		c-1.256,0-2.048-0.88-2.048-2.264c0-1.368,0.784-2.264,1.984-2.264c1.032,0,1.776,0.664,1.936,1.736
		c0.008,0.088,0.04,0.4,0.056,0.616H31.672z M34.4,17.133c-0.048-0.448-0.168-0.736-0.424-0.984c-0.248-0.24-0.56-0.36-0.944-0.36
		c-0.488,0-0.896,0.248-1.136,0.696c-0.112,0.2-0.152,0.344-0.2,0.648H34.4z"/>
	<path fill="#008CD6" d="M3.264,25.708c-0.232-0.624-0.616-0.92-1.208-0.92c-0.88,0-1.44,0.688-1.44,1.76
		c0,1.056,0.576,1.728,1.472,1.728c0.456,0,0.832-0.184,1.04-0.512c0.08-0.12,0.12-0.216,0.176-0.408l0.6,0.16
		c-0.112,0.288-0.192,0.44-0.328,0.616c-0.352,0.44-0.864,0.672-1.512,0.672C0.808,28.805,0,27.933,0,26.564
		c0-1.384,0.8-2.288,2.024-2.288c0.664,0,1.2,0.256,1.544,0.736c0.112,0.152,0.184,0.28,0.28,0.512L3.264,25.708z"/>
	<path fill="#008CD6" d="M4.824,28.701c0.04-0.288,0.056-0.504,0.056-0.904v-4.272c0-0.4-0.016-0.608-0.056-0.904h0.712
		c-0.048,0.296-0.064,0.504-0.064,0.912v1.352c0,0.128,0,0.192-0.024,0.4c0.16-0.264,0.248-0.384,0.44-0.544
		c0.344-0.296,0.712-0.432,1.2-0.432c0.936,0,1.496,0.552,1.496,1.488v2.008c0,0.368,0.016,0.6,0.056,0.896H7.92
		c0.04-0.264,0.056-0.504,0.056-0.904v-1.888c0-0.696-0.344-1.072-0.968-1.072c-0.448,0-0.816,0.192-1.128,0.584
		c-0.224,0.288-0.328,0.504-0.4,0.84v1.536c0,0.352,0.016,0.592,0.056,0.904H4.824z"/>
	<path fill="#008CD6" d="M12.608,28.132c-0.312,0.28-0.464,0.384-0.736,0.488s-0.56,0.16-0.832,0.16
		c-0.88,0-1.416-0.456-1.416-1.216c0-0.64,0.4-1.104,1.144-1.312c0.472-0.136,0.856-0.184,1.84-0.208v-0.464
		c0-0.544-0.344-0.824-1.008-0.824c-0.44,0-0.768,0.112-0.992,0.344c-0.104,0.112-0.168,0.224-0.248,0.464l-0.624-0.136
		c0.144-0.368,0.248-0.536,0.448-0.712c0.328-0.304,0.808-0.456,1.408-0.456c1.056,0,1.6,0.448,1.6,1.312v2.248
		c0,0.36,0.016,0.56,0.064,0.88h-0.648V28.132z M12.608,26.517c-0.952,0.024-1.408,0.08-1.768,0.232
		c-0.408,0.168-0.608,0.44-0.608,0.824c0,0.44,0.328,0.72,0.848,0.72c0.464,0,0.968-0.224,1.28-0.568
		c0.184-0.2,0.248-0.368,0.248-0.688V26.517z"/>
	<path fill="#008CD6" d="M16.952,25.004c-0.304-0.096-0.448-0.12-0.648-0.12c-0.408,0-0.744,0.168-0.984,0.488
		c-0.192,0.248-0.264,0.44-0.296,0.8v1.632c0,0.36,0.016,0.584,0.056,0.896h-0.72c0.04-0.368,0.056-0.576,0.056-0.904v-2.504
		c0-0.4-0.016-0.616-0.056-0.904h0.664v0.456c0,0.064,0,0.184-0.008,0.24c0.152-0.248,0.272-0.376,0.44-0.488
		c0.304-0.2,0.576-0.28,0.96-0.28c0.24,0,0.376,0.016,0.712,0.072L16.952,25.004z"/>
	<path fill="#008CD6" d="M20.648,28.132c-0.312,0.28-0.464,0.384-0.736,0.488s-0.56,0.16-0.832,0.16
		c-0.88,0-1.416-0.456-1.416-1.216c0-0.64,0.4-1.104,1.144-1.312c0.472-0.136,0.856-0.184,1.84-0.208v-0.464
		c0-0.544-0.344-0.824-1.008-0.824c-0.44,0-0.768,0.112-0.992,0.344c-0.104,0.112-0.168,0.224-0.248,0.464l-0.624-0.136
		c0.144-0.368,0.248-0.536,0.448-0.712c0.328-0.304,0.808-0.456,1.408-0.456c1.056,0,1.6,0.448,1.6,1.312v2.248
		c0,0.36,0.016,0.56,0.064,0.88h-0.648V28.132z M20.648,26.517c-0.952,0.024-1.408,0.08-1.768,0.232
		c-0.408,0.168-0.608,0.44-0.608,0.824c0,0.44,0.328,0.72,0.848,0.72c0.464,0,0.968-0.224,1.28-0.568
		c0.184-0.2,0.248-0.368,0.248-0.688V26.517z"/>
	<path fill="#008CD6" d="M25.464,25.708c-0.232-0.624-0.616-0.92-1.208-0.92c-0.88,0-1.44,0.688-1.44,1.76
		c0,1.056,0.576,1.728,1.472,1.728c0.456,0,0.832-0.184,1.04-0.512c0.08-0.12,0.12-0.216,0.176-0.408l0.6,0.16
		c-0.112,0.288-0.192,0.44-0.328,0.616c-0.352,0.44-0.864,0.672-1.512,0.672c-1.256,0-2.064-0.872-2.064-2.24
		c0-1.384,0.8-2.288,2.024-2.288c0.664,0,1.2,0.256,1.544,0.736c0.112,0.152,0.184,0.28,0.28,0.512L25.464,25.708z"/>
	<path fill="#008CD6" d="M28.248,23.197c-0.04,0.256-0.056,0.544-0.056,0.888v0.304h0.384c0.368,0,0.536-0.008,0.816-0.048v0.608
		c-0.256-0.04-0.456-0.048-0.816-0.048h-0.384v2.784c0,0.232,0.032,0.352,0.104,0.424c0.088,0.088,0.224,0.136,0.392,0.136
		c0.208,0,0.368-0.048,0.632-0.208l0.176,0.56c-0.328,0.136-0.576,0.184-0.904,0.184c-0.352,0-0.624-0.088-0.784-0.248
		c-0.16-0.16-0.224-0.392-0.224-0.768V24.9h-0.32c-0.272,0-0.456,0.016-0.72,0.048v-0.608c0.224,0.04,0.384,0.048,0.72,0.048h0.32
		v-0.304c0-0.32-0.016-0.624-0.056-0.888H28.248z"/>
	<path fill="#008CD6" d="M30.568,26.637c0.024,0.536,0.104,0.832,0.32,1.12c0.256,0.352,0.648,0.544,1.128,0.544
		c0.648,0,1.096-0.32,1.32-0.936l0.56,0.224c-0.152,0.336-0.256,0.48-0.44,0.664c-0.376,0.368-0.864,0.56-1.448,0.56
		c-1.256,0-2.048-0.88-2.048-2.264c0-1.368,0.784-2.264,1.984-2.264c1.032,0,1.776,0.664,1.936,1.736
		c0.008,0.088,0.04,0.4,0.056,0.616H30.568z M33.296,26.133c-0.048-0.448-0.168-0.736-0.424-0.984c-0.248-0.24-0.56-0.36-0.944-0.36
		c-0.488,0-0.896,0.248-1.136,0.696c-0.112,0.2-0.152,0.344-0.2,0.648H33.296z"/>
	<path fill="#008CD6" d="M37.457,25.004c-0.304-0.096-0.448-0.12-0.648-0.12c-0.408,0-0.744,0.168-0.984,0.488
		c-0.192,0.248-0.264,0.44-0.296,0.8v1.632c0,0.36,0.016,0.584,0.056,0.896h-0.72c0.04-0.368,0.056-0.576,0.056-0.904v-2.504
		c0-0.4-0.016-0.616-0.056-0.904h0.664v0.456c0,0.064,0,0.184-0.008,0.24c0.152-0.248,0.272-0.376,0.44-0.488
		c0.304-0.2,0.576-0.28,0.96-0.28c0.24,0,0.376,0.016,0.712,0.072L37.457,25.004z"/>
	<path fill="#008CD6" d="M41.393,27.42c0.056,0.296,0.12,0.44,0.28,0.584c0.2,0.184,0.52,0.28,0.928,0.28
		c0.696,0,1.136-0.296,1.136-0.768c0-0.224-0.08-0.392-0.248-0.496c-0.192-0.12-0.352-0.168-0.944-0.288
		c-0.64-0.136-0.912-0.232-1.184-0.416c-0.28-0.192-0.432-0.488-0.432-0.84c0-0.288,0.12-0.56,0.344-0.776
		c0.28-0.272,0.712-0.416,1.248-0.416c0.544,0,0.968,0.128,1.256,0.384c0.208,0.176,0.32,0.36,0.424,0.728L43.568,25.5
		c-0.048-0.216-0.088-0.312-0.2-0.424c-0.184-0.2-0.472-0.304-0.832-0.304c-0.584,0-1,0.296-1,0.72c0,0.184,0.096,0.344,0.272,0.44
		c0.184,0.104,0.392,0.168,0.888,0.272c0.776,0.176,1.032,0.272,1.272,0.456c0.248,0.2,0.384,0.504,0.384,0.832
		c0,0.8-0.68,1.296-1.776,1.296c-0.728,0-1.288-0.216-1.584-0.624c-0.12-0.168-0.176-0.304-0.256-0.632L41.393,27.42z"/>
	<path fill="#008CD6" d="M45.264,30.38c0.04-0.312,0.056-0.568,0.056-0.896v-4.176c0-0.384-0.016-0.616-0.056-0.92h0.64v0.456
		c0,0.104-0.008,0.192-0.024,0.328c0.36-0.568,0.92-0.864,1.632-0.864c1.232,0,1.984,0.84,1.984,2.232
		c0,1.36-0.768,2.232-1.968,2.232c-0.704,0-1.272-0.296-1.648-0.848c0.024,0.224,0.032,0.344,0.032,0.56v0.992
		c0,0.376,0.016,0.608,0.056,0.904H45.264z M48.872,26.541c0-1.088-0.512-1.712-1.408-1.712c-0.92,0-1.544,0.688-1.544,1.72
		c0,0.52,0.168,1,0.456,1.28c0.28,0.272,0.68,0.424,1.096,0.424C48.344,28.252,48.872,27.604,48.872,26.541z"/>
	<path fill="#008CD6" d="M53.288,28.132c-0.312,0.28-0.464,0.384-0.736,0.488c-0.272,0.104-0.56,0.16-0.832,0.16
		c-0.88,0-1.416-0.456-1.416-1.216c0-0.64,0.4-1.104,1.144-1.312c0.472-0.136,0.856-0.184,1.84-0.208v-0.464
		c0-0.544-0.344-0.824-1.008-0.824c-0.44,0-0.768,0.112-0.992,0.344c-0.104,0.112-0.168,0.224-0.248,0.464l-0.624-0.136
		c0.144-0.368,0.248-0.536,0.448-0.712c0.328-0.304,0.808-0.456,1.408-0.456c1.056,0,1.6,0.448,1.6,1.312v2.248
		c0,0.36,0.016,0.56,0.064,0.88h-0.648V28.132z M53.288,26.517c-0.952,0.024-1.408,0.08-1.768,0.232
		c-0.408,0.168-0.608,0.44-0.608,0.824c0,0.44,0.328,0.72,0.848,0.72c0.464,0,0.968-0.224,1.28-0.568
		c0.184-0.2,0.248-0.368,0.248-0.688V26.517z"/>
	<path fill="#008CD6" d="M58.104,25.708c-0.232-0.624-0.616-0.92-1.208-0.92c-0.88,0-1.44,0.688-1.44,1.76
		c0,1.056,0.576,1.728,1.472,1.728c0.456,0,0.832-0.184,1.04-0.512c0.08-0.12,0.12-0.216,0.176-0.408l0.6,0.16
		c-0.112,0.288-0.192,0.44-0.328,0.616c-0.352,0.44-0.864,0.672-1.512,0.672c-1.256,0-2.064-0.872-2.064-2.24
		c0-1.384,0.8-2.288,2.024-2.288c0.664,0,1.2,0.256,1.544,0.736c0.112,0.152,0.184,0.28,0.28,0.512L58.104,25.708z"/>
	<path fill="#008CD6" d="M60.072,26.637c0.024,0.536,0.104,0.832,0.32,1.12c0.256,0.352,0.648,0.544,1.128,0.544
		c0.648,0,1.096-0.32,1.32-0.936l0.56,0.224c-0.152,0.336-0.256,0.48-0.44,0.664c-0.376,0.368-0.864,0.56-1.448,0.56
		c-1.256,0-2.048-0.88-2.048-2.264c0-1.368,0.784-2.264,1.984-2.264c1.032,0,1.776,0.664,1.936,1.736
		c0.008,0.088,0.04,0.4,0.056,0.616H60.072z M62.8,26.133c-0.048-0.448-0.168-0.736-0.424-0.984c-0.248-0.24-0.56-0.36-0.944-0.36
		c-0.488,0-0.896,0.248-1.136,0.696c-0.112,0.2-0.152,0.344-0.2,0.648H62.8z"/>
</g>
<g>
	<path fill="#008CD6" d="M67.252,0.08c0.208,0.032,0.36,0.04,0.664,0.04h0.504c0.272,0,0.4-0.008,0.664-0.04
		c-0.048,0.488-0.072,0.896-0.072,1.328v3.888c0,0.376,0.016,0.608,0.064,0.904h-0.76c0.048-0.28,0.064-0.536,0.064-0.904V0.664
		h-0.432c-0.256,0-0.464,0.016-0.696,0.048V0.08z"/>
	<path fill="#008CD6" d="M74.852,0.12l-2.88,7.32h-0.6l2.888-7.32H74.852z"/>
	<path fill="#008CD6" d="M76.364,6.2c-0.504,0-0.624,0.008-0.88,0.04c0.088-0.632,0.112-0.752,0.232-1.056
		c0.2-0.504,0.536-0.944,1.04-1.376c0.28-0.24,0.296-0.248,1.224-0.88c0.792-0.536,1.056-0.888,1.056-1.376c0-0.608-0.512-1-1.328-1
		c-0.528,0-0.92,0.176-1.16,0.52c-0.152,0.216-0.224,0.408-0.28,0.808l-0.672-0.112c0.12-0.576,0.24-0.856,0.504-1.152
		C76.46,0.208,77.004,0,77.708,0c1.208,0,1.984,0.608,1.984,1.552c0,0.408-0.16,0.792-0.472,1.136
		c-0.24,0.272-0.448,0.424-1.36,1.032c-0.632,0.424-0.888,0.648-1.152,0.984c-0.248,0.328-0.36,0.544-0.456,0.928h2.552
		c0.4,0,0.672-0.016,0.976-0.056v0.672C79.46,6.216,79.196,6.2,78.796,6.2H76.364z"/>
	<path fill="#008CD6" d="M83.5,6.2c0.04-0.304,0.056-0.536,0.056-0.92V1.024c0-0.336-0.016-0.592-0.056-0.904h0.704
		c-0.04,0.296-0.056,0.528-0.056,0.912v1.08c0,0.216-0.008,0.36-0.032,0.568c0.376-0.592,0.92-0.88,1.648-0.88
		c1.232,0,1.968,0.832,1.968,2.224c0,1.408-0.752,2.256-2,2.256c-0.504,0-0.872-0.128-1.24-0.432
		c-0.176-0.136-0.248-0.224-0.376-0.416c0.016,0.152,0.024,0.216,0.024,0.32V6.2H83.5z M85.716,2.312
		c-0.944,0-1.568,0.688-1.568,1.712c0,1.032,0.624,1.736,1.544,1.736c0.896,0,1.424-0.648,1.424-1.744
		C87.116,2.936,86.604,2.312,85.716,2.312z"/>
	<path fill="#008CD6" d="M91.516,5.632c-0.312,0.28-0.464,0.384-0.736,0.488c-0.272,0.104-0.56,0.16-0.832,0.16
		c-0.88,0-1.416-0.456-1.416-1.216c0-0.64,0.4-1.104,1.144-1.312c0.472-0.136,0.856-0.184,1.84-0.208V3.08
		c0-0.544-0.344-0.824-1.008-0.824c-0.44,0-0.768,0.112-0.992,0.344c-0.104,0.112-0.168,0.224-0.248,0.464l-0.624-0.136
		c0.144-0.368,0.248-0.536,0.448-0.712C89.42,1.912,89.9,1.76,90.5,1.76c1.056,0,1.6,0.448,1.6,1.312V5.32
		c0,0.36,0.016,0.56,0.064,0.88h-0.648V5.632z M91.516,4.016c-0.952,0.024-1.408,0.08-1.768,0.232
		c-0.408,0.168-0.608,0.44-0.608,0.824c0,0.44,0.328,0.72,0.848,0.72c0.464,0,0.968-0.224,1.28-0.568
		c0.184-0.2,0.248-0.368,0.248-0.688V4.016z"/>
	<path fill="#008CD6" d="M93.692,4.92c0.056,0.296,0.12,0.44,0.28,0.584c0.2,0.184,0.52,0.28,0.928,0.28
		c0.696,0,1.136-0.296,1.136-0.768c0-0.224-0.08-0.392-0.248-0.496c-0.192-0.12-0.352-0.168-0.944-0.288
		C94.204,4.096,93.932,4,93.66,3.816c-0.28-0.192-0.432-0.488-0.432-0.84c0-0.288,0.12-0.56,0.344-0.776
		c0.28-0.272,0.712-0.416,1.248-0.416c0.544,0,0.968,0.128,1.256,0.384c0.208,0.176,0.32,0.36,0.424,0.728L95.868,3
		c-0.048-0.216-0.088-0.312-0.2-0.424c-0.184-0.2-0.472-0.304-0.832-0.304c-0.584,0-1,0.296-1,0.72c0,0.184,0.096,0.344,0.272,0.44
		C94.292,3.536,94.5,3.6,94.996,3.704c0.776,0.176,1.032,0.272,1.272,0.456c0.248,0.2,0.384,0.504,0.384,0.832
		c0,0.8-0.68,1.296-1.776,1.296c-0.728,0-1.288-0.216-1.584-0.624c-0.12-0.168-0.176-0.304-0.256-0.632L93.692,4.92z"/>
	<path fill="#008CD6" d="M97.972,4.136c0.024,0.536,0.104,0.832,0.32,1.12C98.548,5.608,98.94,5.8,99.42,5.8
		c0.648,0,1.096-0.32,1.32-0.936l0.56,0.224c-0.152,0.336-0.256,0.48-0.44,0.664c-0.376,0.368-0.864,0.56-1.448,0.56
		c-1.256,0-2.048-0.88-2.048-2.264c0-1.368,0.784-2.264,1.984-2.264c1.032,0,1.776,0.664,1.936,1.736
		c0.008,0.088,0.04,0.4,0.056,0.616H97.972z M100.7,3.632c-0.048-0.448-0.168-0.736-0.424-0.984c-0.248-0.24-0.56-0.36-0.944-0.36
		c-0.488,0-0.896,0.248-1.136,0.696c-0.112,0.2-0.152,0.344-0.2,0.648H100.7z"/>
	<path fill="#008CD6" d="M69.596,12.208c-0.232-0.624-0.616-0.92-1.208-0.92c-0.88,0-1.44,0.688-1.44,1.76
		c0,1.056,0.576,1.728,1.472,1.728c0.456,0,0.832-0.184,1.04-0.512c0.08-0.12,0.12-0.216,0.176-0.408l0.6,0.16
		c-0.112,0.288-0.192,0.44-0.328,0.616c-0.352,0.44-0.864,0.672-1.512,0.672c-1.256,0-2.064-0.872-2.064-2.24
		c0-1.384,0.8-2.288,2.024-2.288c0.664,0,1.2,0.256,1.544,0.736c0.112,0.152,0.184,0.28,0.28,0.512L69.596,12.208z"/>
	<path fill="#008CD6" d="M71.156,15.2c0.04-0.288,0.056-0.504,0.056-0.904v-4.272c0-0.4-0.016-0.608-0.056-0.904h0.712
		c-0.048,0.296-0.064,0.504-0.064,0.912v1.352c0,0.128,0,0.192-0.024,0.4c0.16-0.264,0.248-0.384,0.44-0.544
		c0.344-0.296,0.712-0.432,1.2-0.432c0.936,0,1.496,0.552,1.496,1.488v2.008c0,0.368,0.016,0.6,0.056,0.896h-0.72
		c0.04-0.264,0.056-0.504,0.056-0.904v-1.888c0-0.696-0.344-1.072-0.968-1.072c-0.448,0-0.816,0.192-1.128,0.584
		c-0.224,0.288-0.328,0.504-0.4,0.84v1.536c0,0.352,0.016,0.592,0.056,0.904H71.156z"/>
	<path fill="#008CD6" d="M78.94,14.632c-0.312,0.28-0.464,0.384-0.736,0.488s-0.56,0.16-0.832,0.16c-0.88,0-1.416-0.456-1.416-1.216
		c0-0.64,0.4-1.104,1.144-1.312c0.472-0.136,0.856-0.184,1.84-0.208V12.08c0-0.544-0.344-0.824-1.008-0.824
		c-0.44,0-0.768,0.112-0.992,0.344c-0.104,0.112-0.168,0.224-0.248,0.464l-0.624-0.136c0.144-0.368,0.248-0.536,0.448-0.712
		c0.328-0.304,0.808-0.456,1.408-0.456c1.056,0,1.6,0.448,1.6,1.312v2.248c0,0.36,0.016,0.56,0.064,0.88H78.94V14.632z
		 M78.94,13.016c-0.952,0.024-1.408,0.08-1.768,0.232c-0.408,0.168-0.608,0.44-0.608,0.824c0,0.44,0.328,0.72,0.848,0.72
		c0.464,0,0.968-0.224,1.28-0.568c0.184-0.2,0.248-0.368,0.248-0.688V13.016z"/>
	<path fill="#008CD6" d="M83.285,11.504c-0.304-0.096-0.448-0.12-0.648-0.12c-0.408,0-0.744,0.168-0.984,0.488
		c-0.192,0.248-0.264,0.44-0.296,0.8v1.632c0,0.36,0.016,0.584,0.056,0.896h-0.72c0.04-0.368,0.056-0.576,0.056-0.904v-2.504
		c0-0.4-0.016-0.616-0.056-0.904h0.664v0.456c0,0.064,0,0.184-0.008,0.24c0.152-0.248,0.272-0.376,0.44-0.488
		c0.304-0.2,0.576-0.28,0.96-0.28c0.24,0,0.376,0.016,0.712,0.072L83.285,11.504z"/>
	<path fill="#008CD6" d="M86.98,14.632c-0.312,0.28-0.464,0.384-0.736,0.488s-0.56,0.16-0.832,0.16c-0.88,0-1.416-0.456-1.416-1.216
		c0-0.64,0.4-1.104,1.144-1.312c0.472-0.136,0.856-0.184,1.84-0.208V12.08c0-0.544-0.344-0.824-1.008-0.824
		c-0.44,0-0.768,0.112-0.992,0.344c-0.104,0.112-0.168,0.224-0.248,0.464l-0.624-0.136c0.144-0.368,0.248-0.536,0.448-0.712
		c0.328-0.304,0.808-0.456,1.408-0.456c1.056,0,1.6,0.448,1.6,1.312v2.248c0,0.36,0.016,0.56,0.064,0.88H86.98V14.632z
		 M86.98,13.016c-0.952,0.024-1.408,0.08-1.768,0.232c-0.408,0.168-0.608,0.44-0.608,0.824c0,0.44,0.328,0.72,0.848,0.72
		c0.464,0,0.968-0.224,1.28-0.568c0.184-0.2,0.248-0.368,0.248-0.688V13.016z"/>
	<path fill="#008CD6" d="M91.796,12.208c-0.232-0.624-0.616-0.92-1.208-0.92c-0.88,0-1.44,0.688-1.44,1.76
		c0,1.056,0.576,1.728,1.472,1.728c0.456,0,0.832-0.184,1.04-0.512c0.08-0.12,0.12-0.216,0.176-0.408l0.6,0.16
		c-0.112,0.288-0.192,0.44-0.328,0.616c-0.352,0.44-0.864,0.672-1.512,0.672c-1.256,0-2.064-0.872-2.064-2.24
		c0-1.384,0.8-2.288,2.024-2.288c0.664,0,1.2,0.256,1.544,0.736c0.112,0.152,0.184,0.28,0.28,0.512L91.796,12.208z"/>
	<path fill="#008CD6" d="M94.581,9.696c-0.04,0.256-0.056,0.544-0.056,0.888v0.304h0.384c0.368,0,0.536-0.008,0.816-0.048v0.608
		c-0.256-0.04-0.456-0.048-0.816-0.048h-0.384v2.784c0,0.232,0.032,0.352,0.104,0.424c0.088,0.088,0.224,0.136,0.392,0.136
		c0.208,0,0.368-0.048,0.632-0.208l0.176,0.56c-0.328,0.136-0.576,0.184-0.904,0.184c-0.352,0-0.624-0.088-0.784-0.248
		c-0.16-0.16-0.224-0.392-0.224-0.768V11.4h-0.32c-0.272,0-0.456,0.016-0.72,0.048V10.84c0.224,0.04,0.384,0.048,0.72,0.048h0.32
		v-0.304c0-0.32-0.016-0.624-0.056-0.888H94.581z"/>
	<path fill="#008CD6" d="M96.901,13.136c0.024,0.536,0.104,0.832,0.32,1.12c0.256,0.352,0.648,0.544,1.128,0.544
		c0.648,0,1.096-0.32,1.32-0.936l0.56,0.224c-0.152,0.336-0.256,0.48-0.44,0.664c-0.376,0.368-0.864,0.56-1.448,0.56
		c-1.256,0-2.048-0.88-2.048-2.264c0-1.368,0.784-2.264,1.984-2.264c1.032,0,1.776,0.664,1.936,1.736
		c0.008,0.088,0.04,0.4,0.056,0.616H96.901z M99.629,12.632c-0.048-0.448-0.168-0.736-0.424-0.984c-0.248-0.24-0.56-0.36-0.944-0.36
		c-0.488,0-0.896,0.248-1.136,0.696c-0.112,0.2-0.152,0.344-0.2,0.648H99.629z"/>
	<path fill="#008CD6" d="M103.789,11.504c-0.304-0.096-0.448-0.12-0.648-0.12c-0.408,0-0.744,0.168-0.984,0.488
		c-0.192,0.248-0.264,0.44-0.296,0.8v1.632c0,0.36,0.016,0.584,0.056,0.896h-0.72c0.04-0.368,0.056-0.576,0.056-0.904v-2.504
		c0-0.4-0.016-0.616-0.056-0.904h0.664v0.456c0,0.064,0,0.184-0.008,0.24c0.152-0.248,0.272-0.376,0.44-0.488
		c0.304-0.2,0.576-0.28,0.96-0.28c0.24,0,0.376,0.016,0.712,0.072L103.789,11.504z"/>
	<path fill="#008CD6" d="M107.725,13.92c0.056,0.296,0.12,0.44,0.28,0.584c0.2,0.184,0.52,0.28,0.928,0.28
		c0.696,0,1.136-0.296,1.136-0.768c0-0.224-0.08-0.392-0.248-0.496c-0.192-0.12-0.352-0.168-0.944-0.288
		c-0.64-0.136-0.912-0.232-1.184-0.416c-0.28-0.192-0.432-0.488-0.432-0.84c0-0.288,0.12-0.56,0.344-0.776
		c0.28-0.272,0.712-0.416,1.248-0.416c0.544,0,0.968,0.128,1.256,0.384c0.208,0.176,0.32,0.36,0.424,0.728L109.901,12
		c-0.048-0.216-0.088-0.312-0.2-0.424c-0.184-0.2-0.472-0.304-0.832-0.304c-0.584,0-1,0.296-1,0.72c0,0.184,0.096,0.344,0.272,0.44
		c0.184,0.104,0.392,0.168,0.888,0.272c0.776,0.176,1.032,0.272,1.272,0.456c0.248,0.2,0.384,0.504,0.384,0.832
		c0,0.8-0.68,1.296-1.776,1.296c-0.728,0-1.288-0.216-1.584-0.624c-0.12-0.168-0.176-0.304-0.256-0.632L107.725,13.92z"/>
	<path fill="#008CD6" d="M111.597,16.88c0.04-0.312,0.056-0.568,0.056-0.896v-4.176c0-0.384-0.016-0.616-0.056-0.92h0.64v0.456
		c0,0.104-0.008,0.192-0.024,0.328c0.36-0.568,0.92-0.864,1.632-0.864c1.232,0,1.984,0.84,1.984,2.232
		c0,1.36-0.768,2.232-1.968,2.232c-0.704,0-1.272-0.296-1.648-0.848c0.024,0.224,0.032,0.344,0.032,0.56v0.992
		c0,0.376,0.016,0.608,0.056,0.904H111.597z M115.205,13.04c0-1.088-0.512-1.712-1.408-1.712c-0.92,0-1.544,0.688-1.544,1.72
		c0,0.52,0.168,1,0.456,1.28c0.28,0.272,0.68,0.424,1.096,0.424C114.677,14.752,115.205,14.104,115.205,13.04z"/>
	<path fill="#008CD6" d="M119.621,14.632c-0.312,0.28-0.464,0.384-0.736,0.488c-0.272,0.104-0.56,0.16-0.832,0.16
		c-0.88,0-1.416-0.456-1.416-1.216c0-0.64,0.4-1.104,1.144-1.312c0.472-0.136,0.856-0.184,1.84-0.208V12.08
		c0-0.544-0.344-0.824-1.008-0.824c-0.44,0-0.768,0.112-0.992,0.344c-0.104,0.112-0.168,0.224-0.248,0.464l-0.624-0.136
		c0.144-0.368,0.248-0.536,0.448-0.712c0.328-0.304,0.808-0.456,1.408-0.456c1.056,0,1.6,0.448,1.6,1.312v2.248
		c0,0.36,0.016,0.56,0.064,0.88h-0.648V14.632z M119.621,13.016c-0.952,0.024-1.408,0.08-1.768,0.232
		c-0.408,0.168-0.608,0.44-0.608,0.824c0,0.44,0.328,0.72,0.848,0.72c0.464,0,0.968-0.224,1.28-0.568
		c0.184-0.2,0.248-0.368,0.248-0.688V13.016z"/>
	<path fill="#008CD6" d="M124.437,12.208c-0.232-0.624-0.616-0.92-1.208-0.92c-0.88,0-1.44,0.688-1.44,1.76
		c0,1.056,0.576,1.728,1.472,1.728c0.456,0,0.832-0.184,1.04-0.512c0.08-0.12,0.12-0.216,0.176-0.408l0.6,0.16
		c-0.112,0.288-0.192,0.44-0.328,0.616c-0.352,0.44-0.864,0.672-1.512,0.672c-1.256,0-2.064-0.872-2.064-2.24
		c0-1.384,0.8-2.288,2.024-2.288c0.664,0,1.2,0.256,1.544,0.736c0.112,0.152,0.184,0.28,0.28,0.512L124.437,12.208z"/>
	<path fill="#008CD6" d="M126.405,13.136c0.024,0.536,0.104,0.832,0.32,1.12c0.256,0.352,0.648,0.544,1.128,0.544
		c0.648,0,1.096-0.32,1.32-0.936l0.56,0.224c-0.152,0.336-0.256,0.48-0.44,0.664c-0.376,0.368-0.864,0.56-1.448,0.56
		c-1.256,0-2.048-0.88-2.048-2.264c0-1.368,0.784-2.264,1.984-2.264c1.032,0,1.776,0.664,1.936,1.736
		c0.008,0.088,0.04,0.4,0.056,0.616H126.405z M129.133,12.632c-0.048-0.448-0.168-0.736-0.424-0.984
		c-0.248-0.24-0.56-0.36-0.944-0.36c-0.488,0-0.896,0.248-1.136,0.696c-0.112,0.2-0.152,0.344-0.2,0.648H129.133z"/>
</g>
<line fill="none" stroke="#008CD6" stroke-width="0.5" x1="81.127" y1="17.721" x2="81.127" y2="37.054"/>
<polyline fill="none" stroke="#008CD6" stroke-width="0.5" points="83.116,33.61 81.127,37.054 79.139,33.61 "/>
<line fill="none" stroke="#008CD6" stroke-width="0.5" x1="95.294" y1="17.721" x2="95.294" y2="37.054"/>
<polyline fill="none" stroke="#008CD6" stroke-width="0.5" points="97.283,33.61 95.294,37.054 93.306,33.61 "/>
<polyline fill="none" stroke="#008CD6" stroke-width="0.5" points="108.96,37.054 108.96,26.721 111.961,26.721 "/>
<polyline fill="none" stroke="#008CD6" stroke-width="0.5" points="110.949,33.61 108.96,37.054 106.972,33.61 "/>
<polyline fill="none" stroke="#008CD6" stroke-width="0.5" points="68.627,37.054 68.627,26.721 65.127,26.721 "/>
<polyline fill="none" stroke="#008CD6" stroke-width="0.5" points="70.616,33.61 68.627,37.054 66.639,33.61 "/>
</svg>
