<?xml version="1.0" encoding="utf-8"?>
<!-- Generator: Adobe Illustrator 12.0.0, SVG Export Plug-In . SVG Version: 6.00 Build 51448)  -->
<!DOCTYPE svg PUBLIC "-//W3C//DTD SVG 1.1//EN" "http://www.w3.org/Graphics/SVG/1.1/DTD/svg11.dtd" [
	<!ENTITY ns_svg "http://www.w3.org/2000/svg">
	<!ENTITY ns_xlink "http://www.w3.org/1999/xlink">
]>
<svg  version="1.1" id="レイヤー_1" xmlns="&ns_svg;" xmlns:xlink="&ns_xlink;" width="77.404" height="143.717"
	 viewBox="0 0 77.404 143.717" overflow="visible" enable-background="new 0 0 77.404 143.717" xml:space="preserve">
<g>
	<path d="M14.896,102.2c0.686-0.539,1.295-1.225,1.722-1.939c0.217-0.371,0.287-0.539,0.287-0.693c0-0.112-0.091-0.224-0.351-0.399
		c0.077-0.021,0.112-0.028,0.154-0.028c0.119,0,0.364,0.098,0.574,0.238c0.238,0.154,0.336,0.266,0.336,0.378
		c0,0.056-0.021,0.098-0.084,0.154c-0.133,0.112-0.133,0.112-0.294,0.322c-0.603,0.791-0.882,1.078-1.47,1.533
		c-0.309,0.238-0.505,0.357-0.819,0.511L14.896,102.2z M18.647,99.126c0.734,0.434,1.399,1.029,1.841,1.631
		c0.217,0.294,0.294,0.49,0.294,0.742c0,0.294-0.112,0.518-0.267,0.518c-0.098,0-0.133-0.042-0.23-0.322
		c-0.343-0.938-0.896-1.736-1.715-2.485L18.647,99.126z M19.361,98.217c0.405,0.175,0.7,0.329,0.896,0.483
		c0.183,0.147,0.245,0.259,0.245,0.441c0,0.196-0.063,0.322-0.161,0.322c-0.077,0-0.111-0.042-0.237-0.245
		c-0.245-0.399-0.399-0.567-0.799-0.91L19.361,98.217z M20.047,97.825c0.406,0.133,0.687,0.259,0.89,0.399
		c0.188,0.126,0.259,0.224,0.259,0.378c0,0.224-0.063,0.357-0.168,0.357c-0.049,0-0.091-0.035-0.154-0.126
		c-0.238-0.385-0.441-0.595-0.882-0.924L20.047,97.825z"/>
	<path d="M50.273,102.914c0.672-0.42,1.364-0.987,1.883-1.533c0.42-0.441,0.924-1.099,1.337-1.743
		c0.224-0.343,0.343-0.574,0.476-0.903c-0.336,0.021-0.707,0.098-1.477,0.308c-0.336,0.091-0.364,0.098-0.588,0.189
		c-0.035,0.014-0.077,0.021-0.119,0.021c-0.154,0-0.301-0.126-0.455-0.399c-0.098-0.161-0.147-0.308-0.147-0.42
		c0-0.042,0.015-0.077,0.05-0.14c0.203,0.364,0.35,0.469,0.657,0.469c0.231,0,0.938-0.091,1.471-0.196
		c0.405-0.077,0.531-0.119,0.657-0.196c0.077-0.049,0.112-0.063,0.161-0.063c0.147,0,0.546,0.357,0.546,0.49
		c0,0.049-0.027,0.091-0.091,0.133c-0.146,0.098-0.146,0.098-0.398,0.476c-0.336,0.504-0.336,0.504-0.882,1.218
		c0.986,0.518,1.539,0.875,1.813,1.183c0.189,0.203,0.266,0.406,0.266,0.693c0,0.224-0.069,0.364-0.188,0.364
		c-0.049,0-0.105-0.035-0.161-0.112c-0.028-0.035-0.028-0.035-0.168-0.28c-0.35-0.588-0.952-1.211-1.666-1.715
		c-0.567,0.686-1.022,1.113-1.694,1.575c-0.44,0.308-0.741,0.476-1.225,0.686L50.273,102.914z"/>
	<path d="M7.888,114.653c0,0.672,0.015,1.638,0.057,2.492c-0.042,0.21-0.154,0.252-0.616,0.252c-0.336,0-0.406-0.042-0.434-0.196
		c0.042-0.756,0.084-1.792,0.084-2.45v-1.288c-0.826,0.854-1.513,1.4-2.618,2.072c-1.036,0.616-1.82,0.966-3.038,1.358l-0.099-0.182
		c1.498-0.686,2.786-1.54,3.977-2.646c0.49-0.462,0.756-0.756,1.204-1.33H3.212c-0.308,0-0.784,0.014-1.218,0.056l-0.084-0.476
		c0.518,0.07,0.798,0.098,1.162,0.098h0.854v-2.198H2.554c-0.462,0-0.84,0.014-1.315,0.07l-0.099-0.518
		c0.757,0.112,0.938,0.126,1.414,0.126h1.372v-2.016H3.072c-0.196,0-0.798,0.028-1.106,0.056l-0.098-0.448
		c0.812,0.056,1.036,0.07,1.204,0.07h3.906v-1.526c-1.652,0.126-2.843,0.182-4.089,0.182c-0.168,0-0.336,0-0.615,0l-0.057-0.238
		c2.982-0.252,4.158-0.406,6.021-0.798c1.428-0.294,2.254-0.532,2.786-0.798c0.854,0.574,1.231,0.868,1.231,1.008
		c0,0.07-0.07,0.126-0.154,0.126c-0.069,0-0.168-0.028-0.588-0.168c-1.918,0.378-2.365,0.462-3.626,0.602v1.61h3.584
		c0.309-0.392,0.42-0.504,0.757-0.896c0.504,0.42,0.672,0.56,1.203,1.05c0.028,0.042,0.042,0.07,0.042,0.084
		c0,0.042-0.056,0.084-0.14,0.084h-2.31v2.016h1.063c0.378-0.378,0.504-0.504,0.896-0.868c0.56,0.434,0.728,0.56,1.231,1.008
		c0.028,0.042,0.057,0.07,0.057,0.084c0,0.056-0.057,0.098-0.126,0.098h-3.122v2.198h0.56c0.336-0.392,0.448-0.504,0.813-0.854
		c0.489,0.406,0.63,0.532,1.092,0.994c0.027,0.042,0.056,0.084,0.056,0.098c0,0.042-0.07,0.084-0.14,0.084H8.056
		c1.442,1.666,3.473,2.632,6.188,2.926l-0.014,0.154c-0.574,0.196-0.771,0.42-0.841,0.952c-0.783-0.14-1.386-0.378-2.352-0.924
		c-1.302-0.728-2.128-1.456-3.15-2.786V114.653z M6.979,107.877H4.85v2.016h2.129V107.877z M6.979,110.215H4.85v2.198h2.129V110.215
		z M10.114,109.893v-2.016H7.888v2.016H10.114z M10.114,112.413v-2.198H7.888v2.198H10.114z"/>
	<path d="M15.042,111.405c1.554-1.078,2.688-2.156,3.948-3.738c0.658-0.826,1.26-1.736,1.54-2.31
		c0.098-0.21,0.153-0.364,0.252-0.686c0.322,0.056,0.56,0.112,0.714,0.14c0.77,0.154,0.938,0.21,0.938,0.336
		c0,0.112-0.168,0.196-0.546,0.266c0.687,1.148,1.624,2.128,2.885,3.038c1.189,0.854,2.323,1.386,3.626,1.736l-0.028,0.196
		c-0.588,0.07-0.813,0.266-1.106,0.924c-1.302-0.672-2.058-1.218-3.08-2.282c-1.035-1.05-1.498-1.694-2.506-3.472
		c-0.994,1.582-1.876,2.632-3.164,3.794c-1.119,0.994-2.029,1.624-3.317,2.268L15.042,111.405z M18.5,116.921
		c0,0.126-0.014,0.168-0.084,0.196c-0.126,0.042-0.448,0.084-0.728,0.084c-0.154,0-0.196-0.042-0.196-0.196
		c0.028-2.184,0.042-2.87,0.042-3.444c0-1.106-0.014-1.624-0.042-2.156c0.518,0.294,0.672,0.392,1.12,0.714h5.655
		c0.225-0.308,0.309-0.406,0.574-0.714c0.393,0.294,0.519,0.392,0.896,0.714c0.111,0.098,0.14,0.14,0.14,0.196
		c0,0.084-0.126,0.182-0.462,0.294c0,2.044,0,2.044,0.056,4.214c0,0.028,0,0.042,0,0.056c0,0.112-0.027,0.154-0.126,0.182
		c-0.098,0.042-0.56,0.098-0.714,0.098c-0.14,0-0.21-0.056-0.21-0.168c0-0.014,0-0.042,0-0.07v-0.588H18.5V116.921z M18.486,109.627
		c0.405,0.07,0.742,0.112,1.036,0.112h2.926c0.322-0.35,0.42-0.476,0.742-0.84c0.504,0.392,0.672,0.504,1.176,0.924
		c0.069,0.07,0.112,0.126,0.112,0.168c0,0.056-0.028,0.07-0.183,0.07h-4.773c-0.267,0-0.477,0.014-0.925,0.084L18.486,109.627z
		 M18.5,116.011h5.922v-3.57H18.5V116.011z"/>
	<path d="M38.59,106.645c0.252-0.322,0.322-0.42,0.603-0.7c0.392,0.308,0.504,0.392,0.854,0.686c0.098,0.098,0.14,0.154,0.14,0.224
		c0,0.098-0.111,0.196-0.462,0.364v2.548c0,4.858,0,5.04,0.099,7.266c-0.015,0.126-0.042,0.168-0.141,0.196
		c-0.098,0.042-0.546,0.098-0.77,0.098c-0.112,0-0.154-0.042-0.154-0.168v-1.022h-6.523v0.896c0,0.014,0,0.042,0,0.042
		c0,0.098-0.042,0.154-0.141,0.182c-0.069,0.014-0.476,0.042-0.63,0.042c-0.196,0-0.266-0.042-0.266-0.168v-0.028
		c0.042-1.694,0.069-3.892,0.069-5.404c0-3.416-0.014-5.04-0.056-5.852c0.532,0.322,0.7,0.434,1.218,0.798h1.526
		c0.336-0.756,0.574-1.568,0.686-2.38c1.61,0.42,1.652,0.434,1.652,0.574c0,0.112-0.126,0.168-0.644,0.28
		c-0.154,0.182-0.267,0.336-0.336,0.42c-0.519,0.672-0.645,0.826-0.938,1.106H38.59z M38.758,109.543v-2.576h-6.523v2.576H38.758z
		 M32.234,109.865v2.73h6.523v-2.73H32.234z M32.234,112.917v2.898h6.523v-2.898H32.234z"/>
	<path d="M43.924,112.959c0.028-0.826,0.057-2.044,0.057-3.08c0-0.392,0-0.392-0.057-1.638c0.448,0.238,0.588,0.308,1.022,0.546
		h1.582v-1.12h-2.254c-0.28,0-0.504,0.014-0.967,0.07l-0.098-0.49c0.322,0.056,0.813,0.098,1.064,0.098h2.254v-1.148
		c-1.036,0.154-1.891,0.238-3.024,0.308l-0.027-0.196c1.008-0.154,2.197-0.42,3.43-0.77c1.162-0.322,1.764-0.56,2.31-0.868
		c0.351,0.182,0.714,0.392,0.938,0.518c0.279,0.168,0.294,0.182,0.294,0.252s-0.099,0.126-0.252,0.126
		c-0.07,0-0.21-0.014-0.588-0.042c-0.826,0.224-1.372,0.35-2.254,0.518v1.302h1.651c0.267-0.322,0.351-0.406,0.645-0.714
		c0.476,0.364,0.63,0.476,1.078,0.84c0.042,0.042,0.069,0.084,0.069,0.112c0,0.056-0.069,0.084-0.182,0.084h-3.262v1.12h1.638
		c0.21-0.238,0.28-0.308,0.49-0.546c0.294,0.224,0.392,0.308,0.686,0.546c0.112,0.098,0.154,0.14,0.154,0.182
		c0,0.07-0.015,0.084-0.364,0.336c-0.014,1.54-0.014,1.54-0.014,1.96c0,0.364,0.014,0.756,0.027,1.484
		c0,0.196-0.153,0.266-0.602,0.266c-0.168,0-0.266-0.056-0.266-0.168c0-0.014,0-0.028,0-0.042v-0.168h-1.75v1.386h1.344
		c0.294-0.308,0.392-0.406,0.658-0.7c0.447,0.35,0.588,0.462,1.021,0.812c0.042,0.056,0.056,0.084,0.056,0.112
		c0,0.056-0.056,0.098-0.126,0.098h-2.953v1.12c1.035-0.112,1.596-0.182,2.701-0.336l0.028,0.168
		c-1.694,0.448-2.38,0.602-3.164,0.77c-2.45,0.49-2.45,0.49-2.954,0.602c-0.098,0.378-0.153,0.504-0.252,0.504
		c-0.14,0-0.252-0.308-0.518-1.386c0.896-0.028,1.903-0.098,3.332-0.238v-1.204H44.26c-0.294,0-0.462,0.014-0.798,0.07l-0.098-0.476
		c0.336,0.056,0.574,0.084,0.966,0.084h2.198v-1.386h-1.681v0.266c0,0.126-0.027,0.168-0.14,0.196
		c-0.07,0.028-0.364,0.056-0.532,0.056c-0.195,0-0.252-0.042-0.252-0.168V112.959z M46.528,109.109h-1.681v1.414h1.681V109.109z
		 M46.528,110.845h-1.681v1.47h1.681V110.845z M49.104,109.109h-1.75v1.414h1.75V109.109z M49.104,110.845h-1.75v1.47h1.75V110.845z
		 M54.564,108.367c0.224-0.252,0.294-0.322,0.518-0.574c0.364,0.238,0.462,0.322,0.784,0.574c0.111,0.098,0.14,0.14,0.14,0.21
		c0,0.07-0.098,0.154-0.42,0.434c-0.126,3.416-0.322,5.544-0.616,6.65c-0.182,0.686-0.336,0.952-0.714,1.176
		c-0.308,0.196-0.588,0.294-1.204,0.392c-0.195-0.504-0.21-0.546-0.405-0.644c-0.253-0.14-0.589-0.238-1.33-0.378v-0.196
		c0.756,0.056,1.75,0.112,2.016,0.112c0.406,0,0.588-0.098,0.672-0.364c0.364-1.078,0.588-3.542,0.658-7.07h-1.596
		c-0.141,2.268-0.448,3.906-0.98,5.096c-0.49,1.12-1.288,2.072-2.338,2.8c-0.518,0.378-0.882,0.56-1.694,0.868l-0.111-0.168
		c1.189-0.658,1.876-1.232,2.548-2.128c1.063-1.456,1.512-3.164,1.693-6.468h-0.741c-0.252,0-0.462,0.014-0.896,0.084l-0.14-0.504
		c0.476,0.07,0.798,0.098,1.134,0.098h0.658c0.042-0.756,0.056-1.358,0.056-1.918c0-0.686-0.014-0.938-0.056-1.54
		c1.063,0.07,1.54,0.154,1.54,0.294c0,0.014,0,0.014,0,0.014c-0.015,0.126-0.084,0.168-0.574,0.392
		c-0.028,1.344-0.028,1.666-0.084,2.758H54.564z"/>
	<path d="M63.944,112.749c0,0.294,0,0.294,0,1.12c0,0.056,0,0.056,0,0.462h3.989c0.393-0.476,0.519-0.616,0.925-1.078
		c0.588,0.49,0.756,0.658,1.302,1.204c0.042,0.042,0.056,0.084,0.056,0.126c0,0.028-0.056,0.07-0.111,0.07h-6.146
		c0.028,1.918,0.028,1.918,0.042,2.576c0,0.112-0.028,0.154-0.098,0.182c-0.084,0.014-0.519,0.056-0.784,0.056
		c-0.14,0-0.182-0.028-0.182-0.14c0.014-0.476,0.042-1.372,0.056-2.674h-4.2c-0.602,0-1.05,0.042-1.372,0.112l-0.07-0.56
		c0.448,0.098,0.826,0.126,1.442,0.126h4.2c0-0.602,0-0.602,0.014-1.582h-2.828v0.518c0,0.196-0.126,0.224-0.783,0.224
		c-0.169,0-0.238-0.042-0.238-0.168c0.056-1.092,0.069-1.638,0.069-2.884c0-1.358-0.014-1.974-0.069-2.828
		c0.462,0.266,0.616,0.336,1.05,0.616h2.8v-1.484h-4.214c-0.448,0-0.77,0.028-1.036,0.112l-0.056-0.546
		c0.336,0.084,0.616,0.112,1.092,0.112h4.214c-0.014-1.148-0.014-1.148-0.084-1.82c0.322,0.028,0.574,0.042,0.729,0.056
		c0.699,0.042,0.882,0.098,0.882,0.238c0,0.126-0.126,0.196-0.574,0.322c-0.014,0.616-0.014,0.714-0.014,1.204h3.779
		c0.336-0.434,0.435-0.56,0.813-0.98c0.588,0.476,0.77,0.616,1.315,1.12c0.057,0.056,0.07,0.084,0.07,0.112
		c0,0.042-0.042,0.07-0.126,0.07h-5.852v1.484h2.912c0.237-0.266,0.308-0.35,0.573-0.616c0.364,0.252,0.477,0.336,0.868,0.616
		c0.099,0.084,0.141,0.126,0.141,0.182c0,0.112-0.112,0.196-0.561,0.406c0,0.392,0,0.672,0,0.84c0,1.372,0.014,2.394,0.07,3.402
		c0,0.098-0.015,0.14-0.057,0.168c-0.084,0.056-0.363,0.098-0.756,0.098c-0.14,0-0.182-0.028-0.195-0.126v-0.448H63.944z
		 M63.006,109.655c0-0.14,0-0.448,0-1.106h-2.828v1.708h2.828V109.655z M63.006,110.579h-2.828v1.848h2.828V110.579z M66.94,108.549
		h-2.996v1.708h2.996V108.549z M66.94,110.579h-2.996v1.848h2.996V110.579z"/>
</g>
<g>
	<path d="M14.896,128.45c0.686-0.539,1.295-1.225,1.722-1.939c0.217-0.371,0.287-0.539,0.287-0.693c0-0.112-0.091-0.224-0.351-0.399
		c0.077-0.021,0.112-0.028,0.154-0.028c0.119,0,0.364,0.098,0.574,0.238c0.238,0.154,0.336,0.266,0.336,0.378
		c0,0.056-0.021,0.098-0.084,0.154c-0.133,0.112-0.133,0.112-0.294,0.322c-0.603,0.791-0.882,1.078-1.47,1.533
		c-0.309,0.238-0.505,0.357-0.819,0.511L14.896,128.45z M18.647,125.376c0.734,0.434,1.399,1.029,1.841,1.631
		c0.217,0.294,0.294,0.49,0.294,0.742c0,0.294-0.112,0.518-0.267,0.518c-0.098,0-0.133-0.042-0.23-0.322
		c-0.343-0.938-0.896-1.736-1.715-2.485L18.647,125.376z M19.361,124.467c0.405,0.175,0.7,0.329,0.896,0.483
		c0.183,0.147,0.245,0.259,0.245,0.441c0,0.196-0.063,0.322-0.161,0.322c-0.077,0-0.111-0.042-0.237-0.245
		c-0.245-0.399-0.399-0.567-0.799-0.91L19.361,124.467z M20.047,124.075c0.406,0.133,0.687,0.259,0.89,0.399
		c0.188,0.126,0.259,0.224,0.259,0.378c0,0.224-0.063,0.357-0.168,0.357c-0.049,0-0.091-0.035-0.154-0.126
		c-0.238-0.385-0.441-0.595-0.882-0.924L20.047,124.075z"/>
	<path d="M50.273,129.164c0.672-0.42,1.364-0.987,1.883-1.533c0.42-0.441,0.924-1.099,1.337-1.743
		c0.224-0.343,0.343-0.574,0.476-0.903c-0.336,0.021-0.707,0.098-1.477,0.308c-0.336,0.091-0.364,0.098-0.588,0.189
		c-0.035,0.014-0.077,0.021-0.119,0.021c-0.154,0-0.301-0.126-0.455-0.399c-0.098-0.161-0.147-0.308-0.147-0.42
		c0-0.042,0.015-0.077,0.05-0.14c0.203,0.364,0.35,0.469,0.657,0.469c0.231,0,0.938-0.091,1.471-0.196
		c0.405-0.077,0.531-0.119,0.657-0.196c0.077-0.049,0.112-0.063,0.161-0.063c0.147,0,0.546,0.357,0.546,0.49
		c0,0.049-0.027,0.091-0.091,0.133c-0.146,0.098-0.146,0.098-0.398,0.476c-0.336,0.504-0.336,0.504-0.882,1.218
		c0.986,0.518,1.539,0.875,1.813,1.183c0.189,0.203,0.266,0.406,0.266,0.693c0,0.224-0.069,0.364-0.188,0.364
		c-0.049,0-0.105-0.035-0.161-0.112c-0.028-0.035-0.028-0.035-0.168-0.28c-0.35-0.588-0.952-1.211-1.666-1.715
		c-0.567,0.686-1.022,1.113-1.694,1.575c-0.44,0.308-0.741,0.476-1.225,0.686L50.273,129.164z"/>
	<path d="M7.888,140.903c0,0.672,0.015,1.638,0.057,2.492c-0.042,0.21-0.154,0.252-0.616,0.252c-0.336,0-0.406-0.042-0.434-0.196
		c0.042-0.756,0.084-1.792,0.084-2.45v-1.288c-0.826,0.854-1.513,1.4-2.618,2.072c-1.036,0.616-1.82,0.966-3.038,1.358l-0.099-0.182
		c1.498-0.686,2.786-1.54,3.977-2.646c0.49-0.462,0.756-0.756,1.204-1.33H3.212c-0.308,0-0.784,0.014-1.218,0.056l-0.084-0.476
		c0.518,0.07,0.798,0.098,1.162,0.098h0.854v-2.198H2.554c-0.462,0-0.84,0.014-1.315,0.07l-0.099-0.518
		c0.757,0.112,0.938,0.126,1.414,0.126h1.372v-2.016H3.072c-0.196,0-0.798,0.028-1.106,0.056l-0.098-0.448
		c0.812,0.056,1.036,0.07,1.204,0.07h3.906v-1.526c-1.652,0.126-2.843,0.182-4.089,0.182c-0.168,0-0.336,0-0.615,0l-0.057-0.238
		c2.982-0.252,4.158-0.406,6.021-0.798c1.428-0.294,2.254-0.532,2.786-0.798c0.854,0.574,1.231,0.868,1.231,1.008
		c0,0.07-0.07,0.126-0.154,0.126c-0.069,0-0.168-0.028-0.588-0.168c-1.918,0.378-2.365,0.462-3.626,0.602v1.61h3.584
		c0.309-0.392,0.42-0.504,0.757-0.896c0.504,0.42,0.672,0.56,1.203,1.05c0.028,0.042,0.042,0.07,0.042,0.084
		c0,0.042-0.056,0.084-0.14,0.084h-2.31v2.016h1.063c0.378-0.378,0.504-0.504,0.896-0.868c0.56,0.434,0.728,0.56,1.231,1.008
		c0.028,0.042,0.057,0.07,0.057,0.084c0,0.056-0.057,0.098-0.126,0.098h-3.122v2.198h0.56c0.336-0.392,0.448-0.504,0.813-0.854
		c0.489,0.406,0.63,0.532,1.092,0.994c0.027,0.042,0.056,0.084,0.056,0.098c0,0.042-0.07,0.084-0.14,0.084H8.056
		c1.442,1.666,3.473,2.632,6.188,2.926l-0.014,0.154c-0.574,0.196-0.771,0.42-0.841,0.952c-0.783-0.14-1.386-0.378-2.352-0.924
		c-1.302-0.728-2.128-1.456-3.15-2.786V140.903z M6.979,134.127H4.85v2.016h2.129V134.127z M6.979,136.465H4.85v2.198h2.129V136.465
		z M10.114,136.143v-2.016H7.888v2.016H10.114z M10.114,138.663v-2.198H7.888v2.198H10.114z"/>
	<path d="M15.042,137.655c1.554-1.078,2.688-2.156,3.948-3.738c0.658-0.826,1.26-1.736,1.54-2.31
		c0.098-0.21,0.153-0.364,0.252-0.686c0.322,0.056,0.56,0.112,0.714,0.14c0.77,0.154,0.938,0.21,0.938,0.336
		c0,0.112-0.168,0.196-0.546,0.266c0.687,1.148,1.624,2.128,2.885,3.038c1.189,0.854,2.323,1.386,3.626,1.736l-0.028,0.196
		c-0.588,0.07-0.813,0.266-1.106,0.924c-1.302-0.672-2.058-1.218-3.08-2.282c-1.035-1.05-1.498-1.694-2.506-3.472
		c-0.994,1.582-1.876,2.632-3.164,3.794c-1.119,0.994-2.029,1.624-3.317,2.268L15.042,137.655z M18.5,143.171
		c0,0.126-0.014,0.168-0.084,0.196c-0.126,0.042-0.448,0.084-0.728,0.084c-0.154,0-0.196-0.042-0.196-0.196
		c0.028-2.184,0.042-2.87,0.042-3.444c0-1.106-0.014-1.624-0.042-2.156c0.518,0.294,0.672,0.392,1.12,0.714h5.655
		c0.225-0.308,0.309-0.406,0.574-0.714c0.393,0.294,0.519,0.392,0.896,0.714c0.111,0.098,0.14,0.14,0.14,0.196
		c0,0.084-0.126,0.182-0.462,0.294c0,2.044,0,2.044,0.056,4.214c0,0.028,0,0.042,0,0.056c0,0.112-0.027,0.154-0.126,0.182
		c-0.098,0.042-0.56,0.098-0.714,0.098c-0.14,0-0.21-0.056-0.21-0.168c0-0.014,0-0.042,0-0.07v-0.588H18.5V143.171z M18.486,135.877
		c0.405,0.07,0.742,0.112,1.036,0.112h2.926c0.322-0.35,0.42-0.476,0.742-0.84c0.504,0.392,0.672,0.504,1.176,0.924
		c0.069,0.07,0.112,0.126,0.112,0.168c0,0.056-0.028,0.07-0.183,0.07h-4.773c-0.267,0-0.477,0.014-0.925,0.084L18.486,135.877z
		 M18.5,142.261h5.922v-3.57H18.5V142.261z"/>
	<path d="M38.59,132.895c0.252-0.322,0.322-0.42,0.603-0.7c0.392,0.308,0.504,0.392,0.854,0.686c0.098,0.098,0.14,0.154,0.14,0.224
		c0,0.098-0.111,0.196-0.462,0.364v2.548c0,4.858,0,5.04,0.099,7.266c-0.015,0.126-0.042,0.168-0.141,0.196
		c-0.098,0.042-0.546,0.098-0.77,0.098c-0.112,0-0.154-0.042-0.154-0.168v-1.022h-6.523v0.896c0,0.014,0,0.042,0,0.042
		c0,0.098-0.042,0.154-0.141,0.182c-0.069,0.014-0.476,0.042-0.63,0.042c-0.196,0-0.266-0.042-0.266-0.168v-0.028
		c0.042-1.694,0.069-3.892,0.069-5.404c0-3.416-0.014-5.04-0.056-5.852c0.532,0.322,0.7,0.434,1.218,0.798h1.526
		c0.336-0.756,0.574-1.568,0.686-2.38c1.61,0.42,1.652,0.434,1.652,0.574c0,0.112-0.126,0.168-0.644,0.28
		c-0.154,0.182-0.267,0.336-0.336,0.42c-0.519,0.672-0.645,0.826-0.938,1.106H38.59z M38.758,135.793v-2.576h-6.523v2.576H38.758z
		 M32.234,136.115v2.73h6.523v-2.73H32.234z M32.234,139.167v2.898h6.523v-2.898H32.234z"/>
	<path d="M43.924,139.209c0.028-0.826,0.057-2.044,0.057-3.08c0-0.392,0-0.392-0.057-1.638c0.448,0.238,0.588,0.308,1.022,0.546
		h1.582v-1.12h-2.254c-0.28,0-0.504,0.014-0.967,0.07l-0.098-0.49c0.322,0.056,0.813,0.098,1.064,0.098h2.254v-1.148
		c-1.036,0.154-1.891,0.238-3.024,0.308l-0.027-0.196c1.008-0.154,2.197-0.42,3.43-0.77c1.162-0.322,1.764-0.56,2.31-0.868
		c0.351,0.182,0.714,0.392,0.938,0.518c0.279,0.168,0.294,0.182,0.294,0.252s-0.099,0.126-0.252,0.126
		c-0.07,0-0.21-0.014-0.588-0.042c-0.826,0.224-1.372,0.35-2.254,0.518v1.302h1.651c0.267-0.322,0.351-0.406,0.645-0.714
		c0.476,0.364,0.63,0.476,1.078,0.84c0.042,0.042,0.069,0.084,0.069,0.112c0,0.056-0.069,0.084-0.182,0.084h-3.262v1.12h1.638
		c0.21-0.238,0.28-0.308,0.49-0.546c0.294,0.224,0.392,0.308,0.686,0.546c0.112,0.098,0.154,0.14,0.154,0.182
		c0,0.07-0.015,0.084-0.364,0.336c-0.014,1.54-0.014,1.54-0.014,1.96c0,0.364,0.014,0.756,0.027,1.484
		c0,0.196-0.153,0.266-0.602,0.266c-0.168,0-0.266-0.056-0.266-0.168c0-0.014,0-0.028,0-0.042v-0.168h-1.75v1.386h1.344
		c0.294-0.308,0.392-0.406,0.658-0.7c0.447,0.35,0.588,0.462,1.021,0.812c0.042,0.056,0.056,0.084,0.056,0.112
		c0,0.056-0.056,0.098-0.126,0.098h-2.953v1.12c1.035-0.112,1.596-0.182,2.701-0.336l0.028,0.168
		c-1.694,0.448-2.38,0.602-3.164,0.77c-2.45,0.49-2.45,0.49-2.954,0.602c-0.098,0.378-0.153,0.504-0.252,0.504
		c-0.14,0-0.252-0.308-0.518-1.386c0.896-0.028,1.903-0.098,3.332-0.238v-1.204H44.26c-0.294,0-0.462,0.014-0.798,0.07l-0.098-0.476
		c0.336,0.056,0.574,0.084,0.966,0.084h2.198v-1.386h-1.681v0.266c0,0.126-0.027,0.168-0.14,0.196
		c-0.07,0.028-0.364,0.056-0.532,0.056c-0.195,0-0.252-0.042-0.252-0.168V139.209z M46.528,135.359h-1.681v1.414h1.681V135.359z
		 M46.528,137.095h-1.681v1.47h1.681V137.095z M49.104,135.359h-1.75v1.414h1.75V135.359z M49.104,137.095h-1.75v1.47h1.75V137.095z
		 M54.564,134.617c0.224-0.252,0.294-0.322,0.518-0.574c0.364,0.238,0.462,0.322,0.784,0.574c0.111,0.098,0.14,0.14,0.14,0.21
		c0,0.07-0.098,0.154-0.42,0.434c-0.126,3.416-0.322,5.544-0.616,6.65c-0.182,0.686-0.336,0.952-0.714,1.176
		c-0.308,0.196-0.588,0.294-1.204,0.392c-0.195-0.504-0.21-0.546-0.405-0.644c-0.253-0.14-0.589-0.238-1.33-0.378v-0.196
		c0.756,0.056,1.75,0.112,2.016,0.112c0.406,0,0.588-0.098,0.672-0.364c0.364-1.078,0.588-3.542,0.658-7.07h-1.596
		c-0.141,2.268-0.448,3.906-0.98,5.096c-0.49,1.12-1.288,2.072-2.338,2.8c-0.518,0.378-0.882,0.56-1.694,0.868l-0.111-0.168
		c1.189-0.658,1.876-1.232,2.548-2.128c1.063-1.456,1.512-3.164,1.693-6.468h-0.741c-0.252,0-0.462,0.014-0.896,0.084l-0.14-0.504
		c0.476,0.07,0.798,0.098,1.134,0.098h0.658c0.042-0.756,0.056-1.358,0.056-1.918c0-0.686-0.014-0.938-0.056-1.54
		c1.063,0.07,1.54,0.154,1.54,0.294c0,0.014,0,0.014,0,0.014c-0.015,0.126-0.084,0.168-0.574,0.392
		c-0.028,1.344-0.028,1.666-0.084,2.758H54.564z"/>
	<path d="M63.944,138.999c0,0.294,0,0.294,0,1.12c0,0.056,0,0.056,0,0.462h3.989c0.393-0.476,0.519-0.616,0.925-1.078
		c0.588,0.49,0.756,0.658,1.302,1.204c0.042,0.042,0.056,0.084,0.056,0.126c0,0.028-0.056,0.07-0.111,0.07h-6.146
		c0.028,1.918,0.028,1.918,0.042,2.576c0,0.112-0.028,0.154-0.098,0.182c-0.084,0.014-0.519,0.056-0.784,0.056
		c-0.14,0-0.182-0.028-0.182-0.14c0.014-0.476,0.042-1.372,0.056-2.674h-4.2c-0.602,0-1.05,0.042-1.372,0.112l-0.07-0.56
		c0.448,0.098,0.826,0.126,1.442,0.126h4.2c0-0.602,0-0.602,0.014-1.582h-2.828v0.518c0,0.196-0.126,0.224-0.783,0.224
		c-0.169,0-0.238-0.042-0.238-0.168c0.056-1.092,0.069-1.638,0.069-2.884c0-1.358-0.014-1.974-0.069-2.828
		c0.462,0.266,0.616,0.336,1.05,0.616h2.8v-1.484h-4.214c-0.448,0-0.77,0.028-1.036,0.112l-0.056-0.546
		c0.336,0.084,0.616,0.112,1.092,0.112h4.214c-0.014-1.148-0.014-1.148-0.084-1.82c0.322,0.028,0.574,0.042,0.729,0.056
		c0.699,0.042,0.882,0.098,0.882,0.238c0,0.126-0.126,0.196-0.574,0.322c-0.014,0.616-0.014,0.714-0.014,1.204h3.779
		c0.336-0.434,0.435-0.56,0.813-0.98c0.588,0.476,0.77,0.616,1.315,1.12c0.057,0.056,0.07,0.084,0.07,0.112
		c0,0.042-0.042,0.07-0.126,0.07h-5.852v1.484h2.912c0.237-0.266,0.308-0.35,0.573-0.616c0.364,0.252,0.477,0.336,0.868,0.616
		c0.099,0.084,0.141,0.126,0.141,0.182c0,0.112-0.112,0.196-0.561,0.406c0,0.392,0,0.672,0,0.84c0,1.372,0.014,2.394,0.07,3.402
		c0,0.098-0.015,0.14-0.057,0.168c-0.084,0.056-0.363,0.098-0.756,0.098c-0.14,0-0.182-0.028-0.195-0.126v-0.448H63.944z
		 M63.006,135.905c0-0.14,0-0.448,0-1.106h-2.828v1.708h2.828V135.905z M63.006,136.829h-2.828v1.848h2.828V136.829z M66.94,134.799
		h-2.996v1.708h2.996V134.799z M66.94,136.829h-2.996v1.848h2.996V136.829z"/>
</g>
<rect x="0.25" y="103.971" fill="none" stroke="#008CD6" stroke-width="0.5" width="70" height="14"/>
<line fill="none" stroke="#008CD6" stroke-width="0.5" x1="14.25" y1="117.971" x2="14.25" y2="103.971"/>
<line fill="none" stroke="#008CD6" stroke-width="0.5" x1="28.25" y1="117.971" x2="28.25" y2="103.971"/>
<line fill="none" stroke="#008CD6" stroke-width="0.5" x1="42.25" y1="117.971" x2="42.25" y2="103.971"/>
<line fill="none" stroke="#008CD6" stroke-width="0.5" x1="56.25" y1="117.971" x2="56.25" y2="103.971"/>
<polyline fill="none" stroke="#008CD6" stroke-width="0.5" points="14.25,103.971 14.25,96.971 21.25,96.971 21.25,103.971 "/>
<polyline fill="none" stroke="#008CD6" stroke-width="0.5" points="49.123,103.971 49.123,96.971 56.123,96.971 56.123,103.971 "/>
<g>
	<path fill="#008CD6" d="M14.884,0.08c0.208,0.032,0.36,0.04,0.664,0.04h0.504c0.272,0,0.4-0.008,0.664-0.04
		c-0.048,0.488-0.072,0.896-0.072,1.328v3.888c0,0.376,0.016,0.608,0.064,0.904h-0.76c0.048-0.28,0.064-0.536,0.064-0.904V0.664
		H15.58c-0.256,0-0.464,0.016-0.696,0.048V0.08z"/>
	<path fill="#008CD6" d="M22.484,0.12l-2.88,7.32h-0.6l2.888-7.32H22.484z"/>
	<path fill="#008CD6" d="M23.996,6.2c-0.504,0-0.624,0.008-0.88,0.04c0.088-0.632,0.112-0.752,0.232-1.056
		c0.2-0.504,0.536-0.944,1.04-1.376c0.28-0.24,0.296-0.248,1.224-0.88c0.792-0.536,1.056-0.888,1.056-1.376c0-0.608-0.512-1-1.328-1
		c-0.528,0-0.92,0.176-1.16,0.52C24.028,1.288,23.956,1.48,23.9,1.88l-0.672-0.112c0.12-0.576,0.24-0.856,0.504-1.152
		C24.092,0.208,24.636,0,25.34,0c1.208,0,1.984,0.608,1.984,1.552c0,0.408-0.16,0.792-0.472,1.136
		c-0.24,0.272-0.448,0.424-1.36,1.032c-0.632,0.424-0.888,0.648-1.152,0.984c-0.248,0.328-0.36,0.544-0.456,0.928h2.552
		c0.4,0,0.672-0.016,0.976-0.056v0.672C27.092,6.216,26.828,6.2,26.428,6.2H23.996z"/>
	<path fill="#008CD6" d="M31.132,6.2c0.04-0.304,0.056-0.536,0.056-0.92V1.024c0-0.336-0.016-0.592-0.056-0.904h0.704
		c-0.04,0.296-0.056,0.528-0.056,0.912v1.08c0,0.216-0.008,0.36-0.032,0.568c0.376-0.592,0.92-0.88,1.648-0.88
		c1.232,0,1.968,0.832,1.968,2.224c0,1.408-0.752,2.256-2,2.256c-0.504,0-0.872-0.128-1.24-0.432
		c-0.176-0.136-0.248-0.224-0.376-0.416c0.016,0.152,0.024,0.216,0.024,0.32V6.2H31.132z M33.348,2.312
		c-0.944,0-1.568,0.688-1.568,1.712c0,1.032,0.624,1.736,1.544,1.736c0.896,0,1.424-0.648,1.424-1.744
		C34.748,2.936,34.236,2.312,33.348,2.312z"/>
	<path fill="#008CD6" d="M39.148,5.632c-0.312,0.28-0.464,0.384-0.736,0.488c-0.272,0.104-0.56,0.16-0.832,0.16
		c-0.88,0-1.416-0.456-1.416-1.216c0-0.64,0.4-1.104,1.144-1.312c0.472-0.136,0.856-0.184,1.84-0.208V3.08
		c0-0.544-0.344-0.824-1.008-0.824c-0.44,0-0.768,0.112-0.992,0.344C37.044,2.712,36.98,2.824,36.9,3.064l-0.624-0.136
		c0.144-0.368,0.248-0.536,0.448-0.712c0.328-0.304,0.808-0.456,1.408-0.456c1.056,0,1.6,0.448,1.6,1.312V5.32
		c0,0.36,0.016,0.56,0.064,0.88h-0.648V5.632z M39.148,4.016c-0.952,0.024-1.408,0.08-1.768,0.232
		c-0.408,0.168-0.608,0.44-0.608,0.824c0,0.44,0.328,0.72,0.848,0.72c0.464,0,0.968-0.224,1.28-0.568
		c0.184-0.2,0.248-0.368,0.248-0.688V4.016z"/>
	<path fill="#008CD6" d="M41.324,4.92c0.056,0.296,0.12,0.44,0.28,0.584c0.2,0.184,0.52,0.28,0.928,0.28
		c0.696,0,1.136-0.296,1.136-0.768c0-0.224-0.08-0.392-0.248-0.496c-0.192-0.12-0.352-0.168-0.944-0.288
		C41.836,4.096,41.564,4,41.292,3.816c-0.28-0.192-0.432-0.488-0.432-0.84c0-0.288,0.12-0.56,0.344-0.776
		c0.28-0.272,0.712-0.416,1.248-0.416c0.544,0,0.968,0.128,1.256,0.384c0.208,0.176,0.32,0.36,0.424,0.728L43.5,3
		c-0.048-0.216-0.088-0.312-0.2-0.424c-0.184-0.2-0.472-0.304-0.832-0.304c-0.584,0-1,0.296-1,0.72c0,0.184,0.096,0.344,0.272,0.44
		c0.184,0.104,0.392,0.168,0.888,0.272C43.404,3.88,43.66,3.976,43.9,4.16c0.248,0.2,0.384,0.504,0.384,0.832
		c0,0.8-0.68,1.296-1.776,1.296c-0.728,0-1.288-0.216-1.584-0.624c-0.12-0.168-0.176-0.304-0.256-0.632L41.324,4.92z"/>
	<path fill="#008CD6" d="M45.604,4.136c0.024,0.536,0.104,0.832,0.32,1.12C46.18,5.608,46.572,5.8,47.052,5.8
		c0.648,0,1.096-0.32,1.32-0.936l0.56,0.224c-0.152,0.336-0.256,0.48-0.44,0.664c-0.376,0.368-0.864,0.56-1.448,0.56
		c-1.256,0-2.048-0.88-2.048-2.264c0-1.368,0.784-2.264,1.984-2.264c1.032,0,1.776,0.664,1.936,1.736
		c0.008,0.088,0.04,0.4,0.056,0.616H45.604z M48.332,3.632c-0.048-0.448-0.168-0.736-0.424-0.984c-0.248-0.24-0.56-0.36-0.944-0.36
		c-0.488,0-0.896,0.248-1.136,0.696c-0.112,0.2-0.152,0.344-0.2,0.648H48.332z"/>
	<path fill="#008CD6" d="M17.228,12.208c-0.232-0.624-0.616-0.92-1.208-0.92c-0.88,0-1.44,0.688-1.44,1.76
		c0,1.056,0.576,1.728,1.472,1.728c0.456,0,0.832-0.184,1.04-0.512c0.08-0.12,0.12-0.216,0.176-0.408l0.6,0.16
		c-0.112,0.288-0.192,0.44-0.328,0.616c-0.352,0.44-0.864,0.672-1.512,0.672c-1.256,0-2.064-0.872-2.064-2.24
		c0-1.384,0.8-2.288,2.024-2.288c0.664,0,1.2,0.256,1.544,0.736c0.112,0.152,0.184,0.28,0.28,0.512L17.228,12.208z"/>
	<path fill="#008CD6" d="M18.788,15.2c0.04-0.288,0.056-0.504,0.056-0.904v-4.272c0-0.4-0.016-0.608-0.056-0.904H19.5
		c-0.048,0.296-0.064,0.504-0.064,0.912v1.352c0,0.128,0,0.192-0.024,0.4c0.16-0.264,0.248-0.384,0.44-0.544
		c0.344-0.296,0.712-0.432,1.2-0.432c0.936,0,1.496,0.552,1.496,1.488v2.008c0,0.368,0.016,0.6,0.056,0.896h-0.72
		c0.04-0.264,0.056-0.504,0.056-0.904v-1.888c0-0.696-0.344-1.072-0.968-1.072c-0.448,0-0.816,0.192-1.128,0.584
		c-0.224,0.288-0.328,0.504-0.4,0.84v1.536c0,0.352,0.016,0.592,0.056,0.904H18.788z"/>
	<path fill="#008CD6" d="M26.572,14.632c-0.312,0.28-0.464,0.384-0.736,0.488s-0.56,0.16-0.832,0.16
		c-0.88,0-1.416-0.456-1.416-1.216c0-0.64,0.4-1.104,1.144-1.312c0.472-0.136,0.856-0.184,1.84-0.208V12.08
		c0-0.544-0.344-0.824-1.008-0.824c-0.44,0-0.768,0.112-0.992,0.344c-0.104,0.112-0.168,0.224-0.248,0.464L23.7,11.928
		c0.144-0.368,0.248-0.536,0.448-0.712c0.328-0.304,0.808-0.456,1.408-0.456c1.056,0,1.6,0.448,1.6,1.312v2.248
		c0,0.36,0.016,0.56,0.064,0.88h-0.648V14.632z M26.572,13.016c-0.952,0.024-1.408,0.08-1.768,0.232
		c-0.408,0.168-0.608,0.44-0.608,0.824c0,0.44,0.328,0.72,0.848,0.72c0.464,0,0.968-0.224,1.28-0.568
		c0.184-0.2,0.248-0.368,0.248-0.688V13.016z"/>
	<path fill="#008CD6" d="M30.917,11.504c-0.304-0.096-0.448-0.12-0.648-0.12c-0.408,0-0.744,0.168-0.984,0.488
		c-0.192,0.248-0.264,0.44-0.296,0.8v1.632c0,0.36,0.016,0.584,0.056,0.896h-0.72c0.04-0.368,0.056-0.576,0.056-0.904v-2.504
		c0-0.4-0.016-0.616-0.056-0.904h0.664v0.456c0,0.064,0,0.184-0.008,0.24c0.152-0.248,0.272-0.376,0.44-0.488
		c0.304-0.2,0.576-0.28,0.96-0.28c0.24,0,0.376,0.016,0.712,0.072L30.917,11.504z"/>
	<path fill="#008CD6" d="M34.612,14.632c-0.312,0.28-0.464,0.384-0.736,0.488s-0.56,0.16-0.832,0.16
		c-0.88,0-1.416-0.456-1.416-1.216c0-0.64,0.4-1.104,1.144-1.312c0.472-0.136,0.856-0.184,1.84-0.208V12.08
		c0-0.544-0.344-0.824-1.008-0.824c-0.44,0-0.768,0.112-0.992,0.344c-0.104,0.112-0.168,0.224-0.248,0.464l-0.624-0.136
		c0.144-0.368,0.248-0.536,0.448-0.712c0.328-0.304,0.808-0.456,1.408-0.456c1.056,0,1.6,0.448,1.6,1.312v2.248
		c0,0.36,0.016,0.56,0.064,0.88h-0.648V14.632z M34.612,13.016c-0.952,0.024-1.408,0.08-1.768,0.232
		c-0.408,0.168-0.608,0.44-0.608,0.824c0,0.44,0.328,0.72,0.848,0.72c0.464,0,0.968-0.224,1.28-0.568
		c0.184-0.2,0.248-0.368,0.248-0.688V13.016z"/>
	<path fill="#008CD6" d="M39.428,12.208c-0.232-0.624-0.616-0.92-1.208-0.92c-0.88,0-1.44,0.688-1.44,1.76
		c0,1.056,0.576,1.728,1.472,1.728c0.456,0,0.832-0.184,1.04-0.512c0.08-0.12,0.12-0.216,0.176-0.408l0.6,0.16
		c-0.112,0.288-0.192,0.44-0.328,0.616c-0.352,0.44-0.864,0.672-1.512,0.672c-1.256,0-2.064-0.872-2.064-2.24
		c0-1.384,0.8-2.288,2.024-2.288c0.664,0,1.2,0.256,1.544,0.736c0.112,0.152,0.184,0.28,0.28,0.512L39.428,12.208z"/>
	<path fill="#008CD6" d="M42.212,9.696c-0.04,0.256-0.056,0.544-0.056,0.888v0.304h0.384c0.368,0,0.536-0.008,0.816-0.048v0.608
		c-0.256-0.04-0.456-0.048-0.816-0.048h-0.384v2.784c0,0.232,0.032,0.352,0.104,0.424c0.088,0.088,0.224,0.136,0.392,0.136
		c0.208,0,0.368-0.048,0.632-0.208l0.176,0.56c-0.328,0.136-0.576,0.184-0.904,0.184c-0.352,0-0.624-0.088-0.784-0.248
		c-0.16-0.16-0.224-0.392-0.224-0.768V11.4h-0.32c-0.272,0-0.456,0.016-0.72,0.048V10.84c0.224,0.04,0.384,0.048,0.72,0.048h0.32
		v-0.304c0-0.32-0.016-0.624-0.056-0.888H42.212z"/>
	<path fill="#008CD6" d="M44.533,13.136c0.024,0.536,0.104,0.832,0.32,1.12C45.108,14.608,45.5,14.8,45.98,14.8
		c0.648,0,1.096-0.32,1.32-0.936l0.56,0.224c-0.152,0.336-0.256,0.48-0.44,0.664c-0.376,0.368-0.864,0.56-1.448,0.56
		c-1.256,0-2.048-0.88-2.048-2.264c0-1.368,0.784-2.264,1.984-2.264c1.032,0,1.776,0.664,1.936,1.736
		c0.008,0.088,0.04,0.4,0.056,0.616H44.533z M47.261,12.632c-0.048-0.448-0.168-0.736-0.424-0.984c-0.248-0.24-0.56-0.36-0.944-0.36
		c-0.488,0-0.896,0.248-1.136,0.696c-0.112,0.2-0.152,0.344-0.2,0.648H47.261z"/>
	<path fill="#008CD6" d="M51.421,11.504c-0.304-0.096-0.448-0.12-0.648-0.12c-0.408,0-0.744,0.168-0.984,0.488
		c-0.192,0.248-0.264,0.44-0.296,0.8v1.632c0,0.36,0.016,0.584,0.056,0.896h-0.72c0.04-0.368,0.056-0.576,0.056-0.904v-2.504
		c0-0.4-0.016-0.616-0.056-0.904h0.664v0.456c0,0.064,0,0.184-0.008,0.24c0.152-0.248,0.272-0.376,0.44-0.488
		c0.304-0.2,0.576-0.28,0.96-0.28c0.24,0,0.376,0.016,0.712,0.072L51.421,11.504z"/>
	<path fill="#008CD6" d="M55.357,13.92c0.056,0.296,0.12,0.44,0.28,0.584c0.2,0.184,0.52,0.28,0.928,0.28
		c0.696,0,1.136-0.296,1.136-0.768c0-0.224-0.08-0.392-0.248-0.496c-0.192-0.12-0.352-0.168-0.944-0.288
		c-0.64-0.136-0.912-0.232-1.184-0.416c-0.28-0.192-0.432-0.488-0.432-0.84c0-0.288,0.12-0.56,0.344-0.776
		c0.28-0.272,0.712-0.416,1.248-0.416c0.544,0,0.968,0.128,1.256,0.384c0.208,0.176,0.32,0.36,0.424,0.728L57.533,12
		c-0.048-0.216-0.088-0.312-0.2-0.424c-0.184-0.2-0.472-0.304-0.832-0.304c-0.584,0-1,0.296-1,0.72c0,0.184,0.096,0.344,0.272,0.44
		c0.184,0.104,0.392,0.168,0.888,0.272c0.776,0.176,1.032,0.272,1.272,0.456c0.248,0.2,0.384,0.504,0.384,0.832
		c0,0.8-0.68,1.296-1.776,1.296c-0.728,0-1.288-0.216-1.584-0.624c-0.12-0.168-0.176-0.304-0.256-0.632L55.357,13.92z"/>
	<path fill="#008CD6" d="M59.229,16.88c0.04-0.312,0.056-0.568,0.056-0.896v-4.176c0-0.384-0.016-0.616-0.056-0.92h0.64v0.456
		c0,0.104-0.008,0.192-0.024,0.328c0.36-0.568,0.92-0.864,1.632-0.864c1.232,0,1.984,0.84,1.984,2.232
		c0,1.36-0.768,2.232-1.968,2.232c-0.704,0-1.272-0.296-1.648-0.848c0.024,0.224,0.032,0.344,0.032,0.56v0.992
		c0,0.376,0.016,0.608,0.056,0.904H59.229z M62.836,13.04c0-1.088-0.512-1.712-1.408-1.712c-0.92,0-1.544,0.688-1.544,1.72
		c0,0.52,0.168,1,0.456,1.28c0.28,0.272,0.68,0.424,1.096,0.424C62.309,14.752,62.836,14.104,62.836,13.04z"/>
	<path fill="#008CD6" d="M67.252,14.632c-0.312,0.28-0.464,0.384-0.736,0.488c-0.272,0.104-0.56,0.16-0.832,0.16
		c-0.88,0-1.416-0.456-1.416-1.216c0-0.64,0.4-1.104,1.144-1.312c0.472-0.136,0.856-0.184,1.84-0.208V12.08
		c0-0.544-0.344-0.824-1.008-0.824c-0.44,0-0.768,0.112-0.992,0.344c-0.104,0.112-0.168,0.224-0.248,0.464l-0.624-0.136
		c0.144-0.368,0.248-0.536,0.448-0.712c0.328-0.304,0.808-0.456,1.408-0.456c1.056,0,1.6,0.448,1.6,1.312v2.248
		c0,0.36,0.016,0.56,0.064,0.88h-0.648V14.632z M67.252,13.016c-0.952,0.024-1.408,0.08-1.768,0.232
		c-0.408,0.168-0.608,0.44-0.608,0.824c0,0.44,0.328,0.72,0.848,0.72c0.464,0,0.968-0.224,1.28-0.568
		c0.184-0.2,0.248-0.368,0.248-0.688V13.016z"/>
	<path fill="#008CD6" d="M72.068,12.208c-0.232-0.624-0.616-0.92-1.208-0.92c-0.88,0-1.44,0.688-1.44,1.76
		c0,1.056,0.576,1.728,1.472,1.728c0.456,0,0.832-0.184,1.04-0.512c0.08-0.12,0.12-0.216,0.176-0.408l0.6,0.16
		c-0.112,0.288-0.192,0.44-0.328,0.616c-0.352,0.44-0.864,0.672-1.512,0.672c-1.256,0-2.064-0.872-2.064-2.24
		c0-1.384,0.8-2.288,2.024-2.288c0.664,0,1.2,0.256,1.544,0.736c0.112,0.152,0.184,0.28,0.28,0.512L72.068,12.208z"/>
	<path fill="#008CD6" d="M74.037,13.136c0.024,0.536,0.104,0.832,0.32,1.12c0.256,0.352,0.648,0.544,1.128,0.544
		c0.648,0,1.096-0.32,1.32-0.936l0.56,0.224c-0.152,0.336-0.256,0.48-0.44,0.664c-0.376,0.368-0.864,0.56-1.448,0.56
		c-1.256,0-2.048-0.88-2.048-2.264c0-1.368,0.784-2.264,1.984-2.264c1.032,0,1.776,0.664,1.936,1.736
		c0.008,0.088,0.04,0.4,0.056,0.616H74.037z M76.765,12.632c-0.048-0.448-0.168-0.736-0.424-0.984c-0.248-0.24-0.56-0.36-0.944-0.36
		c-0.488,0-0.896,0.248-1.136,0.696c-0.112,0.2-0.152,0.344-0.2,0.648H76.765z"/>
</g>
<g>
	<path d="M7.896,28.199c0.686-0.539,1.295-1.225,1.722-1.939c0.217-0.371,0.287-0.539,0.287-0.693c0-0.112-0.091-0.224-0.351-0.399
		c0.077-0.021,0.112-0.028,0.154-0.028c0.119,0,0.364,0.098,0.574,0.238c0.238,0.154,0.336,0.266,0.336,0.378
		c0,0.056-0.021,0.098-0.084,0.154c-0.133,0.112-0.133,0.112-0.294,0.322c-0.603,0.791-0.882,1.078-1.47,1.533
		c-0.309,0.238-0.505,0.357-0.819,0.511L7.896,28.199z M11.647,25.125c0.734,0.434,1.399,1.029,1.841,1.631
		c0.217,0.294,0.294,0.49,0.294,0.742c0,0.294-0.112,0.518-0.267,0.518c-0.098,0-0.133-0.042-0.23-0.322
		c-0.343-0.938-0.896-1.736-1.715-2.485L11.647,25.125z M12.361,24.216c0.405,0.175,0.7,0.329,0.896,0.483
		c0.183,0.147,0.245,0.259,0.245,0.441c0,0.196-0.063,0.322-0.161,0.322c-0.077,0-0.111-0.042-0.237-0.245
		c-0.245-0.399-0.399-0.567-0.799-0.91L12.361,24.216z M13.047,23.824c0.406,0.133,0.687,0.259,0.89,0.399
		c0.188,0.126,0.259,0.224,0.259,0.378c0,0.224-0.063,0.357-0.168,0.357c-0.049,0-0.091-0.035-0.154-0.126
		c-0.238-0.385-0.441-0.595-0.882-0.924L13.047,23.824z"/>
	<path d="M57.273,28.913c0.672-0.42,1.364-0.987,1.883-1.533c0.42-0.441,0.924-1.099,1.337-1.743
		c0.224-0.343,0.343-0.574,0.476-0.903c-0.336,0.021-0.707,0.098-1.477,0.308c-0.336,0.091-0.364,0.098-0.588,0.189
		c-0.035,0.014-0.077,0.021-0.119,0.021c-0.154,0-0.301-0.126-0.455-0.399c-0.098-0.161-0.147-0.308-0.147-0.42
		c0-0.042,0.015-0.077,0.05-0.14c0.203,0.364,0.35,0.469,0.657,0.469c0.231,0,0.938-0.091,1.471-0.196
		c0.405-0.077,0.531-0.119,0.657-0.196c0.077-0.049,0.112-0.063,0.161-0.063c0.147,0,0.546,0.357,0.546,0.49
		c0,0.049-0.027,0.091-0.091,0.133c-0.146,0.098-0.146,0.098-0.398,0.476c-0.336,0.504-0.336,0.504-0.882,1.218
		c0.986,0.518,1.539,0.875,1.813,1.183c0.189,0.203,0.266,0.406,0.266,0.693c0,0.224-0.069,0.364-0.188,0.364
		c-0.049,0-0.105-0.035-0.161-0.112c-0.028-0.035-0.028-0.035-0.168-0.28c-0.35-0.588-0.952-1.211-1.666-1.715
		c-0.567,0.686-1.022,1.113-1.694,1.575c-0.44,0.308-0.741,0.476-1.225,0.686L57.273,28.913z"/>
	<path d="M7.888,40.652c0,0.672,0.015,1.638,0.057,2.492c-0.042,0.21-0.154,0.252-0.616,0.252c-0.336,0-0.406-0.042-0.434-0.196
		c0.042-0.756,0.084-1.792,0.084-2.45v-1.288c-0.826,0.854-1.513,1.4-2.618,2.072C3.324,42.15,2.54,42.5,1.322,42.892L1.224,42.71
		c1.498-0.686,2.786-1.54,3.977-2.646c0.49-0.462,0.756-0.756,1.204-1.33H3.212c-0.308,0-0.784,0.014-1.218,0.056L1.91,38.314
		c0.518,0.07,0.798,0.098,1.162,0.098h0.854v-2.198H2.554c-0.462,0-0.84,0.014-1.315,0.07L1.14,35.766
		c0.757,0.112,0.938,0.126,1.414,0.126h1.372v-2.016H3.072c-0.196,0-0.798,0.028-1.106,0.056l-0.098-0.448
		c0.812,0.056,1.036,0.07,1.204,0.07h3.906v-1.526C5.326,32.154,4.136,32.21,2.89,32.21c-0.168,0-0.336,0-0.615,0l-0.057-0.238
		c2.982-0.252,4.158-0.406,6.021-0.798c1.428-0.294,2.254-0.532,2.786-0.798c0.854,0.574,1.231,0.868,1.231,1.008
		c0,0.07-0.07,0.126-0.154,0.126c-0.069,0-0.168-0.028-0.588-0.168c-1.918,0.378-2.365,0.462-3.626,0.602v1.61h3.584
		c0.309-0.392,0.42-0.504,0.757-0.896c0.504,0.42,0.672,0.56,1.203,1.05c0.028,0.042,0.042,0.07,0.042,0.084
		c0,0.042-0.056,0.084-0.14,0.084h-2.31v2.016h1.063c0.378-0.378,0.504-0.504,0.896-0.868c0.56,0.434,0.728,0.56,1.231,1.008
		c0.028,0.042,0.057,0.07,0.057,0.084c0,0.056-0.057,0.098-0.126,0.098h-3.122v2.198h0.56c0.336-0.392,0.448-0.504,0.813-0.854
		c0.489,0.406,0.63,0.532,1.092,0.994c0.027,0.042,0.056,0.084,0.056,0.098c0,0.042-0.07,0.084-0.14,0.084H8.056
		c1.442,1.666,3.473,2.632,6.188,2.926l-0.014,0.154c-0.574,0.196-0.771,0.42-0.841,0.952c-0.783-0.14-1.386-0.378-2.352-0.924
		c-1.302-0.728-2.128-1.456-3.15-2.786V40.652z M6.979,33.876H4.85v2.016h2.129V33.876z M6.979,36.214H4.85v2.198h2.129V36.214z
		 M10.114,35.892v-2.016H7.888v2.016H10.114z M10.114,38.412v-2.198H7.888v2.198H10.114z"/>
	<path d="M15.042,37.404c1.554-1.078,2.688-2.156,3.948-3.738c0.658-0.826,1.26-1.736,1.54-2.31c0.098-0.21,0.153-0.364,0.252-0.686
		c0.322,0.056,0.56,0.112,0.714,0.14c0.77,0.154,0.938,0.21,0.938,0.336c0,0.112-0.168,0.196-0.546,0.266
		c0.687,1.148,1.624,2.128,2.885,3.038c1.189,0.854,2.323,1.386,3.626,1.736l-0.028,0.196c-0.588,0.07-0.813,0.266-1.106,0.924
		c-1.302-0.672-2.058-1.218-3.08-2.282c-1.035-1.05-1.498-1.694-2.506-3.472c-0.994,1.582-1.876,2.632-3.164,3.794
		c-1.119,0.994-2.029,1.624-3.317,2.268L15.042,37.404z M18.5,42.92c0,0.126-0.014,0.168-0.084,0.196
		c-0.126,0.042-0.448,0.084-0.728,0.084c-0.154,0-0.196-0.042-0.196-0.196c0.028-2.184,0.042-2.87,0.042-3.444
		c0-1.106-0.014-1.624-0.042-2.156c0.518,0.294,0.672,0.392,1.12,0.714h5.655c0.225-0.308,0.309-0.406,0.574-0.714
		c0.393,0.294,0.519,0.392,0.896,0.714c0.111,0.098,0.14,0.14,0.14,0.196c0,0.084-0.126,0.182-0.462,0.294
		c0,2.044,0,2.044,0.056,4.214c0,0.028,0,0.042,0,0.056c0,0.112-0.027,0.154-0.126,0.182c-0.098,0.042-0.56,0.098-0.714,0.098
		c-0.14,0-0.21-0.056-0.21-0.168c0-0.014,0-0.042,0-0.07v-0.588H18.5V42.92z M18.486,35.626c0.405,0.07,0.742,0.112,1.036,0.112
		h2.926c0.322-0.35,0.42-0.476,0.742-0.84c0.504,0.392,0.672,0.504,1.176,0.924c0.069,0.07,0.112,0.126,0.112,0.168
		c0,0.056-0.028,0.07-0.183,0.07h-4.773c-0.267,0-0.477,0.014-0.925,0.084L18.486,35.626z M18.5,42.01h5.922v-3.57H18.5V42.01z"/>
	<path d="M38.59,32.644c0.252-0.322,0.322-0.42,0.603-0.7c0.392,0.308,0.504,0.392,0.854,0.686c0.098,0.098,0.14,0.154,0.14,0.224
		c0,0.098-0.111,0.196-0.462,0.364v2.548c0,4.858,0,5.04,0.099,7.266c-0.015,0.126-0.042,0.168-0.141,0.196
		c-0.098,0.042-0.546,0.098-0.77,0.098c-0.112,0-0.154-0.042-0.154-0.168v-1.022h-6.523v0.896c0,0.014,0,0.042,0,0.042
		c0,0.098-0.042,0.154-0.141,0.182c-0.069,0.014-0.476,0.042-0.63,0.042c-0.196,0-0.266-0.042-0.266-0.168v-0.028
		c0.042-1.694,0.069-3.892,0.069-5.404c0-3.416-0.014-5.04-0.056-5.852c0.532,0.322,0.7,0.434,1.218,0.798h1.526
		c0.336-0.756,0.574-1.568,0.686-2.38c1.61,0.42,1.652,0.434,1.652,0.574c0,0.112-0.126,0.168-0.644,0.28
		c-0.154,0.182-0.267,0.336-0.336,0.42c-0.519,0.672-0.645,0.826-0.938,1.106H38.59z M38.758,35.542v-2.576h-6.523v2.576H38.758z
		 M32.234,35.864v2.73h6.523v-2.73H32.234z M32.234,38.916v2.898h6.523v-2.898H32.234z"/>
	<path d="M43.924,38.958c0.028-0.826,0.057-2.044,0.057-3.08c0-0.392,0-0.392-0.057-1.638c0.448,0.238,0.588,0.308,1.022,0.546
		h1.582v-1.12h-2.254c-0.28,0-0.504,0.014-0.967,0.07l-0.098-0.49c0.322,0.056,0.813,0.098,1.064,0.098h2.254v-1.148
		c-1.036,0.154-1.891,0.238-3.024,0.308l-0.027-0.196c1.008-0.154,2.197-0.42,3.43-0.77c1.162-0.322,1.764-0.56,2.31-0.868
		c0.351,0.182,0.714,0.392,0.938,0.518c0.279,0.168,0.294,0.182,0.294,0.252s-0.099,0.126-0.252,0.126
		c-0.07,0-0.21-0.014-0.588-0.042c-0.826,0.224-1.372,0.35-2.254,0.518v1.302h1.651c0.267-0.322,0.351-0.406,0.645-0.714
		c0.476,0.364,0.63,0.476,1.078,0.84c0.042,0.042,0.069,0.084,0.069,0.112c0,0.056-0.069,0.084-0.182,0.084h-3.262v1.12h1.638
		c0.21-0.238,0.28-0.308,0.49-0.546c0.294,0.224,0.392,0.308,0.686,0.546c0.112,0.098,0.154,0.14,0.154,0.182
		c0,0.07-0.015,0.084-0.364,0.336c-0.014,1.54-0.014,1.54-0.014,1.96c0,0.364,0.014,0.756,0.027,1.484
		c0,0.196-0.153,0.266-0.602,0.266c-0.168,0-0.266-0.056-0.266-0.168c0-0.014,0-0.028,0-0.042v-0.168h-1.75v1.386h1.344
		c0.294-0.308,0.392-0.406,0.658-0.7c0.447,0.35,0.588,0.462,1.021,0.812c0.042,0.056,0.056,0.084,0.056,0.112
		c0,0.056-0.056,0.098-0.126,0.098h-2.953v1.12c1.035-0.112,1.596-0.182,2.701-0.336l0.028,0.168
		c-1.694,0.448-2.38,0.602-3.164,0.77c-2.45,0.49-2.45,0.49-2.954,0.602c-0.098,0.378-0.153,0.504-0.252,0.504
		c-0.14,0-0.252-0.308-0.518-1.386c0.896-0.028,1.903-0.098,3.332-0.238v-1.204H44.26c-0.294,0-0.462,0.014-0.798,0.07l-0.098-0.476
		c0.336,0.056,0.574,0.084,0.966,0.084h2.198v-1.386h-1.681v0.266c0,0.126-0.027,0.168-0.14,0.196
		c-0.07,0.028-0.364,0.056-0.532,0.056c-0.195,0-0.252-0.042-0.252-0.168V38.958z M46.528,35.108h-1.681v1.414h1.681V35.108z
		 M46.528,36.844h-1.681v1.47h1.681V36.844z M49.104,35.108h-1.75v1.414h1.75V35.108z M49.104,36.844h-1.75v1.47h1.75V36.844z
		 M54.564,34.366c0.224-0.252,0.294-0.322,0.518-0.574c0.364,0.238,0.462,0.322,0.784,0.574c0.111,0.098,0.14,0.14,0.14,0.21
		c0,0.07-0.098,0.154-0.42,0.434c-0.126,3.416-0.322,5.544-0.616,6.65c-0.182,0.686-0.336,0.952-0.714,1.176
		c-0.308,0.196-0.588,0.294-1.204,0.392c-0.195-0.504-0.21-0.546-0.405-0.644c-0.253-0.14-0.589-0.238-1.33-0.378V42.01
		c0.756,0.056,1.75,0.112,2.016,0.112c0.406,0,0.588-0.098,0.672-0.364c0.364-1.078,0.588-3.542,0.658-7.07h-1.596
		c-0.141,2.268-0.448,3.906-0.98,5.096c-0.49,1.12-1.288,2.072-2.338,2.8c-0.518,0.378-0.882,0.56-1.694,0.868l-0.111-0.168
		c1.189-0.658,1.876-1.232,2.548-2.128c1.063-1.456,1.512-3.164,1.693-6.468h-0.741c-0.252,0-0.462,0.014-0.896,0.084l-0.14-0.504
		c0.476,0.07,0.798,0.098,1.134,0.098h0.658c0.042-0.756,0.056-1.358,0.056-1.918c0-0.686-0.014-0.938-0.056-1.54
		c1.063,0.07,1.54,0.154,1.54,0.294c0,0.014,0,0.014,0,0.014c-0.015,0.126-0.084,0.168-0.574,0.392
		c-0.028,1.344-0.028,1.666-0.084,2.758H54.564z"/>
	<path d="M63.944,38.748c0,0.294,0,0.294,0,1.12c0,0.056,0,0.056,0,0.462h3.989c0.393-0.476,0.519-0.616,0.925-1.078
		c0.588,0.49,0.756,0.658,1.302,1.204c0.042,0.042,0.056,0.084,0.056,0.126c0,0.028-0.056,0.07-0.111,0.07h-6.146
		c0.028,1.918,0.028,1.918,0.042,2.576c0,0.112-0.028,0.154-0.098,0.182c-0.084,0.014-0.519,0.056-0.784,0.056
		c-0.14,0-0.182-0.028-0.182-0.14c0.014-0.476,0.042-1.372,0.056-2.674h-4.2c-0.602,0-1.05,0.042-1.372,0.112l-0.07-0.56
		c0.448,0.098,0.826,0.126,1.442,0.126h4.2c0-0.602,0-0.602,0.014-1.582h-2.828v0.518c0,0.196-0.126,0.224-0.783,0.224
		c-0.169,0-0.238-0.042-0.238-0.168c0.056-1.092,0.069-1.638,0.069-2.884c0-1.358-0.014-1.974-0.069-2.828
		c0.462,0.266,0.616,0.336,1.05,0.616h2.8v-1.484h-4.214c-0.448,0-0.77,0.028-1.036,0.112L57.7,32.308
		c0.336,0.084,0.616,0.112,1.092,0.112h4.214c-0.014-1.148-0.014-1.148-0.084-1.82c0.322,0.028,0.574,0.042,0.729,0.056
		c0.699,0.042,0.882,0.098,0.882,0.238c0,0.126-0.126,0.196-0.574,0.322c-0.014,0.616-0.014,0.714-0.014,1.204h3.779
		c0.336-0.434,0.435-0.56,0.813-0.98c0.588,0.476,0.77,0.616,1.315,1.12c0.057,0.056,0.07,0.084,0.07,0.112
		c0,0.042-0.042,0.07-0.126,0.07h-5.852v1.484h2.912c0.237-0.266,0.308-0.35,0.573-0.616c0.364,0.252,0.477,0.336,0.868,0.616
		c0.099,0.084,0.141,0.126,0.141,0.182c0,0.112-0.112,0.196-0.561,0.406c0,0.392,0,0.672,0,0.84c0,1.372,0.014,2.394,0.07,3.402
		c0,0.098-0.015,0.14-0.057,0.168c-0.084,0.056-0.363,0.098-0.756,0.098c-0.14,0-0.182-0.028-0.195-0.126v-0.448H63.944z
		 M63.006,35.654c0-0.14,0-0.448,0-1.106h-2.828v1.708h2.828V35.654z M63.006,36.578h-2.828v1.848h2.828V36.578z M66.94,34.548
		h-2.996v1.708h2.996V34.548z M66.94,36.578h-2.996v1.848h2.996V36.578z"/>
</g>
<g>
	<path d="M7.896,54.449c0.686-0.539,1.295-1.225,1.722-1.939c0.217-0.371,0.287-0.539,0.287-0.693c0-0.112-0.091-0.224-0.351-0.399
		c0.077-0.021,0.112-0.028,0.154-0.028c0.119,0,0.364,0.098,0.574,0.238c0.238,0.154,0.336,0.266,0.336,0.378
		c0,0.056-0.021,0.098-0.084,0.154c-0.133,0.112-0.133,0.112-0.294,0.322c-0.603,0.791-0.882,1.078-1.47,1.533
		c-0.309,0.238-0.505,0.357-0.819,0.511L7.896,54.449z M11.647,51.375c0.734,0.434,1.399,1.029,1.841,1.631
		c0.217,0.294,0.294,0.49,0.294,0.742c0,0.294-0.112,0.518-0.267,0.518c-0.098,0-0.133-0.042-0.23-0.322
		c-0.343-0.938-0.896-1.736-1.715-2.485L11.647,51.375z M12.361,50.466c0.405,0.175,0.7,0.329,0.896,0.483
		c0.183,0.147,0.245,0.259,0.245,0.441c0,0.196-0.063,0.322-0.161,0.322c-0.077,0-0.111-0.042-0.237-0.245
		c-0.245-0.399-0.399-0.567-0.799-0.91L12.361,50.466z M13.047,50.074c0.406,0.133,0.687,0.259,0.89,0.399
		c0.188,0.126,0.259,0.224,0.259,0.378c0,0.224-0.063,0.357-0.168,0.357c-0.049,0-0.091-0.035-0.154-0.126
		c-0.238-0.385-0.441-0.595-0.882-0.924L13.047,50.074z"/>
	<path d="M57.273,55.163c0.672-0.42,1.364-0.987,1.883-1.533c0.42-0.441,0.924-1.099,1.337-1.743
		c0.224-0.343,0.343-0.574,0.476-0.903c-0.336,0.021-0.707,0.098-1.477,0.308c-0.336,0.091-0.364,0.098-0.588,0.189
		c-0.035,0.014-0.077,0.021-0.119,0.021c-0.154,0-0.301-0.126-0.455-0.399c-0.098-0.161-0.147-0.308-0.147-0.42
		c0-0.042,0.015-0.077,0.05-0.14c0.203,0.364,0.35,0.469,0.657,0.469c0.231,0,0.938-0.091,1.471-0.196
		c0.405-0.077,0.531-0.119,0.657-0.196c0.077-0.049,0.112-0.063,0.161-0.063c0.147,0,0.546,0.357,0.546,0.49
		c0,0.049-0.027,0.091-0.091,0.133c-0.146,0.098-0.146,0.098-0.398,0.476c-0.336,0.504-0.336,0.504-0.882,1.218
		c0.986,0.518,1.539,0.875,1.813,1.183c0.189,0.203,0.266,0.406,0.266,0.693c0,0.224-0.069,0.364-0.188,0.364
		c-0.049,0-0.105-0.035-0.161-0.112c-0.028-0.035-0.028-0.035-0.168-0.28c-0.35-0.588-0.952-1.211-1.666-1.715
		c-0.567,0.686-1.022,1.113-1.694,1.575c-0.44,0.308-0.741,0.476-1.225,0.686L57.273,55.163z"/>
	<path d="M7.888,66.902c0,0.672,0.015,1.638,0.057,2.492c-0.042,0.21-0.154,0.252-0.616,0.252c-0.336,0-0.406-0.042-0.434-0.196
		c0.042-0.756,0.084-1.792,0.084-2.45v-1.288c-0.826,0.854-1.513,1.4-2.618,2.072C3.324,68.4,2.54,68.75,1.322,69.142L1.224,68.96
		c1.498-0.686,2.786-1.54,3.977-2.646c0.49-0.462,0.756-0.756,1.204-1.33H3.212c-0.308,0-0.784,0.014-1.218,0.056L1.91,64.564
		c0.518,0.07,0.798,0.098,1.162,0.098h0.854v-2.198H2.554c-0.462,0-0.84,0.014-1.315,0.07L1.14,62.016
		c0.757,0.112,0.938,0.126,1.414,0.126h1.372v-2.016H3.072c-0.196,0-0.798,0.028-1.106,0.056l-0.098-0.448
		c0.812,0.056,1.036,0.07,1.204,0.07h3.906v-1.526C5.326,58.404,4.136,58.46,2.89,58.46c-0.168,0-0.336,0-0.615,0l-0.057-0.238
		c2.982-0.252,4.158-0.406,6.021-0.798c1.428-0.294,2.254-0.532,2.786-0.798c0.854,0.574,1.231,0.868,1.231,1.008
		c0,0.07-0.07,0.126-0.154,0.126c-0.069,0-0.168-0.028-0.588-0.168c-1.918,0.378-2.365,0.462-3.626,0.602v1.61h3.584
		c0.309-0.392,0.42-0.504,0.757-0.896c0.504,0.42,0.672,0.56,1.203,1.05c0.028,0.042,0.042,0.07,0.042,0.084
		c0,0.042-0.056,0.084-0.14,0.084h-2.31v2.016h1.063c0.378-0.378,0.504-0.504,0.896-0.868c0.56,0.434,0.728,0.56,1.231,1.008
		c0.028,0.042,0.057,0.07,0.057,0.084c0,0.056-0.057,0.098-0.126,0.098h-3.122v2.198h0.56c0.336-0.392,0.448-0.504,0.813-0.854
		c0.489,0.406,0.63,0.532,1.092,0.994c0.027,0.042,0.056,0.084,0.056,0.098c0,0.042-0.07,0.084-0.14,0.084H8.056
		c1.442,1.666,3.473,2.632,6.188,2.926l-0.014,0.154c-0.574,0.196-0.771,0.42-0.841,0.952c-0.783-0.14-1.386-0.378-2.352-0.924
		c-1.302-0.728-2.128-1.456-3.15-2.786V66.902z M6.979,60.126H4.85v2.016h2.129V60.126z M6.979,62.464H4.85v2.198h2.129V62.464z
		 M10.114,62.142v-2.016H7.888v2.016H10.114z M10.114,64.662v-2.198H7.888v2.198H10.114z"/>
	<path d="M15.042,63.654c1.554-1.078,2.688-2.156,3.948-3.738c0.658-0.826,1.26-1.736,1.54-2.31c0.098-0.21,0.153-0.364,0.252-0.686
		c0.322,0.056,0.56,0.112,0.714,0.14c0.77,0.154,0.938,0.21,0.938,0.336c0,0.112-0.168,0.196-0.546,0.266
		c0.687,1.148,1.624,2.128,2.885,3.038c1.189,0.854,2.323,1.386,3.626,1.736l-0.028,0.196c-0.588,0.07-0.813,0.266-1.106,0.924
		c-1.302-0.672-2.058-1.218-3.08-2.282c-1.035-1.05-1.498-1.694-2.506-3.472c-0.994,1.582-1.876,2.632-3.164,3.794
		c-1.119,0.994-2.029,1.624-3.317,2.268L15.042,63.654z M18.5,69.17c0,0.126-0.014,0.168-0.084,0.196
		c-0.126,0.042-0.448,0.084-0.728,0.084c-0.154,0-0.196-0.042-0.196-0.196c0.028-2.184,0.042-2.87,0.042-3.444
		c0-1.106-0.014-1.624-0.042-2.156c0.518,0.294,0.672,0.392,1.12,0.714h5.655c0.225-0.308,0.309-0.406,0.574-0.714
		c0.393,0.294,0.519,0.392,0.896,0.714c0.111,0.098,0.14,0.14,0.14,0.196c0,0.084-0.126,0.182-0.462,0.294
		c0,2.044,0,2.044,0.056,4.214c0,0.028,0,0.042,0,0.056c0,0.112-0.027,0.154-0.126,0.182c-0.098,0.042-0.56,0.098-0.714,0.098
		c-0.14,0-0.21-0.056-0.21-0.168c0-0.014,0-0.042,0-0.07v-0.588H18.5V69.17z M18.486,61.876c0.405,0.07,0.742,0.112,1.036,0.112
		h2.926c0.322-0.35,0.42-0.476,0.742-0.84c0.504,0.392,0.672,0.504,1.176,0.924c0.069,0.07,0.112,0.126,0.112,0.168
		c0,0.056-0.028,0.07-0.183,0.07h-4.773c-0.267,0-0.477,0.014-0.925,0.084L18.486,61.876z M18.5,68.26h5.922v-3.57H18.5V68.26z"/>
	<path d="M38.59,58.894c0.252-0.322,0.322-0.42,0.603-0.7c0.392,0.308,0.504,0.392,0.854,0.686c0.098,0.098,0.14,0.154,0.14,0.224
		c0,0.098-0.111,0.196-0.462,0.364v2.548c0,4.858,0,5.04,0.099,7.266c-0.015,0.126-0.042,0.168-0.141,0.196
		c-0.098,0.042-0.546,0.098-0.77,0.098c-0.112,0-0.154-0.042-0.154-0.168v-1.022h-6.523v0.896c0,0.014,0,0.042,0,0.042
		c0,0.098-0.042,0.154-0.141,0.182c-0.069,0.014-0.476,0.042-0.63,0.042c-0.196,0-0.266-0.042-0.266-0.168v-0.028
		c0.042-1.694,0.069-3.892,0.069-5.404c0-3.416-0.014-5.04-0.056-5.852c0.532,0.322,0.7,0.434,1.218,0.798h1.526
		c0.336-0.756,0.574-1.568,0.686-2.38c1.61,0.42,1.652,0.434,1.652,0.574c0,0.112-0.126,0.168-0.644,0.28
		c-0.154,0.182-0.267,0.336-0.336,0.42c-0.519,0.672-0.645,0.826-0.938,1.106H38.59z M38.758,61.792v-2.576h-6.523v2.576H38.758z
		 M32.234,62.114v2.73h6.523v-2.73H32.234z M32.234,65.166v2.898h6.523v-2.898H32.234z"/>
	<path d="M43.924,65.208c0.028-0.826,0.057-2.044,0.057-3.08c0-0.392,0-0.392-0.057-1.638c0.448,0.238,0.588,0.308,1.022,0.546
		h1.582v-1.12h-2.254c-0.28,0-0.504,0.014-0.967,0.07l-0.098-0.49c0.322,0.056,0.813,0.098,1.064,0.098h2.254v-1.148
		c-1.036,0.154-1.891,0.238-3.024,0.308l-0.027-0.196c1.008-0.154,2.197-0.42,3.43-0.77c1.162-0.322,1.764-0.56,2.31-0.868
		c0.351,0.182,0.714,0.392,0.938,0.518c0.279,0.168,0.294,0.182,0.294,0.252s-0.099,0.126-0.252,0.126
		c-0.07,0-0.21-0.014-0.588-0.042c-0.826,0.224-1.372,0.35-2.254,0.518v1.302h1.651c0.267-0.322,0.351-0.406,0.645-0.714
		c0.476,0.364,0.63,0.476,1.078,0.84c0.042,0.042,0.069,0.084,0.069,0.112c0,0.056-0.069,0.084-0.182,0.084h-3.262v1.12h1.638
		c0.21-0.238,0.28-0.308,0.49-0.546c0.294,0.224,0.392,0.308,0.686,0.546c0.112,0.098,0.154,0.14,0.154,0.182
		c0,0.07-0.015,0.084-0.364,0.336c-0.014,1.54-0.014,1.54-0.014,1.96c0,0.364,0.014,0.756,0.027,1.484
		c0,0.196-0.153,0.266-0.602,0.266c-0.168,0-0.266-0.056-0.266-0.168c0-0.014,0-0.028,0-0.042v-0.168h-1.75v1.386h1.344
		c0.294-0.308,0.392-0.406,0.658-0.7c0.447,0.35,0.588,0.462,1.021,0.812c0.042,0.056,0.056,0.084,0.056,0.112
		c0,0.056-0.056,0.098-0.126,0.098h-2.953v1.12c1.035-0.112,1.596-0.182,2.701-0.336l0.028,0.168
		c-1.694,0.448-2.38,0.602-3.164,0.77c-2.45,0.49-2.45,0.49-2.954,0.602c-0.098,0.378-0.153,0.504-0.252,0.504
		c-0.14,0-0.252-0.308-0.518-1.386c0.896-0.028,1.903-0.098,3.332-0.238v-1.204H44.26c-0.294,0-0.462,0.014-0.798,0.07l-0.098-0.476
		c0.336,0.056,0.574,0.084,0.966,0.084h2.198v-1.386h-1.681v0.266c0,0.126-0.027,0.168-0.14,0.196
		c-0.07,0.028-0.364,0.056-0.532,0.056c-0.195,0-0.252-0.042-0.252-0.168V65.208z M46.528,61.358h-1.681v1.414h1.681V61.358z
		 M46.528,63.094h-1.681v1.47h1.681V63.094z M49.104,61.358h-1.75v1.414h1.75V61.358z M49.104,63.094h-1.75v1.47h1.75V63.094z
		 M54.564,60.616c0.224-0.252,0.294-0.322,0.518-0.574c0.364,0.238,0.462,0.322,0.784,0.574c0.111,0.098,0.14,0.14,0.14,0.21
		c0,0.07-0.098,0.154-0.42,0.434c-0.126,3.416-0.322,5.544-0.616,6.65c-0.182,0.686-0.336,0.952-0.714,1.176
		c-0.308,0.196-0.588,0.294-1.204,0.392c-0.195-0.504-0.21-0.546-0.405-0.644c-0.253-0.14-0.589-0.238-1.33-0.378V68.26
		c0.756,0.056,1.75,0.112,2.016,0.112c0.406,0,0.588-0.098,0.672-0.364c0.364-1.078,0.588-3.542,0.658-7.07h-1.596
		c-0.141,2.268-0.448,3.906-0.98,5.096c-0.49,1.12-1.288,2.072-2.338,2.8c-0.518,0.378-0.882,0.56-1.694,0.868l-0.111-0.168
		c1.189-0.658,1.876-1.232,2.548-2.128c1.063-1.456,1.512-3.164,1.693-6.468h-0.741c-0.252,0-0.462,0.014-0.896,0.084l-0.14-0.504
		c0.476,0.07,0.798,0.098,1.134,0.098h0.658c0.042-0.756,0.056-1.358,0.056-1.918c0-0.686-0.014-0.938-0.056-1.54
		c1.063,0.07,1.54,0.154,1.54,0.294c0,0.014,0,0.014,0,0.014c-0.015,0.126-0.084,0.168-0.574,0.392
		c-0.028,1.344-0.028,1.666-0.084,2.758H54.564z"/>
	<path d="M63.944,64.998c0,0.294,0,0.294,0,1.12c0,0.056,0,0.056,0,0.462h3.989c0.393-0.476,0.519-0.616,0.925-1.078
		c0.588,0.49,0.756,0.658,1.302,1.204c0.042,0.042,0.056,0.084,0.056,0.126c0,0.028-0.056,0.07-0.111,0.07h-6.146
		c0.028,1.918,0.028,1.918,0.042,2.576c0,0.112-0.028,0.154-0.098,0.182c-0.084,0.014-0.519,0.056-0.784,0.056
		c-0.14,0-0.182-0.028-0.182-0.14c0.014-0.476,0.042-1.372,0.056-2.674h-4.2c-0.602,0-1.05,0.042-1.372,0.112l-0.07-0.56
		c0.448,0.098,0.826,0.126,1.442,0.126h4.2c0-0.602,0-0.602,0.014-1.582h-2.828v0.518c0,0.196-0.126,0.224-0.783,0.224
		c-0.169,0-0.238-0.042-0.238-0.168c0.056-1.092,0.069-1.638,0.069-2.884c0-1.358-0.014-1.974-0.069-2.828
		c0.462,0.266,0.616,0.336,1.05,0.616h2.8v-1.484h-4.214c-0.448,0-0.77,0.028-1.036,0.112L57.7,58.558
		c0.336,0.084,0.616,0.112,1.092,0.112h4.214c-0.014-1.148-0.014-1.148-0.084-1.82c0.322,0.028,0.574,0.042,0.729,0.056
		c0.699,0.042,0.882,0.098,0.882,0.238c0,0.126-0.126,0.196-0.574,0.322c-0.014,0.616-0.014,0.714-0.014,1.204h3.779
		c0.336-0.434,0.435-0.56,0.813-0.98c0.588,0.476,0.77,0.616,1.315,1.12c0.057,0.056,0.07,0.084,0.07,0.112
		c0,0.042-0.042,0.07-0.126,0.07h-5.852v1.484h2.912c0.237-0.266,0.308-0.35,0.573-0.616c0.364,0.252,0.477,0.336,0.868,0.616
		c0.099,0.084,0.141,0.126,0.141,0.182c0,0.112-0.112,0.196-0.561,0.406c0,0.392,0,0.672,0,0.84c0,1.372,0.014,2.394,0.07,3.402
		c0,0.098-0.015,0.14-0.057,0.168c-0.084,0.056-0.363,0.098-0.756,0.098c-0.14,0-0.182-0.028-0.195-0.126v-0.448H63.944z
		 M63.006,61.904c0-0.14,0-0.448,0-1.106h-2.828v1.708h2.828V61.904z M63.006,62.828h-2.828v1.848h2.828V62.828z M66.94,60.798
		h-2.996v1.708h2.996V60.798z M66.94,62.828h-2.996v1.848h2.996V62.828z"/>
</g>
<rect x="0.25" y="29.97" fill="none" stroke="#008CD6" stroke-width="0.5" width="70" height="14"/>
<line fill="none" stroke="#008CD6" stroke-width="0.5" x1="14.25" y1="43.97" x2="14.25" y2="29.97"/>
<line fill="none" stroke="#008CD6" stroke-width="0.5" x1="28.25" y1="43.97" x2="28.25" y2="29.97"/>
<line fill="none" stroke="#008CD6" stroke-width="0.5" x1="42.25" y1="43.97" x2="42.25" y2="29.97"/>
<line fill="none" stroke="#008CD6" stroke-width="0.5" x1="56.25" y1="43.97" x2="56.25" y2="29.97"/>
<polyline fill="none" stroke="#008CD6" stroke-width="0.5" points="7.25,29.97 7.25,22.97 14.25,22.97 14.25,29.97 "/>
<polyline fill="none" stroke="#008CD6" stroke-width="0.5" points="56.123,29.97 56.123,22.97 63.123,22.97 63.123,29.97 "/>
<g>
	<line fill="none" stroke="#008CD6" stroke-width="0.5" x1="67.123" y1="16.72" x2="67.123" y2="27.72"/>
	<polyline fill="none" stroke="#008CD6" stroke-width="0.5" points="69.112,24.276 67.123,27.72 65.134,24.276 	"/>
</g>
<g>
	<line fill="none" stroke="#008CD6" stroke-width="0.5" x1="3.79" y1="16.72" x2="3.79" y2="27.72"/>
	<polyline fill="none" stroke="#008CD6" stroke-width="0.5" points="5.779,24.276 3.79,27.72 1.801,24.276 	"/>
</g>
<g>
	<line fill="#86B2DF" stroke="#86B2DF" stroke-width="3" x1="35.416" y1="94.009" x2="35.416" y2="81.423"/>
	<polygon fill="#86B2DF" stroke="#86B2DF" points="40.97,85.636 35.416,83.277 29.859,85.636 35.416,72.47 	"/>
</g>
</svg>
