<?xml version="1.0" encoding="utf-8"?>
<!-- Generator: Adobe Illustrator 12.0.0, SVG Export Plug-In . SVG Version: 6.00 Build 51448)  -->
<!DOCTYPE svg PUBLIC "-//W3C//DTD SVG 1.1//EN" "http://www.w3.org/Graphics/SVG/1.1/DTD/svg11.dtd" [
	<!ENTITY ns_svg "http://www.w3.org/2000/svg">
	<!ENTITY ns_xlink "http://www.w3.org/1999/xlink">
]>
<svg  version="1.1" id="レイヤー_1" xmlns="&ns_svg;" xmlns:xlink="&ns_xlink;" width="65.692" height="165.848"
	 viewBox="0 0 65.692 165.848" overflow="visible" enable-background="new 0 0 65.692 165.848" xml:space="preserve">
<g>
	<path d="M16.915,24.136c0.546-0.434,0.756-0.686,1.029-1.246c-0.322-0.098-0.574-0.266-0.813-0.539
		c-0.308-0.371-0.476-0.924-0.476-1.582c0-0.049,0-0.133,0.007-0.259c-0.56,0.623-0.917,1.386-0.917,1.946c0,0.049,0,0.091,0,0.126
		c0.007,0.049,0.007,0.091,0.007,0.112c0,0.112-0.077,0.196-0.175,0.196c-0.238,0-0.413-0.588-0.413-1.414
		c0-0.357,0.021-0.672,0.084-1.176c0.035-0.322,0.042-0.42,0.042-0.553c0-0.231-0.098-0.462-0.266-0.637
		c0.146,0,0.23,0.042,0.406,0.182c0.224,0.196,0.378,0.427,0.378,0.581c0,0.07-0.008,0.098-0.084,0.259
		c-0.154,0.336-0.267,0.903-0.267,1.365c0,0.126,0.007,0.203,0.035,0.371c0.413-0.819,0.651-1.162,1.183-1.673
		c0.092-0.714,0.231-1.113,0.497-1.442c0.154-0.196,0.364-0.301,0.588-0.301c0.196,0,0.421,0.098,0.561,0.245
		c0.161,0.168,0.238,0.308,0.35,0.63c0.042,0,0.084,0,0.099,0c0.392,0,0.763,0.119,1.092,0.35c0.448,0.308,0.693,0.805,0.693,1.372
		c0,1.085-0.875,1.925-2.01,1.925c-0.049,0-0.111,0-0.217-0.007c-0.427,0.651-0.777,0.98-1.351,1.253L16.915,24.136z M16.873,20.272
		c-0.007,0.168-0.014,0.266-0.014,0.343c0,0.651,0.203,1.232,0.546,1.547c0.21,0.196,0.392,0.301,0.679,0.385
		c0.189-0.609,0.28-1.288,0.28-2.1c0-0.399-0.014-0.623-0.07-0.91C17.699,19.663,17.308,19.866,16.873,20.272z M18.267,19.369
		c-0.126-0.532-0.294-0.756-0.567-0.756c-0.392,0-0.679,0.49-0.805,1.393C17.342,19.663,17.741,19.474,18.267,19.369z
		 M18.848,20.671c0,0.756-0.112,1.358-0.351,1.932c0.924,0,1.582-0.693,1.582-1.659c0-0.553-0.21-1.001-0.588-1.246
		c-0.231-0.147-0.434-0.21-0.777-0.217C18.813,19.971,18.848,20.272,18.848,20.671z"/>
	<path d="M16.937,38.234c0.497-0.308,0.805-0.581,1.112-0.98c0.49-0.651,0.735-1.442,0.735-2.359c0-0.609-0.104-1.183-0.259-1.442
		c-0.126-0.203-0.294-0.308-0.497-0.308c-0.351,0-0.672,0.301-0.924,0.875c-0.203,0.455-0.329,1.029-0.329,1.505
		c0,0.119,0.007,0.196,0.027,0.434c0.008,0.042,0.008,0.098,0.008,0.147c0,0.133-0.063,0.21-0.183,0.21
		c-0.266,0-0.44-0.567-0.44-1.435c0-0.581,0.042-0.945,0.224-1.876c0.056-0.28,0.077-0.413,0.077-0.511
		c0-0.224-0.098-0.357-0.378-0.497c0.056-0.021,0.098-0.035,0.126-0.035c0.146,0,0.371,0.091,0.56,0.231
		c0.196,0.14,0.273,0.252,0.273,0.392c0,0.091-0.014,0.133-0.098,0.266c-0.267,0.441-0.505,1.435-0.505,2.086
		c0,0.063,0,0.133,0.008,0.259h0.014c0.21-0.896,0.469-1.477,0.812-1.834c0.26-0.28,0.539-0.413,0.854-0.413
		c0.672,0,1.147,0.826,1.147,1.995c0,0.91-0.252,1.666-0.763,2.289c-0.413,0.511-0.882,0.84-1.547,1.106L16.937,38.234z"/>
	<path d="M17.377,66.024c0.512-0.413,0.742-0.644,0.994-0.994s0.42-0.679,0.623-1.211c-0.609-0.322-1.211-0.476-2.009-0.511
		c-0.427,0.777-0.609,1.071-0.847,1.386c-0.26,0.322-0.477,0.483-0.673,0.483c-0.294,0-0.539-0.336-0.539-0.742
		c0-0.357,0.176-0.714,0.477-0.966c0.308-0.259,0.77-0.42,1.33-0.462c0.098-0.168,0.111-0.217,0.497-1.099
		c0.224-0.532,0.252-0.609,0.363-0.987c-0.168,0.042-0.65,0.196-1.008,0.322c-0.111,0.035-0.168,0.049-0.23,0.049
		c-0.217,0-0.441-0.343-0.441-0.679c0-0.07,0.014-0.105,0.077-0.161c0.14,0.322,0.266,0.427,0.525,0.427
		c0.182,0,0.398-0.035,0.741-0.119c0.183-0.049,0.21-0.063,0.309-0.147c0.042-0.049,0.084-0.063,0.146-0.063
		c0.154,0,0.504,0.371,0.504,0.546c0,0.056-0.027,0.105-0.104,0.161c-0.161,0.133-0.224,0.231-0.707,1.19
		c-0.189,0.378-0.217,0.434-0.287,0.567c0.707,0.035,1.316,0.154,2.009,0.399c0.119-0.364,0.231-0.903,0.231-1.127
		c0-0.189-0.099-0.315-0.364-0.483c0.049-0.035,0.077-0.042,0.126-0.042c0.119,0,0.28,0.056,0.49,0.161
		c0.224,0.112,0.329,0.224,0.329,0.35c0,0.07-0.007,0.105-0.063,0.245c-0.021,0.049-0.063,0.196-0.168,0.525
		c-0.035,0.126-0.063,0.21-0.161,0.532c0.84,0.42,1.064,0.623,1.064,0.994c0,0.14-0.07,0.252-0.161,0.252
		c-0.063,0-0.112-0.035-0.238-0.147c-0.224-0.224-0.455-0.406-0.833-0.658c-0.308,0.672-0.524,1.008-0.896,1.365
		c-0.315,0.301-0.603,0.504-1.05,0.721L17.377,66.024z M15.229,64.267c0,0.259,0.146,0.504,0.301,0.504
		c0.23,0,0.525-0.406,1.063-1.47C15.697,63.399,15.229,63.728,15.229,64.267z"/>
	<path d="M16.433,87.703c-0.126,0.441-0.322,1.204-0.406,1.547c-0.07,0.308-0.091,0.42-0.091,0.595
		c-0.008,0.224-0.015,0.252-0.05,0.308c-0.034,0.049-0.076,0.077-0.133,0.077c-0.119,0-0.217-0.098-0.301-0.315
		c-0.14-0.357-0.224-0.889-0.224-1.407c0-0.644,0.077-1.232,0.314-2.331c0.091-0.434,0.105-0.511,0.105-0.63
		c0-0.21-0.057-0.378-0.203-0.616c0.161,0.007,0.294,0.098,0.49,0.35c0.161,0.203,0.252,0.399,0.252,0.532
		c0,0.077,0,0.077-0.112,0.308c-0.336,0.7-0.532,1.533-0.532,2.282c0,0.357,0.028,0.581,0.112,0.868l0.294-0.7l0.378-0.903
		L16.433,87.703z M17.132,86.437c0.336,0.217,0.554,0.287,0.903,0.287c0.245,0,0.511-0.035,0.798-0.098c0-0.133,0-0.245,0-0.308
		c0-0.784-0.007-0.875-0.098-0.973c-0.084-0.091-0.238-0.14-0.462-0.161c0.098-0.091,0.153-0.112,0.336-0.112
		c0.154,0,0.343,0.028,0.476,0.063c0.203,0.063,0.309,0.147,0.309,0.252c0,0.049,0,0.056-0.063,0.217
		c-0.077,0.203-0.119,0.455-0.146,0.938c0.321-0.091,0.524-0.182,0.644-0.287c0.07-0.07,0.091-0.077,0.154-0.077
		c0.084,0,0.245,0.042,0.329,0.091c0.056,0.028,0.091,0.077,0.091,0.126c0,0.154-0.511,0.364-1.239,0.504
		c0,0.931,0.021,1.316,0.091,1.904c0.813,0.217,1.155,0.49,1.155,0.896c0,0.147-0.063,0.259-0.14,0.259
		c-0.057,0-0.105-0.035-0.245-0.175c-0.309-0.315-0.483-0.441-0.756-0.56c0.007,0.063,0.007,0.119,0.007,0.168
		c0,0.504-0.42,0.805-1.12,0.805c-0.609,0-1.036-0.294-1.036-0.714c0-0.483,0.518-0.791,1.316-0.791c0.133,0,0.23,0.007,0.427,0.021
		c0-0.063,0-0.105,0-0.119l-0.014-0.749l-0.008-0.896c-0.21,0.042-0.413,0.056-0.615,0.056c-0.512,0-0.806-0.126-1.155-0.49
		L17.132,86.437z M18.203,88.991c-0.553,0-0.896,0.182-0.896,0.49c0,0.245,0.272,0.413,0.686,0.413c0.385,0,0.658-0.112,0.771-0.329
		c0.069-0.126,0.091-0.231,0.091-0.49C18.658,89.02,18.462,88.991,18.203,88.991z"/>
	<path d="M15.096,92.876c0.336,0.315,0.531,0.406,0.882,0.406c0.182,0,0.371-0.028,0.637-0.084c0.175-0.455,0.252-0.749,0.252-0.994
		c0-0.231-0.112-0.371-0.448-0.539c0.077-0.042,0.112-0.049,0.168-0.049c0.141,0,0.357,0.063,0.561,0.161
		c0.237,0.119,0.329,0.196,0.329,0.294c0,0.056-0.015,0.098-0.07,0.182c-0.028,0.056-0.175,0.343-0.427,0.861
		c0.518-0.182,0.581-0.217,0.776-0.385c0.057-0.049,0.077-0.056,0.147-0.056c0.272,0,0.476,0.091,0.476,0.21
		c0,0.182-0.434,0.357-1.547,0.616c-0.063,0.14-0.182,0.427-0.371,0.847c-0.21,0.483-0.749,1.659-0.812,1.778
		c-0.105,0.189-0.168,0.252-0.252,0.252c-0.119,0-0.217-0.217-0.217-0.497c0-0.14,0.014-0.182,0.076-0.252
		c0.154-0.168,0.238-0.273,0.336-0.42c0.344-0.511,0.596-0.987,0.875-1.645c-0.153,0.021-0.217,0.028-0.328,0.028
		c-0.253,0-0.441-0.042-0.616-0.147c-0.21-0.119-0.371-0.287-0.512-0.511L15.096,92.876z M18.798,93.269
		c0.483,0.042,0.875,0.168,1.197,0.385c0.273,0.175,0.441,0.385,0.441,0.546c0,0.119-0.07,0.203-0.183,0.203
		c-0.056,0-0.098-0.014-0.161-0.056c-0.195-0.119-0.328-0.147-0.686-0.147c-0.56,0-0.735,0.154-0.735,0.637
		c0,0.189,0.035,0.49,0.141,1.204c0.427,0.126,0.791,0.294,0.994,0.455c0.188,0.147,0.279,0.329,0.279,0.553
		c0,0.14-0.056,0.238-0.14,0.238c-0.07,0-0.098-0.021-0.245-0.182c-0.252-0.273-0.483-0.441-0.847-0.616c0,0.056,0,0.105,0,0.133
		c0,0.28-0.057,0.441-0.196,0.595c-0.189,0.189-0.518,0.301-0.91,0.301c-0.63,0-1.063-0.301-1.063-0.742
		c0-0.49,0.531-0.833,1.309-0.833c0.161,0,0.238,0.007,0.42,0.035c-0.021-0.553-0.021-0.609-0.021-0.693
		c0-0.574,0.056-0.791,0.244-1.001c0.141-0.147,0.337-0.245,0.665-0.329c0.105-0.028,0.119-0.035,0.379-0.091
		c-0.189-0.203-0.406-0.315-0.903-0.483L18.798,93.269z M18.42,96.334c-0.217-0.063-0.378-0.084-0.602-0.084
		c-0.595,0-0.959,0.203-0.959,0.532c0,0.259,0.266,0.413,0.7,0.413c0.566,0,0.86-0.231,0.86-0.672V96.334z"/>
	<path d="M7.745,15.925c-0.979,1.778-1.063,1.904-1.582,2.702h4.271c0.252-0.294,0.336-0.378,0.588-0.658
		c0.405,0.322,0.531,0.42,0.938,0.756c0.042,0.042,0.07,0.084,0.07,0.126c0,0.084-0.056,0.126-0.49,0.336
		c0.014,5.74,0.014,5.74,0.098,7.896c-0.014,0.21-0.168,0.266-0.741,0.266c-0.238,0-0.294-0.028-0.322-0.196v-0.812H3.77v0.756
		c-0.015,0.168-0.042,0.224-0.183,0.266c-0.153,0.042-0.336,0.056-0.546,0.056c-0.196,0-0.266-0.056-0.266-0.196
		c0-0.014,0-0.042,0-0.056c0.027-2.044,0.042-3.78,0.042-6.188c0-0.854,0-0.938-0.028-2.142c-0.014-0.476-0.014-0.476-0.014-0.868
		c0.504,0.28,0.658,0.364,1.134,0.658h1.876c0.056-0.196,0.056-0.196,0.168-0.574c0.196-0.658,0.308-1.148,0.476-2.128H2.621
		c-0.588,0-1.246,0.028-1.694,0.07l-0.084-0.574c0.658,0.126,1.204,0.182,1.778,0.182h8.666c0.35-0.476,0.448-0.616,0.826-1.078
		c0.658,0.504,0.854,0.672,1.512,1.204c0.042,0.042,0.07,0.084,0.07,0.112c0,0.056-0.057,0.084-0.154,0.084H7.745z M10.573,18.949
		H3.77v3.164h6.804V18.949z M3.77,22.435v3.584h6.804v-3.584H3.77z"/>
	<path d="M0.661,35.525c1.554-1.078,2.688-2.156,3.948-3.738c0.658-0.826,1.26-1.736,1.54-2.31c0.098-0.21,0.153-0.364,0.252-0.686
		c0.322,0.056,0.56,0.112,0.714,0.14c0.77,0.154,0.938,0.21,0.938,0.336c0,0.112-0.168,0.196-0.546,0.266
		c0.687,1.148,1.624,2.128,2.885,3.038c1.189,0.854,2.323,1.386,3.626,1.736l-0.028,0.196c-0.588,0.07-0.813,0.266-1.106,0.924
		c-1.302-0.672-2.058-1.218-3.08-2.282c-1.035-1.05-1.498-1.694-2.506-3.472c-0.994,1.582-1.876,2.632-3.164,3.794
		c-1.119,0.994-2.029,1.624-3.317,2.268L0.661,35.525z M4.119,41.041c0,0.126-0.014,0.168-0.084,0.196
		c-0.126,0.042-0.448,0.084-0.728,0.084c-0.154,0-0.196-0.042-0.196-0.196c0.028-2.184,0.042-2.87,0.042-3.444
		c0-1.106-0.014-1.624-0.042-2.156c0.518,0.294,0.672,0.392,1.12,0.714h5.655c0.225-0.308,0.309-0.406,0.574-0.714
		c0.393,0.294,0.519,0.392,0.896,0.714c0.111,0.098,0.14,0.14,0.14,0.196c0,0.084-0.126,0.182-0.462,0.294
		c0,2.044,0,2.044,0.056,4.214c0,0.028,0,0.042,0,0.056c0,0.112-0.027,0.154-0.126,0.182c-0.098,0.042-0.56,0.098-0.714,0.098
		c-0.14,0-0.21-0.056-0.21-0.168c0-0.014,0-0.042,0-0.07v-0.588H4.119V41.041z M4.105,33.747c0.405,0.07,0.742,0.112,1.036,0.112
		h2.926c0.322-0.35,0.42-0.476,0.742-0.84c0.504,0.392,0.672,0.504,1.176,0.924c0.069,0.07,0.112,0.126,0.112,0.168
		c0,0.056-0.028,0.07-0.183,0.07H5.142c-0.267,0-0.477,0.014-0.925,0.084L4.105,33.747z M4.119,40.131h5.922v-3.57H4.119V40.131z"/>
	<path d="M7.087,54.159c1.513-0.448,2.479-1.022,3.276-1.946c0.826-0.938,1.246-2.086,1.246-3.374c0-1.358-0.546-2.436-1.582-3.094
		c-0.616-0.406-1.54-0.644-2.422-0.644c-0.168,0-0.267,0-0.49,0.028c0.336,0.49,0.434,0.756,0.434,1.162
		c0,1.092-0.783,3.136-1.848,4.844c-0.882,1.4-1.568,2.086-2.086,2.086c-0.238,0-0.462-0.112-0.616-0.294
		c-0.126-0.168-0.154-0.224-0.392-0.896c-0.126-0.364-0.21-0.532-0.616-1.316c-0.224-0.448-0.322-0.826-0.322-1.274
		c0-0.882,0.477-1.918,1.261-2.772c1.134-1.204,2.981-1.96,4.815-1.96c1.414,0,2.716,0.462,3.612,1.288
		c0.896,0.826,1.344,1.932,1.344,3.29c0,1.75-1.022,3.304-2.786,4.242c-0.812,0.434-1.54,0.658-2.729,0.868L7.087,54.159z
		 M2.481,49.805c0,0.672,0.21,1.358,0.56,1.848c0.196,0.252,0.378,0.406,0.532,0.406c0.308,0,0.979-0.756,1.666-1.848
		c1.036-1.652,1.778-3.458,1.778-4.326c0-0.21-0.042-0.35-0.196-0.7C4.385,45.619,2.481,47.649,2.481,49.805z"/>
	<path d="M3.825,61.313c-0.238,0-0.35,0-1.246,0.07l-0.14-0.49c0.308,0.042,0.308,0.042,1.372,0.098h2.771c0-0.182,0-0.182,0-0.686
		c0-0.392-0.014-0.588-0.056-0.994c1.512,0.168,1.512,0.168,1.512,0.294c0,0.056-0.028,0.112-0.14,0.182
		c0,0-0.057,0.028-0.168,0.098c-0.042,0.028-0.084,0.056-0.126,0.084c0,0.602,0,0.602-0.015,1.022h2.464l0.729-0.868
		c0.532,0.42,0.7,0.56,1.232,0.994c0.042,0.042,0.056,0.07,0.056,0.098c0,0.056-0.056,0.098-0.126,0.098H7.577
		c-0.014,0.574-0.028,0.868-0.07,1.498h2.479l0.756-0.91c0.546,0.448,0.714,0.588,1.274,1.078c0.014,0.014,0.027,0.042,0.027,0.056
		c0,0.042-0.056,0.098-0.126,0.098H7.479c-0.057,0.644-0.112,0.994-0.225,1.554h3.626c0.378-0.448,0.49-0.588,0.896-0.98
		c0.588,0.448,0.77,0.602,1.357,1.106c0.057,0.056,0.084,0.098,0.084,0.126c0,0.042-0.042,0.07-0.084,0.07H7.381
		c0.561,0.798,1.148,1.33,2.156,1.904c1.106,0.644,2.437,0.98,4.229,1.106v0.154c-0.505,0.182-0.742,0.476-0.896,1.092
		c-1.652-0.378-2.898-1.008-4.032-2.044c-0.798-0.714-1.246-1.246-1.722-2.058c-0.294,0.868-0.756,1.526-1.498,2.156
		c-1.26,1.078-2.66,1.68-4.858,2.1l-0.056-0.182c1.61-0.504,2.702-1.078,3.752-1.932c0.896-0.756,1.4-1.428,1.68-2.296h-3.43
		c-0.63,0-0.84,0.014-1.33,0.098l-0.14-0.532c0.434,0.056,1.078,0.112,1.47,0.112h3.528c0.14-0.56,0.182-0.868,0.237-1.554H3.896
		c-0.309,0-0.574,0.014-1.219,0.07l-0.168-0.504c0.294,0.042,1.19,0.112,1.372,0.112h2.618c0.042-0.63,0.057-0.84,0.07-1.498H3.825z
		 M11.623,58.527l0.645-0.728c0.531,0.35,0.686,0.462,1.218,0.798c0.126,0.112,0.21,0.196,0.21,0.266
		c0,0.042-0.028,0.084-0.07,0.112c-0.056,0.028-0.196,0.07-0.364,0.112c-0.321,0.084-0.489,0.126-0.518,0.14
		c-0.546,0.476-0.812,0.7-1.4,1.162l-0.168-0.098c0.309-0.574,0.42-0.84,0.63-1.442h-9.17c-0.098,1.036-0.686,2.128-1.134,2.128
		c-0.21,0-0.448-0.434-0.448-0.798c0-0.168,0.07-0.28,0.322-0.462c0.63-0.462,0.813-0.784,1.064-1.918h0.237
		c0,0.518,0,0.518-0.014,0.728h3.92v-0.882c0-0.322-0.014-0.518-0.042-0.952c0.588,0.056,1.232,0.14,1.442,0.196
		c0.14,0.028,0.195,0.07,0.195,0.126c0,0.098-0.014,0.112-0.588,0.406v1.106H11.623z"/>
	<path d="M5.142,71.365c0.42,0,1.077,0.126,1.414,0.266c0.279,0.112,0.392,0.252,0.392,0.448c0,0.014,0,0.028,0,0.028
		c0,0.112-0.014,0.112-0.112,0.364c-0.168,0.476-0.308,1.68-0.308,2.842c0,0.826,0.112,1.036,0.546,1.036
		c0.294,0,0.602-0.112,1.876-0.714c0.252-0.126,0.406-0.168,0.574-0.168c0.336,0,0.672,0.294,0.672,0.588
		c0,0.182-0.098,0.336-0.294,0.42c-0.099,0.042-0.294,0.112-0.938,0.294c-1.693,0.476-2.618,0.896-3.5,1.568
		c-0.756,0.588-1.092,1.134-1.092,1.792c0,1.008,0.798,1.526,2.353,1.526c0.867,0,2.239-0.168,3.247-0.406
		c0.141-0.028,0.196-0.042,0.28-0.042c0.364,0,0.756,0.35,0.756,0.686c0,0.252-0.153,0.378-0.602,0.462s-1.848,0.182-2.688,0.182
		c-1.021,0-1.792-0.112-2.38-0.322c-0.938-0.35-1.525-1.148-1.525-2.072c0-0.812,0.447-1.582,1.372-2.352
		c0.42-0.364,0.882-0.672,1.708-1.12c-0.309,0-0.435-0.042-0.673-0.21c-0.21-0.154-0.336-0.462-0.405-1.064
		c-0.042-0.336-0.057-0.644-0.099-1.694c-0.042-1.19-0.056-1.4-0.168-1.61c-0.153-0.266-0.42-0.406-1.008-0.504
		C4.749,71.407,4.861,71.365,5.142,71.365z"/>
	<path d="M0.787,93.639c1.05-1.134,1.694-1.974,2.282-2.94c0.546-0.924,0.938-1.764,1.134-2.436c0.504,0.168,1.246,0.434,1.4,0.504
		c0.056,0.028,0.111,0.084,0.111,0.126c0,0.112-0.195,0.182-0.56,0.182c-0.014,0-0.056,0-0.098-0.014
		c-0.505,0.812-0.742,1.148-1.246,1.792c0.882,0.168,1.078,0.238,1.078,0.35c0,0.126-0.112,0.182-0.547,0.294v2.31
		c0,1.036,0,1.036,0,3.332c-0.042,0.168-0.126,0.196-0.518,0.21c-0.112,0-0.182,0.014-0.224,0.014c-0.028,0-0.042,0-0.042,0
		c-0.154,0-0.225-0.056-0.225-0.182c0.057-2.898,0.057-2.898,0.057-3.374v-2.408c-0.952,1.162-1.513,1.68-2.479,2.408L0.787,93.639z
		 M8.417,86.443v-0.882c0-0.392,0-0.476-0.027-0.826c1.497,0.21,1.497,0.21,1.497,0.336s-0.168,0.21-0.56,0.294
		c0,0.434,0,0.798,0,1.078h1.862c0.392-0.434,0.531-0.574,0.91-0.994c0.588,0.476,0.77,0.63,1.344,1.134
		c0.027,0.028,0.042,0.056,0.042,0.084c0,0.056-0.07,0.098-0.126,0.098H9.327c0,0.742,0,0.742,0.014,1.274
		c-0.014,0.098-0.042,0.154-0.098,0.182c-0.112,0.042-0.364,0.07-0.602,0.07c-0.168,0-0.225-0.042-0.238-0.182
		c0.014-0.602,0.014-0.602,0.014-1.344H5.604c0,0.784,0,0.784,0,1.274c-0.028,0.154-0.112,0.182-0.477,0.196
		c-0.069,0-0.14,0.014-0.195,0.014c-0.015,0-0.028,0-0.028,0c-0.154,0-0.224-0.056-0.238-0.182c0.028-0.518,0.028-0.518,0.028-1.302
		H2.229c-0.448,0-0.84,0.042-1.177,0.112l-0.084-0.574c0.574,0.112,0.784,0.14,1.261,0.14h2.464c0-0.112,0-0.14,0-0.21
		c0-0.616-0.014-1.204-0.042-1.526c1.525,0.182,1.525,0.182,1.525,0.322c0,0.126-0.042,0.14-0.573,0.336v1.078H8.417z M8.291,92.715
		c0.561-0.42,0.924-0.742,1.512-1.358c0.925-0.966,1.4-1.582,1.723-2.212c1.33,0.756,1.344,0.77,1.344,0.882
		c0,0.07-0.112,0.14-0.238,0.14s-0.252-0.014-0.405-0.028c-1.345,1.288-2.604,2.212-3.935,2.898v2.996
		c0,0.07,0.084,0.112,0.225,0.126c0.195,0.028,1.582,0.07,1.932,0.07c0.476,0,1.218-0.042,1.344-0.084
		c0.154-0.042,0.196-0.112,0.351-0.518c0.224-0.602,0.405-1.19,0.714-2.324h0.182l-0.182,2.24c-0.015,0.224-0.015,0.336-0.015,0.35
		c0,0.098,0.028,0.126,0.225,0.196c0.224,0.084,0.308,0.182,0.308,0.35c0,0.238-0.168,0.392-0.546,0.476
		c-0.308,0.056-1.414,0.112-2.534,0.112c-1.722,0-2.268-0.042-2.576-0.21c-0.266-0.14-0.363-0.35-0.378-0.798
		c0.015-2.296,0.015-2.296,0.015-2.604v-3.584c0-0.42-0.028-1.05-0.07-1.414c1.428,0.21,1.568,0.238,1.568,0.35
		c0,0.126-0.196,0.224-0.561,0.308V92.715z"/>
</g>
<g>
	<g>
		<path d="M43.584,24.136c0.546-0.434,0.756-0.686,1.029-1.246c-0.322-0.098-0.574-0.266-0.813-0.539
			c-0.308-0.371-0.476-0.924-0.476-1.582c0-0.049,0-0.133,0.007-0.259c-0.56,0.623-0.917,1.386-0.917,1.946c0,0.049,0,0.091,0,0.126
			c0.007,0.049,0.007,0.091,0.007,0.112c0,0.112-0.077,0.196-0.175,0.196c-0.238,0-0.413-0.588-0.413-1.414
			c0-0.357,0.021-0.672,0.084-1.176c0.035-0.322,0.042-0.42,0.042-0.553c0-0.231-0.098-0.462-0.266-0.637
			c0.146,0,0.23,0.042,0.406,0.182c0.224,0.196,0.378,0.427,0.378,0.581c0,0.07-0.008,0.098-0.084,0.259
			c-0.154,0.336-0.267,0.903-0.267,1.365c0,0.126,0.007,0.203,0.035,0.371c0.413-0.819,0.651-1.162,1.183-1.673
			c0.092-0.714,0.231-1.113,0.497-1.442c0.154-0.196,0.364-0.301,0.588-0.301c0.196,0,0.421,0.098,0.561,0.245
			c0.161,0.168,0.238,0.308,0.35,0.63c0.042,0,0.084,0,0.099,0c0.392,0,0.763,0.119,1.092,0.35c0.448,0.308,0.693,0.805,0.693,1.372
			c0,1.085-0.875,1.925-2.01,1.925c-0.049,0-0.111,0-0.217-0.007c-0.427,0.651-0.777,0.98-1.351,1.253L43.584,24.136z
			 M43.542,20.272c-0.007,0.168-0.014,0.266-0.014,0.343c0,0.651,0.203,1.232,0.546,1.547c0.21,0.196,0.392,0.301,0.679,0.385
			c0.189-0.609,0.28-1.288,0.28-2.1c0-0.399-0.014-0.623-0.07-0.91C44.369,19.663,43.977,19.866,43.542,20.272z M44.936,19.369
			c-0.126-0.532-0.294-0.756-0.567-0.756c-0.392,0-0.679,0.49-0.805,1.393C44.011,19.663,44.411,19.474,44.936,19.369z
			 M45.517,20.671c0,0.756-0.112,1.358-0.351,1.932c0.924,0,1.582-0.693,1.582-1.659c0-0.553-0.21-1.001-0.588-1.246
			c-0.231-0.147-0.434-0.21-0.777-0.217C45.482,19.971,45.517,20.272,45.517,20.671z"/>
		<path d="M43.606,38.234c0.497-0.308,0.805-0.581,1.112-0.98c0.49-0.651,0.735-1.442,0.735-2.359c0-0.609-0.104-1.183-0.259-1.442
			c-0.126-0.203-0.294-0.308-0.497-0.308c-0.351,0-0.672,0.301-0.924,0.875c-0.203,0.455-0.329,1.029-0.329,1.505
			c0,0.119,0.007,0.196,0.027,0.434c0.008,0.042,0.008,0.098,0.008,0.147c0,0.133-0.063,0.21-0.183,0.21
			c-0.266,0-0.44-0.567-0.44-1.435c0-0.581,0.042-0.945,0.224-1.876c0.056-0.28,0.077-0.413,0.077-0.511
			c0-0.224-0.098-0.357-0.378-0.497c0.056-0.021,0.098-0.035,0.126-0.035c0.146,0,0.371,0.091,0.56,0.231
			c0.196,0.14,0.273,0.252,0.273,0.392c0,0.091-0.014,0.133-0.098,0.266c-0.267,0.441-0.505,1.435-0.505,2.086
			c0,0.063,0,0.133,0.008,0.259h0.014c0.21-0.896,0.469-1.477,0.812-1.834c0.26-0.28,0.539-0.413,0.854-0.413
			c0.672,0,1.147,0.826,1.147,1.995c0,0.91-0.252,1.666-0.763,2.289c-0.413,0.511-0.882,0.84-1.547,1.106L43.606,38.234z"/>
		<path d="M44.046,66.024c0.512-0.413,0.742-0.644,0.994-0.994s0.42-0.679,0.623-1.211c-0.609-0.322-1.211-0.476-2.009-0.511
			c-0.427,0.777-0.609,1.071-0.847,1.386c-0.26,0.322-0.477,0.483-0.673,0.483c-0.294,0-0.539-0.336-0.539-0.742
			c0-0.357,0.176-0.714,0.477-0.966c0.308-0.259,0.77-0.42,1.33-0.462c0.098-0.168,0.111-0.217,0.497-1.099
			c0.224-0.532,0.252-0.609,0.363-0.987c-0.168,0.042-0.65,0.196-1.008,0.322c-0.111,0.035-0.168,0.049-0.23,0.049
			c-0.217,0-0.441-0.343-0.441-0.679c0-0.07,0.014-0.105,0.077-0.161c0.14,0.322,0.266,0.427,0.525,0.427
			c0.182,0,0.398-0.035,0.741-0.119c0.183-0.049,0.21-0.063,0.309-0.147c0.042-0.049,0.084-0.063,0.146-0.063
			c0.154,0,0.504,0.371,0.504,0.546c0,0.056-0.027,0.105-0.104,0.161c-0.161,0.133-0.224,0.231-0.707,1.19
			c-0.189,0.378-0.217,0.434-0.287,0.567c0.707,0.035,1.316,0.154,2.009,0.399c0.119-0.364,0.231-0.903,0.231-1.127
			c0-0.189-0.099-0.315-0.364-0.483c0.049-0.035,0.077-0.042,0.126-0.042c0.119,0,0.28,0.056,0.49,0.161
			c0.224,0.112,0.329,0.224,0.329,0.35c0,0.07-0.007,0.105-0.063,0.245c-0.021,0.049-0.063,0.196-0.168,0.525
			c-0.035,0.126-0.063,0.21-0.161,0.532c0.84,0.42,1.064,0.623,1.064,0.994c0,0.14-0.07,0.252-0.161,0.252
			c-0.063,0-0.112-0.035-0.238-0.147c-0.224-0.224-0.455-0.406-0.833-0.658c-0.308,0.672-0.524,1.008-0.896,1.365
			c-0.315,0.301-0.603,0.504-1.05,0.721L44.046,66.024z M41.898,64.267c0,0.259,0.146,0.504,0.301,0.504
			c0.23,0,0.525-0.406,1.063-1.47C42.367,63.399,41.898,63.728,41.898,64.267z"/>
		<path d="M43.102,87.703c-0.126,0.441-0.322,1.204-0.406,1.547c-0.07,0.308-0.091,0.42-0.091,0.595
			c-0.008,0.224-0.015,0.252-0.05,0.308c-0.034,0.049-0.076,0.077-0.133,0.077c-0.119,0-0.217-0.098-0.301-0.315
			c-0.14-0.357-0.224-0.889-0.224-1.407c0-0.644,0.077-1.232,0.314-2.331c0.091-0.434,0.105-0.511,0.105-0.63
			c0-0.21-0.057-0.378-0.203-0.616c0.161,0.007,0.294,0.098,0.49,0.35c0.161,0.203,0.252,0.399,0.252,0.532
			c0,0.077,0,0.077-0.112,0.308c-0.336,0.7-0.532,1.533-0.532,2.282c0,0.357,0.028,0.581,0.112,0.868l0.294-0.7l0.378-0.903
			L43.102,87.703z M43.801,86.437c0.336,0.217,0.554,0.287,0.903,0.287c0.245,0,0.511-0.035,0.798-0.098c0-0.133,0-0.245,0-0.308
			c0-0.784-0.007-0.875-0.098-0.973c-0.084-0.091-0.238-0.14-0.462-0.161c0.098-0.091,0.153-0.112,0.336-0.112
			c0.154,0,0.343,0.028,0.476,0.063c0.203,0.063,0.309,0.147,0.309,0.252c0,0.049,0,0.056-0.063,0.217
			c-0.077,0.203-0.119,0.455-0.146,0.938c0.321-0.091,0.524-0.182,0.644-0.287c0.07-0.07,0.091-0.077,0.154-0.077
			c0.084,0,0.245,0.042,0.329,0.091c0.056,0.028,0.091,0.077,0.091,0.126c0,0.154-0.511,0.364-1.239,0.504
			c0,0.931,0.021,1.316,0.091,1.904c0.813,0.217,1.155,0.49,1.155,0.896c0,0.147-0.063,0.259-0.14,0.259
			c-0.057,0-0.105-0.035-0.245-0.175c-0.309-0.315-0.483-0.441-0.756-0.56c0.007,0.063,0.007,0.119,0.007,0.168
			c0,0.504-0.42,0.805-1.12,0.805c-0.609,0-1.036-0.294-1.036-0.714c0-0.483,0.518-0.791,1.316-0.791
			c0.133,0,0.23,0.007,0.427,0.021c0-0.063,0-0.105,0-0.119l-0.014-0.749l-0.008-0.896c-0.21,0.042-0.413,0.056-0.615,0.056
			c-0.512,0-0.806-0.126-1.155-0.49L43.801,86.437z M44.873,88.991c-0.553,0-0.896,0.182-0.896,0.49
			c0,0.245,0.272,0.413,0.686,0.413c0.385,0,0.658-0.112,0.771-0.329c0.069-0.126,0.091-0.231,0.091-0.49
			C45.328,89.02,45.131,88.991,44.873,88.991z"/>
		<path d="M41.765,92.876c0.336,0.315,0.531,0.406,0.882,0.406c0.182,0,0.371-0.028,0.637-0.084
			c0.175-0.455,0.252-0.749,0.252-0.994c0-0.231-0.112-0.371-0.448-0.539c0.077-0.042,0.112-0.049,0.168-0.049
			c0.141,0,0.357,0.063,0.561,0.161c0.237,0.119,0.329,0.196,0.329,0.294c0,0.056-0.015,0.098-0.07,0.182
			c-0.028,0.056-0.175,0.343-0.427,0.861c0.518-0.182,0.581-0.217,0.776-0.385c0.057-0.049,0.077-0.056,0.147-0.056
			c0.272,0,0.476,0.091,0.476,0.21c0,0.182-0.434,0.357-1.547,0.616c-0.063,0.14-0.182,0.427-0.371,0.847
			c-0.21,0.483-0.749,1.659-0.812,1.778c-0.105,0.189-0.168,0.252-0.252,0.252c-0.119,0-0.217-0.217-0.217-0.497
			c0-0.14,0.014-0.182,0.076-0.252c0.154-0.168,0.238-0.273,0.336-0.42c0.344-0.511,0.596-0.987,0.875-1.645
			c-0.153,0.021-0.217,0.028-0.328,0.028c-0.253,0-0.441-0.042-0.616-0.147c-0.21-0.119-0.371-0.287-0.512-0.511L41.765,92.876z
			 M45.467,93.269c0.483,0.042,0.875,0.168,1.197,0.385c0.273,0.175,0.441,0.385,0.441,0.546c0,0.119-0.07,0.203-0.183,0.203
			c-0.056,0-0.098-0.014-0.161-0.056c-0.195-0.119-0.328-0.147-0.686-0.147c-0.56,0-0.735,0.154-0.735,0.637
			c0,0.189,0.035,0.49,0.141,1.204c0.427,0.126,0.791,0.294,0.994,0.455c0.188,0.147,0.279,0.329,0.279,0.553
			c0,0.14-0.056,0.238-0.14,0.238c-0.07,0-0.098-0.021-0.245-0.182c-0.252-0.273-0.483-0.441-0.847-0.616c0,0.056,0,0.105,0,0.133
			c0,0.28-0.057,0.441-0.196,0.595c-0.189,0.189-0.518,0.301-0.91,0.301c-0.63,0-1.063-0.301-1.063-0.742
			c0-0.49,0.531-0.833,1.309-0.833c0.161,0,0.238,0.007,0.42,0.035c-0.021-0.553-0.021-0.609-0.021-0.693
			c0-0.574,0.056-0.791,0.244-1.001c0.141-0.147,0.337-0.245,0.665-0.329c0.105-0.028,0.119-0.035,0.379-0.091
			c-0.189-0.203-0.406-0.315-0.903-0.483L45.467,93.269z M45.089,96.334c-0.217-0.063-0.378-0.084-0.602-0.084
			c-0.595,0-0.959,0.203-0.959,0.532c0,0.259,0.266,0.413,0.7,0.413c0.566,0,0.86-0.231,0.86-0.672V96.334z"/>
		<path d="M34.415,15.925c-0.979,1.778-1.063,1.904-1.582,2.702h4.271c0.252-0.294,0.336-0.378,0.588-0.658
			c0.405,0.322,0.531,0.42,0.938,0.756c0.042,0.042,0.07,0.084,0.07,0.126c0,0.084-0.056,0.126-0.49,0.336
			c0.014,5.74,0.014,5.74,0.098,7.896c-0.014,0.21-0.168,0.266-0.741,0.266c-0.238,0-0.294-0.028-0.322-0.196v-0.812h-6.804v0.756
			c-0.015,0.168-0.042,0.224-0.183,0.266c-0.153,0.042-0.336,0.056-0.546,0.056c-0.196,0-0.266-0.056-0.266-0.196
			c0-0.014,0-0.042,0-0.056c0.027-2.044,0.042-3.78,0.042-6.188c0-0.854,0-0.938-0.028-2.142c-0.014-0.476-0.014-0.476-0.014-0.868
			c0.504,0.28,0.658,0.364,1.134,0.658h1.876c0.056-0.196,0.056-0.196,0.168-0.574c0.196-0.658,0.308-1.148,0.476-2.128h-3.808
			c-0.588,0-1.246,0.028-1.694,0.07l-0.084-0.574c0.658,0.126,1.204,0.182,1.778,0.182h8.666c0.35-0.476,0.448-0.616,0.826-1.078
			c0.658,0.504,0.854,0.672,1.512,1.204c0.042,0.042,0.07,0.084,0.07,0.112c0,0.056-0.057,0.084-0.154,0.084H34.415z M37.243,18.949
			h-6.804v3.164h6.804V18.949z M30.439,22.435v3.584h6.804v-3.584H30.439z"/>
		<path d="M27.331,35.525c1.554-1.078,2.688-2.156,3.948-3.738c0.658-0.826,1.26-1.736,1.54-2.31
			c0.098-0.21,0.153-0.364,0.252-0.686c0.322,0.056,0.56,0.112,0.714,0.14c0.77,0.154,0.938,0.21,0.938,0.336
			c0,0.112-0.168,0.196-0.546,0.266c0.687,1.148,1.624,2.128,2.885,3.038c1.189,0.854,2.323,1.386,3.626,1.736l-0.028,0.196
			c-0.588,0.07-0.813,0.266-1.106,0.924c-1.302-0.672-2.058-1.218-3.08-2.282c-1.035-1.05-1.498-1.694-2.506-3.472
			c-0.994,1.582-1.876,2.632-3.164,3.794c-1.119,0.994-2.029,1.624-3.317,2.268L27.331,35.525z M30.789,41.041
			c0,0.126-0.014,0.168-0.084,0.196c-0.126,0.042-0.448,0.084-0.728,0.084c-0.154,0-0.196-0.042-0.196-0.196
			c0.028-2.184,0.042-2.87,0.042-3.444c0-1.106-0.014-1.624-0.042-2.156c0.518,0.294,0.672,0.392,1.12,0.714h5.655
			c0.225-0.308,0.309-0.406,0.574-0.714c0.393,0.294,0.519,0.392,0.896,0.714c0.111,0.098,0.14,0.14,0.14,0.196
			c0,0.084-0.126,0.182-0.462,0.294c0,2.044,0,2.044,0.056,4.214c0,0.028,0,0.042,0,0.056c0,0.112-0.027,0.154-0.126,0.182
			c-0.098,0.042-0.56,0.098-0.714,0.098c-0.14,0-0.21-0.056-0.21-0.168c0-0.014,0-0.042,0-0.07v-0.588h-5.922V41.041z
			 M30.775,33.747c0.405,0.07,0.742,0.112,1.036,0.112h2.926c0.322-0.35,0.42-0.476,0.742-0.84c0.504,0.392,0.672,0.504,1.176,0.924
			c0.069,0.07,0.112,0.126,0.112,0.168c0,0.056-0.028,0.07-0.183,0.07h-4.773c-0.267,0-0.477,0.014-0.925,0.084L30.775,33.747z
			 M30.789,40.131h5.922v-3.57h-5.922V40.131z"/>
		<path d="M33.756,54.159c1.513-0.448,2.479-1.022,3.276-1.946c0.826-0.938,1.246-2.086,1.246-3.374
			c0-1.358-0.546-2.436-1.582-3.094c-0.616-0.406-1.54-0.644-2.422-0.644c-0.168,0-0.267,0-0.49,0.028
			c0.336,0.49,0.434,0.756,0.434,1.162c0,1.092-0.783,3.136-1.848,4.844c-0.882,1.4-1.568,2.086-2.086,2.086
			c-0.238,0-0.462-0.112-0.616-0.294c-0.126-0.168-0.154-0.224-0.392-0.896c-0.126-0.364-0.21-0.532-0.616-1.316
			c-0.224-0.448-0.322-0.826-0.322-1.274c0-0.882,0.477-1.918,1.261-2.772c1.134-1.204,2.981-1.96,4.815-1.96
			c1.414,0,2.716,0.462,3.612,1.288c0.896,0.826,1.344,1.932,1.344,3.29c0,1.75-1.022,3.304-2.786,4.242
			c-0.812,0.434-1.54,0.658-2.729,0.868L33.756,54.159z M29.151,49.805c0,0.672,0.21,1.358,0.56,1.848
			c0.196,0.252,0.378,0.406,0.532,0.406c0.308,0,0.979-0.756,1.666-1.848c1.036-1.652,1.778-3.458,1.778-4.326
			c0-0.21-0.042-0.35-0.196-0.7C31.054,45.619,29.151,47.649,29.151,49.805z"/>
		<path d="M30.495,61.313c-0.238,0-0.35,0-1.246,0.07l-0.14-0.49c0.308,0.042,0.308,0.042,1.372,0.098h2.771
			c0-0.182,0-0.182,0-0.686c0-0.392-0.014-0.588-0.056-0.994c1.512,0.168,1.512,0.168,1.512,0.294c0,0.056-0.028,0.112-0.14,0.182
			c0,0-0.057,0.028-0.168,0.098c-0.042,0.028-0.084,0.056-0.126,0.084c0,0.602,0,0.602-0.015,1.022h2.464l0.729-0.868
			c0.532,0.42,0.7,0.56,1.232,0.994c0.042,0.042,0.056,0.07,0.056,0.098c0,0.056-0.056,0.098-0.126,0.098h-4.368
			c-0.014,0.574-0.028,0.868-0.07,1.498h2.479l0.756-0.91c0.546,0.448,0.714,0.588,1.274,1.078c0.014,0.014,0.027,0.042,0.027,0.056
			c0,0.042-0.056,0.098-0.126,0.098h-4.438c-0.057,0.644-0.112,0.994-0.225,1.554h3.626c0.378-0.448,0.49-0.588,0.896-0.98
			c0.588,0.448,0.77,0.602,1.357,1.106c0.057,0.056,0.084,0.098,0.084,0.126c0,0.042-0.042,0.07-0.084,0.07H34.05
			c0.561,0.798,1.148,1.33,2.156,1.904c1.106,0.644,2.437,0.98,4.229,1.106v0.154c-0.505,0.182-0.742,0.476-0.896,1.092
			c-1.652-0.378-2.898-1.008-4.032-2.044c-0.798-0.714-1.246-1.246-1.722-2.058c-0.294,0.868-0.756,1.526-1.498,2.156
			c-1.26,1.078-2.66,1.68-4.858,2.1l-0.056-0.182c1.61-0.504,2.702-1.078,3.752-1.932c0.896-0.756,1.4-1.428,1.68-2.296h-3.43
			c-0.63,0-0.84,0.014-1.33,0.098l-0.14-0.532c0.434,0.056,1.078,0.112,1.47,0.112h3.528c0.14-0.56,0.182-0.868,0.237-1.554h-2.575
			c-0.309,0-0.574,0.014-1.219,0.07l-0.168-0.504c0.294,0.042,1.19,0.112,1.372,0.112h2.618c0.042-0.63,0.057-0.84,0.07-1.498
			H30.495z M38.292,58.527l0.645-0.728c0.531,0.35,0.686,0.462,1.218,0.798c0.126,0.112,0.21,0.196,0.21,0.266
			c0,0.042-0.028,0.084-0.07,0.112c-0.056,0.028-0.196,0.07-0.364,0.112c-0.321,0.084-0.489,0.126-0.518,0.14
			c-0.546,0.476-0.812,0.7-1.4,1.162l-0.168-0.098c0.309-0.574,0.42-0.84,0.63-1.442h-9.17c-0.098,1.036-0.686,2.128-1.134,2.128
			c-0.21,0-0.448-0.434-0.448-0.798c0-0.168,0.07-0.28,0.322-0.462c0.63-0.462,0.813-0.784,1.064-1.918h0.237
			c0,0.518,0,0.518-0.014,0.728h3.92v-0.882c0-0.322-0.014-0.518-0.042-0.952c0.588,0.056,1.232,0.14,1.442,0.196
			c0.14,0.028,0.195,0.07,0.195,0.126c0,0.098-0.014,0.112-0.588,0.406v1.106H38.292z"/>
		<path d="M31.811,71.365c0.42,0,1.077,0.126,1.414,0.266c0.279,0.112,0.392,0.252,0.392,0.448c0,0.014,0,0.028,0,0.028
			c0,0.112-0.014,0.112-0.112,0.364c-0.168,0.476-0.308,1.68-0.308,2.842c0,0.826,0.112,1.036,0.546,1.036
			c0.294,0,0.602-0.112,1.876-0.714c0.252-0.126,0.406-0.168,0.574-0.168c0.336,0,0.672,0.294,0.672,0.588
			c0,0.182-0.098,0.336-0.294,0.42c-0.099,0.042-0.294,0.112-0.938,0.294c-1.693,0.476-2.618,0.896-3.5,1.568
			c-0.756,0.588-1.092,1.134-1.092,1.792c0,1.008,0.798,1.526,2.353,1.526c0.867,0,2.239-0.168,3.247-0.406
			c0.141-0.028,0.196-0.042,0.28-0.042c0.364,0,0.756,0.35,0.756,0.686c0,0.252-0.153,0.378-0.602,0.462s-1.848,0.182-2.688,0.182
			c-1.021,0-1.792-0.112-2.38-0.322c-0.938-0.35-1.525-1.148-1.525-2.072c0-0.812,0.447-1.582,1.372-2.352
			c0.42-0.364,0.882-0.672,1.708-1.12c-0.309,0-0.435-0.042-0.673-0.21c-0.21-0.154-0.336-0.462-0.405-1.064
			c-0.042-0.336-0.057-0.644-0.099-1.694c-0.042-1.19-0.056-1.4-0.168-1.61c-0.153-0.266-0.42-0.406-1.008-0.504
			C31.418,71.407,31.531,71.365,31.811,71.365z"/>
		<path d="M27.457,93.639c1.05-1.134,1.694-1.974,2.282-2.94c0.546-0.924,0.938-1.764,1.134-2.436
			c0.504,0.168,1.246,0.434,1.4,0.504c0.056,0.028,0.111,0.084,0.111,0.126c0,0.112-0.195,0.182-0.56,0.182
			c-0.014,0-0.056,0-0.098-0.014c-0.505,0.812-0.742,1.148-1.246,1.792c0.882,0.168,1.078,0.238,1.078,0.35
			c0,0.126-0.112,0.182-0.547,0.294v2.31c0,1.036,0,1.036,0,3.332c-0.042,0.168-0.126,0.196-0.518,0.21
			c-0.112,0-0.182,0.014-0.224,0.014c-0.028,0-0.042,0-0.042,0c-0.154,0-0.225-0.056-0.225-0.182
			c0.057-2.898,0.057-2.898,0.057-3.374v-2.408c-0.952,1.162-1.513,1.68-2.479,2.408L27.457,93.639z M35.086,86.443v-0.882
			c0-0.392,0-0.476-0.027-0.826c1.497,0.21,1.497,0.21,1.497,0.336s-0.168,0.21-0.56,0.294c0,0.434,0,0.798,0,1.078h1.862
			c0.392-0.434,0.531-0.574,0.91-0.994c0.588,0.476,0.77,0.63,1.344,1.134c0.027,0.028,0.042,0.056,0.042,0.084
			c0,0.056-0.07,0.098-0.126,0.098h-4.032c0,0.742,0,0.742,0.014,1.274c-0.014,0.098-0.042,0.154-0.098,0.182
			c-0.112,0.042-0.364,0.07-0.602,0.07c-0.168,0-0.225-0.042-0.238-0.182c0.014-0.602,0.014-0.602,0.014-1.344h-2.813
			c0,0.784,0,0.784,0,1.274c-0.028,0.154-0.112,0.182-0.477,0.196c-0.069,0-0.14,0.014-0.195,0.014c-0.015,0-0.028,0-0.028,0
			c-0.154,0-0.224-0.056-0.238-0.182c0.028-0.518,0.028-0.518,0.028-1.302h-2.464c-0.448,0-0.84,0.042-1.177,0.112l-0.084-0.574
			c0.574,0.112,0.784,0.14,1.261,0.14h2.464c0-0.112,0-0.14,0-0.21c0-0.616-0.014-1.204-0.042-1.526
			c1.525,0.182,1.525,0.182,1.525,0.322c0,0.126-0.042,0.14-0.573,0.336v1.078H35.086z M34.96,92.715
			c0.561-0.42,0.924-0.742,1.512-1.358c0.925-0.966,1.4-1.582,1.723-2.212c1.33,0.756,1.344,0.77,1.344,0.882
			c0,0.07-0.112,0.14-0.238,0.14s-0.252-0.014-0.405-0.028c-1.345,1.288-2.604,2.212-3.935,2.898v2.996
			c0,0.07,0.084,0.112,0.225,0.126c0.195,0.028,1.582,0.07,1.932,0.07c0.476,0,1.218-0.042,1.344-0.084
			c0.154-0.042,0.196-0.112,0.351-0.518c0.224-0.602,0.405-1.19,0.714-2.324h0.182l-0.182,2.24c-0.015,0.224-0.015,0.336-0.015,0.35
			c0,0.098,0.028,0.126,0.225,0.196c0.224,0.084,0.308,0.182,0.308,0.35c0,0.238-0.168,0.392-0.546,0.476
			c-0.308,0.056-1.414,0.112-2.534,0.112c-1.722,0-2.268-0.042-2.576-0.21c-0.266-0.14-0.363-0.35-0.378-0.798
			c0.015-2.296,0.015-2.296,0.015-2.604v-3.584c0-0.42-0.028-1.05-0.07-1.414c1.428,0.21,1.568,0.238,1.568,0.35
			c0,0.126-0.196,0.224-0.561,0.308V92.715z"/>
	</g>
</g>
<g>
	<rect x="0.25" y="14.115" fill="none" stroke="#008CD6" stroke-width="0.5" width="14" height="84.002"/>
	<line fill="none" stroke="#008CD6" stroke-width="0.5" x1="0.25" y1="28.115" x2="14.25" y2="28.115"/>
	<line fill="none" stroke="#008CD6" stroke-width="0.5" x1="0.25" y1="42.115" x2="14.25" y2="42.115"/>
	<line fill="none" stroke="#008CD6" stroke-width="0.5" x1="0.25" y1="56.115" x2="14.25" y2="56.115"/>
	<line fill="none" stroke="#008CD6" stroke-width="0.5" x1="0.25" y1="70.115" x2="14.25" y2="70.115"/>
	<line fill="none" stroke="#008CD6" stroke-width="0.5" x1="0.25" y1="84.115" x2="14.25" y2="84.115"/>
</g>
<polyline fill="none" stroke="#008CD6" stroke-width="0.5" points="14.25,17.615 21.25,17.615 21.25,24.615 14.25,24.615 "/>
<polyline fill="none" stroke="#008CD6" stroke-width="0.5" points="14.25,31.615 21.25,31.615 21.25,38.615 14.25,38.615 "/>
<polyline fill="none" stroke="#008CD6" stroke-width="0.5" points="14.25,59.615 21.25,59.615 21.25,66.615 14.25,66.615 "/>
<g>
	<polyline fill="none" stroke="#008CD6" stroke-width="0.5" points="14.25,84.115 21.25,84.115 21.25,98.112 14.25,98.112 	"/>
	<line fill="none" stroke="#008CD6" stroke-width="0.5" x1="14.25" y1="91.115" x2="21.25" y2="91.115"/>
</g>
<g>
	<line fill="none" stroke="#008CD6" stroke-width="0.25" x1="6.983" y1="14.024" x2="6.983" y2="7.535"/>
	<polyline fill="none" stroke="#008CD6" stroke-width="0.25" points="8.919,10.671 6.983,14.024 5.046,10.671 	"/>
</g>
<g>
	<line fill="none" stroke="#008CD6" stroke-width="0.25" x1="17.733" y1="17.494" x2="17.733" y2="7.535"/>
	<polyline fill="none" stroke="#008CD6" stroke-width="0.25" points="19.669,14.14 17.733,17.494 15.796,14.14 	"/>
</g>
<g>
	<path fill="#008CD6" d="M4.419,3.16C4.187,2.536,3.803,2.24,3.211,2.24c-0.88,0-1.44,0.688-1.44,1.76
		c0,1.056,0.576,1.728,1.472,1.728c0.456,0,0.832-0.184,1.04-0.512C4.363,5.096,4.403,5,4.459,4.808l0.6,0.16
		c-0.112,0.288-0.192,0.44-0.328,0.616c-0.352,0.44-0.864,0.672-1.512,0.672c-1.256,0-2.064-0.872-2.064-2.24
		c0-1.384,0.8-2.288,2.024-2.288c0.664,0,1.2,0.256,1.544,0.736c0.112,0.152,0.184,0.28,0.28,0.512L4.419,3.16z"/>
	<path fill="#008CD6" d="M5.979,6.152c0.04-0.288,0.056-0.504,0.056-0.904V0.976c0-0.4-0.016-0.608-0.056-0.904h0.712
		C6.643,0.368,6.627,0.576,6.627,0.984v1.352c0,0.128,0,0.192-0.024,0.4c0.16-0.264,0.248-0.384,0.44-0.544
		c0.344-0.296,0.712-0.432,1.2-0.432c0.936,0,1.496,0.552,1.496,1.488v2.008c0,0.368,0.016,0.6,0.056,0.896h-0.72
		c0.04-0.264,0.056-0.504,0.056-0.904V3.36c0-0.696-0.344-1.072-0.968-1.072c-0.448,0-0.816,0.192-1.128,0.584
		c-0.224,0.288-0.328,0.504-0.4,0.84v1.536c0,0.352,0.016,0.592,0.056,0.904H5.979z"/>
	<path fill="#008CD6" d="M13.763,5.583c-0.312,0.28-0.464,0.384-0.736,0.488s-0.56,0.16-0.832,0.16c-0.88,0-1.416-0.456-1.416-1.216
		c0-0.64,0.4-1.104,1.144-1.312c0.472-0.136,0.856-0.184,1.84-0.208V3.032c0-0.544-0.344-0.824-1.008-0.824
		c-0.44,0-0.768,0.112-0.992,0.344c-0.104,0.112-0.168,0.224-0.248,0.464L10.891,2.88c0.144-0.368,0.248-0.536,0.448-0.712
		c0.328-0.304,0.808-0.456,1.408-0.456c1.056,0,1.6,0.448,1.6,1.312v2.248c0,0.36,0.016,0.56,0.064,0.88h-0.648V5.583z
		 M13.763,3.968c-0.952,0.024-1.408,0.08-1.768,0.232c-0.408,0.168-0.608,0.44-0.608,0.824c0,0.44,0.328,0.72,0.848,0.72
		c0.464,0,0.968-0.224,1.28-0.568c0.184-0.2,0.248-0.368,0.248-0.688V3.968z"/>
	<path fill="#008CD6" d="M18.107,2.456c-0.304-0.096-0.448-0.12-0.648-0.12c-0.408,0-0.744,0.168-0.984,0.488
		c-0.192,0.248-0.264,0.44-0.296,0.8v1.632c0,0.36,0.016,0.584,0.056,0.896h-0.72c0.04-0.368,0.056-0.576,0.056-0.904V2.744
		c0-0.4-0.016-0.616-0.056-0.904h0.664v0.456c0,0.064,0,0.184-0.008,0.24c0.152-0.248,0.272-0.376,0.44-0.488
		c0.304-0.2,0.576-0.28,0.96-0.28c0.24,0,0.376,0.016,0.712,0.072L18.107,2.456z"/>
	<path fill="#008CD6" d="M21.803,5.583c-0.312,0.28-0.464,0.384-0.736,0.488s-0.56,0.16-0.832,0.16c-0.88,0-1.416-0.456-1.416-1.216
		c0-0.64,0.4-1.104,1.144-1.312c0.472-0.136,0.856-0.184,1.84-0.208V3.032c0-0.544-0.344-0.824-1.008-0.824
		c-0.44,0-0.768,0.112-0.992,0.344c-0.104,0.112-0.168,0.224-0.248,0.464L18.931,2.88c0.144-0.368,0.248-0.536,0.448-0.712
		c0.328-0.304,0.808-0.456,1.408-0.456c1.056,0,1.6,0.448,1.6,1.312v2.248c0,0.36,0.016,0.56,0.064,0.88h-0.648V5.583z
		 M21.803,3.968c-0.952,0.024-1.408,0.08-1.768,0.232c-0.408,0.168-0.608,0.44-0.608,0.824c0,0.44,0.328,0.72,0.848,0.72
		c0.464,0,0.968-0.224,1.28-0.568c0.184-0.2,0.248-0.368,0.248-0.688V3.968z"/>
	<path fill="#008CD6" d="M26.619,3.16c-0.232-0.624-0.616-0.92-1.208-0.92c-0.88,0-1.44,0.688-1.44,1.76
		c0,1.056,0.576,1.728,1.472,1.728c0.456,0,0.832-0.184,1.04-0.512c0.08-0.12,0.12-0.216,0.176-0.408l0.6,0.16
		c-0.112,0.288-0.192,0.44-0.328,0.616c-0.352,0.44-0.864,0.672-1.512,0.672c-1.256,0-2.064-0.872-2.064-2.24
		c0-1.384,0.8-2.288,2.024-2.288c0.664,0,1.2,0.256,1.544,0.736c0.112,0.152,0.184,0.28,0.28,0.512L26.619,3.16z"/>
	<path fill="#008CD6" d="M29.403,0.648c-0.04,0.256-0.056,0.544-0.056,0.888V1.84h0.384c0.368,0,0.536-0.008,0.816-0.048V2.4
		c-0.256-0.04-0.456-0.048-0.816-0.048h-0.384v2.784c0,0.232,0.032,0.352,0.104,0.424c0.088,0.088,0.224,0.136,0.392,0.136
		c0.208,0,0.368-0.048,0.632-0.208l0.176,0.56c-0.328,0.136-0.576,0.184-0.904,0.184c-0.352,0-0.624-0.088-0.784-0.248
		c-0.16-0.16-0.224-0.392-0.224-0.768V2.352h-0.32c-0.272,0-0.456,0.016-0.72,0.048V1.792c0.224,0.04,0.384,0.048,0.72,0.048h0.32
		V1.536c0-0.32-0.016-0.624-0.056-0.888H29.403z"/>
	<path fill="#008CD6" d="M31.724,4.088c0.024,0.536,0.104,0.832,0.32,1.12c0.256,0.352,0.648,0.544,1.128,0.544
		c0.648,0,1.096-0.32,1.32-0.936l0.56,0.224c-0.152,0.336-0.256,0.48-0.44,0.664c-0.376,0.368-0.864,0.56-1.448,0.56
		c-1.256,0-2.048-0.88-2.048-2.264c0-1.368,0.784-2.264,1.984-2.264c1.032,0,1.776,0.664,1.936,1.736
		c0.008,0.088,0.04,0.4,0.056,0.616H31.724z M34.452,3.584c-0.048-0.448-0.168-0.736-0.424-0.984c-0.248-0.24-0.56-0.36-0.944-0.36
		c-0.488,0-0.896,0.248-1.136,0.696c-0.112,0.2-0.152,0.344-0.2,0.648H34.452z"/>
	<path fill="#008CD6" d="M38.612,2.456c-0.304-0.096-0.448-0.12-0.648-0.12c-0.408,0-0.744,0.168-0.984,0.488
		c-0.192,0.248-0.264,0.44-0.296,0.8v1.632c0,0.36,0.016,0.584,0.056,0.896h-0.72c0.04-0.368,0.056-0.576,0.056-0.904V2.744
		c0-0.4-0.016-0.616-0.056-0.904h0.664v0.456c0,0.064,0,0.184-0.008,0.24c0.152-0.248,0.272-0.376,0.44-0.488
		c0.304-0.2,0.576-0.28,0.96-0.28c0.24,0,0.376,0.016,0.712,0.072L38.612,2.456z"/>
	<path fill="#008CD6" d="M42.372,2.352c-0.28,0-0.48,0.016-0.728,0.048V1.792c0.216,0.032,0.408,0.048,0.728,0.048H42.7V1.368
		c0-0.488,0.064-0.744,0.248-0.976C43.14,0.144,43.508,0,43.956,0c0.312,0,0.56,0.048,0.848,0.16l-0.168,0.536
		c-0.216-0.128-0.416-0.184-0.664-0.184c-0.256,0-0.44,0.072-0.544,0.216c-0.088,0.128-0.12,0.296-0.12,0.672v0.44h0.4
		c0.344,0,0.552-0.008,0.848-0.048V2.4c-0.272-0.04-0.456-0.048-0.848-0.048h-0.4v2.904c0,0.376,0.016,0.6,0.056,0.896h-0.72
		c0.04-0.296,0.056-0.568,0.056-0.904V2.352H42.372z"/>
	<path fill="#008CD6" d="M48.052,2.456c-0.304-0.096-0.448-0.12-0.648-0.12c-0.408,0-0.744,0.168-0.984,0.488
		c-0.192,0.248-0.264,0.44-0.296,0.8v1.632c0,0.36,0.016,0.584,0.056,0.896h-0.72c0.04-0.368,0.056-0.576,0.056-0.904V2.744
		c0-0.4-0.016-0.616-0.056-0.904h0.664v0.456c0,0.064,0,0.184-0.008,0.24c0.152-0.248,0.272-0.376,0.44-0.488
		c0.304-0.2,0.576-0.28,0.96-0.28c0.24,0,0.376,0.016,0.712,0.072L48.052,2.456z"/>
	<path fill="#008CD6" d="M51.748,5.583c-0.312,0.28-0.464,0.384-0.736,0.488s-0.56,0.16-0.832,0.16c-0.88,0-1.416-0.456-1.416-1.216
		c0-0.64,0.4-1.104,1.144-1.312c0.472-0.136,0.856-0.184,1.84-0.208V3.032c0-0.544-0.344-0.824-1.008-0.824
		c-0.44,0-0.768,0.112-0.992,0.344C49.644,2.664,49.58,2.776,49.5,3.016L48.875,2.88c0.144-0.368,0.248-0.536,0.448-0.712
		c0.328-0.304,0.808-0.456,1.408-0.456c1.056,0,1.6,0.448,1.6,1.312v2.248c0,0.36,0.016,0.56,0.064,0.88h-0.648V5.583z
		 M51.748,3.968c-0.952,0.024-1.408,0.08-1.768,0.232c-0.408,0.168-0.608,0.44-0.608,0.824c0,0.44,0.328,0.72,0.848,0.72
		c0.464,0,0.968-0.224,1.28-0.568c0.184-0.2,0.248-0.368,0.248-0.688V3.968z"/>
	<path fill="#008CD6" d="M53.5,6.152c0.04-0.288,0.056-0.528,0.056-0.904V2.744c0-0.4-0.016-0.616-0.056-0.904h0.648v0.44
		c0,0.04-0.008,0.136-0.016,0.288c0.072-0.136,0.144-0.232,0.304-0.4c0.272-0.272,0.664-0.416,1.128-0.416
		c0.456,0,0.792,0.136,1.032,0.408c0.12,0.128,0.168,0.224,0.248,0.464c0.376-0.616,0.808-0.872,1.48-0.872
		c0.528,0,0.928,0.168,1.168,0.488c0.192,0.256,0.272,0.568,0.272,1.04v1.976c0,0.4,0.016,0.616,0.056,0.896H59.1
		c0.048-0.296,0.056-0.48,0.056-0.904V3.36c0-0.76-0.28-1.088-0.92-1.088c-0.4,0-0.776,0.216-1.008,0.584
		c-0.152,0.232-0.264,0.584-0.264,0.824v1.576c0,0.4,0.016,0.624,0.056,0.896H56.3c0.04-0.288,0.056-0.496,0.056-0.904V3.36
		c0-0.704-0.32-1.088-0.896-1.088c-0.416,0-0.8,0.224-1.048,0.608c-0.144,0.216-0.264,0.592-0.264,0.8v1.568
		c0,0.368,0.016,0.584,0.056,0.904H53.5z"/>
	<path fill="#008CD6" d="M61.355,4.088c0.024,0.536,0.104,0.832,0.32,1.12c0.256,0.352,0.648,0.544,1.128,0.544
		c0.648,0,1.096-0.32,1.32-0.936l0.56,0.224c-0.152,0.336-0.256,0.48-0.44,0.664c-0.376,0.368-0.864,0.56-1.448,0.56
		c-1.256,0-2.048-0.88-2.048-2.264c0-1.368,0.784-2.264,1.984-2.264c1.032,0,1.776,0.664,1.936,1.736
		c0.008,0.088,0.04,0.4,0.056,0.616H61.355z M64.083,3.584c-0.048-0.448-0.168-0.736-0.424-0.984c-0.248-0.24-0.56-0.36-0.944-0.36
		c-0.488,0-0.896,0.248-1.136,0.696c-0.112,0.2-0.152,0.344-0.2,0.648H64.083z"/>
</g>
<g>
	<line fill="none" stroke="#008CD6" stroke-width="0.25" x1="14.25" y1="98.112" x2="14.25" y2="104.602"/>
	<polyline fill="none" stroke="#008CD6" stroke-width="0.25" points="12.313,101.466 14.25,98.112 16.187,101.466 	"/>
</g>
<g>
	<path fill="#008CD6" d="M3.996,106.232c-0.04,0.256-0.056,0.544-0.056,0.888v0.304h0.384c0.368,0,0.536-0.008,0.816-0.048v0.608
		c-0.256-0.04-0.456-0.048-0.816-0.048H3.939v2.784c0,0.232,0.032,0.352,0.104,0.424c0.088,0.088,0.224,0.136,0.392,0.136
		c0.208,0,0.368-0.048,0.632-0.208l0.176,0.56c-0.328,0.136-0.576,0.184-0.904,0.184c-0.352,0-0.624-0.088-0.784-0.248
		c-0.16-0.16-0.224-0.392-0.224-0.768v-2.864h-0.32c-0.272,0-0.456,0.016-0.72,0.048v-0.608c0.224,0.04,0.384,0.048,0.72,0.048h0.32
		v-0.304c0-0.32-0.016-0.624-0.056-0.888H3.996z"/>
	<path fill="#008CD6" d="M5.908,111.736c0.04-0.288,0.056-0.504,0.056-0.904v-4.272c0-0.4-0.016-0.608-0.056-0.904H6.62
		c-0.048,0.296-0.064,0.504-0.064,0.912v1.352c0,0.128,0,0.192-0.024,0.4c0.16-0.264,0.248-0.384,0.44-0.544
		c0.344-0.296,0.712-0.432,1.2-0.432c0.936,0,1.496,0.552,1.496,1.488v2.008c0,0.368,0.016,0.6,0.056,0.896h-0.72
		c0.04-0.264,0.056-0.504,0.056-0.904v-1.888c0-0.696-0.344-1.072-0.968-1.072c-0.448,0-0.816,0.192-1.128,0.584
		c-0.224,0.288-0.328,0.504-0.4,0.84v1.536c0,0.352,0.016,0.592,0.056,0.904H5.908z"/>
	<path fill="#008CD6" d="M11.252,109.672c0.024,0.536,0.104,0.832,0.32,1.12c0.256,0.352,0.648,0.544,1.128,0.544
		c0.648,0,1.096-0.32,1.32-0.936l0.56,0.224c-0.152,0.336-0.256,0.48-0.44,0.664c-0.376,0.368-0.864,0.56-1.448,0.56
		c-1.256,0-2.048-0.88-2.048-2.264c0-1.368,0.784-2.264,1.984-2.264c1.032,0,1.776,0.664,1.936,1.736
		c0.008,0.088,0.04,0.4,0.056,0.616H11.252z M13.98,109.168c-0.048-0.448-0.168-0.736-0.424-0.984c-0.248-0.24-0.56-0.36-0.944-0.36
		c-0.488,0-0.896,0.248-1.136,0.696c-0.112,0.2-0.152,0.344-0.2,0.648H13.98z"/>
	<path fill="#008CD6" d="M21.276,108.744c-0.232-0.624-0.616-0.92-1.208-0.92c-0.88,0-1.44,0.688-1.44,1.76
		c0,1.056,0.576,1.728,1.472,1.728c0.456,0,0.832-0.184,1.04-0.512c0.08-0.12,0.12-0.216,0.176-0.408l0.6,0.16
		c-0.112,0.288-0.192,0.44-0.328,0.616c-0.352,0.44-0.864,0.672-1.512,0.672c-1.256,0-2.064-0.872-2.064-2.24
		c0-1.384,0.8-2.288,2.024-2.288c0.664,0,1.2,0.256,1.544,0.736c0.112,0.152,0.184,0.28,0.28,0.512L21.276,108.744z"/>
	<path fill="#008CD6" d="M22.836,111.736c0.04-0.288,0.056-0.504,0.056-0.904v-4.272c0-0.4-0.016-0.608-0.056-0.904h0.712
		c-0.048,0.296-0.064,0.504-0.064,0.912v1.352c0,0.128,0,0.192-0.024,0.4c0.16-0.264,0.248-0.384,0.44-0.544
		c0.344-0.296,0.712-0.432,1.2-0.432c0.936,0,1.496,0.552,1.496,1.488v2.008c0,0.368,0.016,0.6,0.056,0.896h-0.72
		c0.04-0.264,0.056-0.504,0.056-0.904v-1.888c0-0.696-0.344-1.072-0.968-1.072c-0.448,0-0.816,0.192-1.128,0.584
		c-0.224,0.288-0.328,0.504-0.4,0.84v1.536c0,0.352,0.016,0.592,0.056,0.904H22.836z"/>
	<path fill="#008CD6" d="M30.62,111.167c-0.312,0.28-0.464,0.384-0.736,0.488s-0.56,0.16-0.832,0.16
		c-0.88,0-1.416-0.456-1.416-1.216c0-0.64,0.4-1.104,1.144-1.312c0.472-0.136,0.856-0.184,1.84-0.208v-0.464
		c0-0.544-0.344-0.824-1.008-0.824c-0.44,0-0.768,0.112-0.992,0.344c-0.104,0.112-0.168,0.224-0.248,0.464l-0.624-0.136
		c0.144-0.368,0.248-0.536,0.448-0.712c0.328-0.304,0.808-0.456,1.408-0.456c1.056,0,1.6,0.448,1.6,1.312v2.248
		c0,0.36,0.016,0.56,0.064,0.88H30.62V111.167z M30.62,109.552c-0.952,0.024-1.408,0.08-1.768,0.232
		c-0.408,0.168-0.608,0.44-0.608,0.824c0,0.44,0.328,0.72,0.848,0.72c0.464,0,0.968-0.224,1.28-0.568
		c0.184-0.2,0.248-0.368,0.248-0.688V109.552z"/>
	<path fill="#008CD6" d="M34.964,108.04c-0.304-0.096-0.448-0.12-0.648-0.12c-0.408,0-0.744,0.168-0.984,0.488
		c-0.192,0.248-0.264,0.44-0.296,0.8v1.632c0,0.36,0.016,0.584,0.056,0.896h-0.72c0.04-0.368,0.056-0.576,0.056-0.904v-2.504
		c0-0.4-0.016-0.616-0.056-0.904h0.664v0.456c0,0.064,0,0.184-0.008,0.24c0.152-0.248,0.272-0.376,0.44-0.488
		c0.304-0.2,0.576-0.28,0.96-0.28c0.24,0,0.376,0.016,0.712,0.072L34.964,108.04z"/>
	<path fill="#008CD6" d="M38.66,111.167c-0.312,0.28-0.464,0.384-0.736,0.488s-0.56,0.16-0.832,0.16
		c-0.88,0-1.416-0.456-1.416-1.216c0-0.64,0.4-1.104,1.144-1.312c0.472-0.136,0.856-0.184,1.84-0.208v-0.464
		c0-0.544-0.344-0.824-1.008-0.824c-0.44,0-0.768,0.112-0.992,0.344c-0.104,0.112-0.168,0.224-0.248,0.464l-0.624-0.136
		c0.144-0.368,0.248-0.536,0.448-0.712c0.328-0.304,0.808-0.456,1.408-0.456c1.056,0,1.6,0.448,1.6,1.312v2.248
		c0,0.36,0.016,0.56,0.064,0.88H38.66V111.167z M38.66,109.552c-0.952,0.024-1.408,0.08-1.768,0.232
		c-0.408,0.168-0.608,0.44-0.608,0.824c0,0.44,0.328,0.72,0.848,0.72c0.464,0,0.968-0.224,1.28-0.568
		c0.184-0.2,0.248-0.368,0.248-0.688V109.552z"/>
	<path fill="#008CD6" d="M43.476,108.744c-0.232-0.624-0.616-0.92-1.208-0.92c-0.88,0-1.44,0.688-1.44,1.76
		c0,1.056,0.576,1.728,1.472,1.728c0.456,0,0.832-0.184,1.04-0.512c0.08-0.12,0.12-0.216,0.176-0.408l0.6,0.16
		c-0.112,0.288-0.192,0.44-0.328,0.616c-0.352,0.44-0.864,0.672-1.512,0.672c-1.256,0-2.064-0.872-2.064-2.24
		c0-1.384,0.8-2.288,2.024-2.288c0.664,0,1.2,0.256,1.544,0.736c0.112,0.152,0.184,0.28,0.28,0.512L43.476,108.744z"/>
	<path fill="#008CD6" d="M46.26,106.232c-0.04,0.256-0.056,0.544-0.056,0.888v0.304h0.384c0.368,0,0.536-0.008,0.816-0.048v0.608
		c-0.256-0.04-0.456-0.048-0.816-0.048h-0.384v2.784c0,0.232,0.032,0.352,0.104,0.424c0.088,0.088,0.224,0.136,0.392,0.136
		c0.208,0,0.368-0.048,0.632-0.208l0.176,0.56c-0.328,0.136-0.576,0.184-0.904,0.184c-0.352,0-0.624-0.088-0.784-0.248
		c-0.16-0.16-0.224-0.392-0.224-0.768v-2.864h-0.32c-0.272,0-0.456,0.016-0.72,0.048v-0.608c0.224,0.04,0.384,0.048,0.72,0.048h0.32
		v-0.304c0-0.32-0.016-0.624-0.056-0.888H46.26z"/>
	<path fill="#008CD6" d="M48.581,109.672c0.024,0.536,0.104,0.832,0.32,1.12c0.256,0.352,0.648,0.544,1.128,0.544
		c0.648,0,1.096-0.32,1.32-0.936l0.56,0.224c-0.152,0.336-0.256,0.48-0.44,0.664c-0.376,0.368-0.864,0.56-1.448,0.56
		c-1.256,0-2.048-0.88-2.048-2.264c0-1.368,0.784-2.264,1.984-2.264c1.032,0,1.776,0.664,1.936,1.736
		c0.008,0.088,0.04,0.4,0.056,0.616H48.581z M51.309,109.168c-0.048-0.448-0.168-0.736-0.424-0.984
		c-0.248-0.24-0.56-0.36-0.944-0.36c-0.488,0-0.896,0.248-1.136,0.696c-0.112,0.2-0.152,0.344-0.2,0.648H51.309z"/>
	<path fill="#008CD6" d="M55.469,108.04c-0.304-0.096-0.448-0.12-0.648-0.12c-0.408,0-0.744,0.168-0.984,0.488
		c-0.192,0.248-0.264,0.44-0.296,0.8v1.632c0,0.36,0.016,0.584,0.056,0.896h-0.72c0.04-0.368,0.056-0.576,0.056-0.904v-2.504
		c0-0.4-0.016-0.616-0.056-0.904h0.664v0.456c0,0.064,0,0.184-0.008,0.24c0.152-0.248,0.272-0.376,0.44-0.488
		c0.304-0.2,0.576-0.28,0.96-0.28c0.24,0,0.376,0.016,0.712,0.072L55.469,108.04z"/>
	<path fill="#008CD6" d="M3.02,116.936c-0.28,0-0.48,0.016-0.728,0.048v-0.608c0.216,0.032,0.408,0.048,0.728,0.048h0.328v-0.472
		c0-0.488,0.064-0.744,0.248-0.976c0.192-0.248,0.56-0.392,1.008-0.392c0.312,0,0.56,0.048,0.848,0.16l-0.168,0.536
		c-0.216-0.128-0.416-0.184-0.664-0.184c-0.256,0-0.44,0.072-0.544,0.216c-0.088,0.128-0.12,0.296-0.12,0.672v0.44h0.4
		c0.344,0,0.552-0.008,0.848-0.048v0.608c-0.272-0.04-0.456-0.048-0.848-0.048h-0.4v2.904c0,0.376,0.016,0.6,0.056,0.896h-0.72
		c0.04-0.296,0.056-0.568,0.056-0.904v-2.896H3.02z"/>
	<path fill="#008CD6" d="M8.7,117.04c-0.304-0.096-0.448-0.12-0.648-0.12c-0.408,0-0.744,0.168-0.984,0.488
		c-0.192,0.248-0.264,0.44-0.296,0.8v1.632c0,0.36,0.016,0.584,0.056,0.896h-0.72c0.04-0.368,0.056-0.576,0.056-0.904v-2.504
		c0-0.4-0.016-0.616-0.056-0.904h0.664v0.456c0,0.064,0,0.184-0.008,0.24c0.152-0.248,0.272-0.376,0.44-0.488
		c0.304-0.2,0.576-0.28,0.96-0.28c0.24,0,0.376,0.016,0.712,0.072L8.7,117.04z"/>
	<path fill="#008CD6" d="M12.396,120.167c-0.312,0.28-0.464,0.384-0.736,0.488s-0.56,0.16-0.832,0.16
		c-0.88,0-1.416-0.456-1.416-1.216c0-0.64,0.4-1.104,1.144-1.312c0.472-0.136,0.856-0.184,1.84-0.208v-0.464
		c0-0.544-0.344-0.824-1.008-0.824c-0.44,0-0.768,0.112-0.992,0.344c-0.104,0.112-0.168,0.224-0.248,0.464l-0.624-0.136
		c0.144-0.368,0.248-0.536,0.448-0.712c0.328-0.304,0.808-0.456,1.408-0.456c1.056,0,1.6,0.448,1.6,1.312v2.248
		c0,0.36,0.016,0.56,0.064,0.88h-0.648V120.167z M12.396,118.552c-0.952,0.024-1.408,0.08-1.768,0.232
		c-0.408,0.168-0.608,0.44-0.608,0.824c0,0.44,0.328,0.72,0.848,0.72c0.464,0,0.968-0.224,1.28-0.568
		c0.184-0.2,0.248-0.368,0.248-0.688V118.552z"/>
	<path fill="#008CD6" d="M14.147,120.736c0.04-0.288,0.056-0.528,0.056-0.904v-2.504c0-0.4-0.016-0.616-0.056-0.904h0.648v0.44
		c0,0.04-0.008,0.136-0.016,0.288c0.072-0.136,0.144-0.232,0.304-0.4c0.272-0.272,0.664-0.416,1.128-0.416
		c0.456,0,0.792,0.136,1.032,0.408c0.12,0.128,0.168,0.224,0.248,0.464c0.376-0.616,0.808-0.872,1.48-0.872
		c0.528,0,0.928,0.168,1.168,0.488c0.192,0.256,0.272,0.568,0.272,1.04v1.976c0,0.4,0.016,0.616,0.056,0.896h-0.72
		c0.048-0.296,0.056-0.48,0.056-0.904v-1.888c0-0.76-0.28-1.088-0.92-1.088c-0.4,0-0.776,0.216-1.008,0.584
		c-0.152,0.232-0.264,0.584-0.264,0.824v1.576c0,0.4,0.016,0.624,0.056,0.896h-0.72c0.04-0.288,0.056-0.496,0.056-0.904v-1.888
		c0-0.704-0.32-1.088-0.896-1.088c-0.416,0-0.8,0.224-1.048,0.608c-0.144,0.216-0.264,0.592-0.264,0.8v1.568
		c0,0.368,0.016,0.584,0.056,0.904H14.147z"/>
	<path fill="#008CD6" d="M22.003,118.672c0.024,0.536,0.104,0.832,0.32,1.12c0.256,0.352,0.648,0.544,1.128,0.544
		c0.648,0,1.096-0.32,1.32-0.936l0.56,0.224c-0.152,0.336-0.256,0.48-0.44,0.664c-0.376,0.368-0.864,0.56-1.448,0.56
		c-1.256,0-2.048-0.88-2.048-2.264c0-1.368,0.784-2.264,1.984-2.264c1.032,0,1.776,0.664,1.936,1.736
		c0.008,0.088,0.04,0.4,0.056,0.616H22.003z M24.731,118.168c-0.048-0.448-0.168-0.736-0.424-0.984
		c-0.248-0.24-0.56-0.36-0.944-0.36c-0.488,0-0.896,0.248-1.136,0.696c-0.112,0.2-0.152,0.344-0.2,0.648H24.731z"/>
	<path fill="#008CD6" d="M28.764,118.583c0-1.384,0.832-2.264,2.136-2.264c1.304,0,2.128,0.88,2.128,2.256
		c0,1.368-0.832,2.264-2.12,2.264C29.596,120.84,28.764,119.968,28.764,118.583z M29.379,118.568c0,1.088,0.584,1.752,1.52,1.752
		s1.512-0.664,1.512-1.744s-0.576-1.752-1.496-1.752C29.963,116.824,29.379,117.488,29.379,118.568z"/>
	<path fill="#008CD6" d="M34.211,116.936c-0.28,0-0.48,0.016-0.728,0.048v-0.608c0.216,0.032,0.408,0.048,0.728,0.048h0.328v-0.472
		c0-0.488,0.064-0.744,0.248-0.976c0.192-0.248,0.56-0.392,1.008-0.392c0.312,0,0.56,0.048,0.848,0.16l-0.168,0.536
		c-0.216-0.128-0.416-0.184-0.664-0.184c-0.256,0-0.44,0.072-0.544,0.216c-0.088,0.128-0.12,0.296-0.12,0.672v0.44h0.4
		c0.344,0,0.552-0.008,0.848-0.048v0.608c-0.272-0.04-0.456-0.048-0.848-0.048h-0.4v2.904c0,0.376,0.016,0.6,0.056,0.896h-0.72
		c0.04-0.296,0.056-0.568,0.056-0.904v-2.896H34.211z"/>
	<path fill="#008CD6" d="M41.188,115.232c-0.04,0.256-0.056,0.544-0.056,0.888v0.304h0.384c0.368,0,0.536-0.008,0.816-0.048v0.608
		c-0.256-0.04-0.456-0.048-0.816-0.048h-0.384v2.784c0,0.232,0.032,0.352,0.104,0.424c0.088,0.088,0.224,0.136,0.392,0.136
		c0.208,0,0.368-0.048,0.632-0.208l0.176,0.56c-0.328,0.136-0.576,0.184-0.904,0.184c-0.352,0-0.624-0.088-0.784-0.248
		c-0.16-0.16-0.224-0.392-0.224-0.768v-2.864h-0.32c-0.272,0-0.456,0.016-0.72,0.048v-0.608c0.224,0.04,0.384,0.048,0.72,0.048h0.32
		v-0.304c0-0.32-0.016-0.624-0.056-0.888H41.188z"/>
	<path fill="#008CD6" d="M43.099,120.736c0.04-0.288,0.056-0.504,0.056-0.904v-4.272c0-0.4-0.016-0.608-0.056-0.904h0.712
		c-0.048,0.296-0.064,0.504-0.064,0.912v1.352c0,0.128,0,0.192-0.024,0.4c0.16-0.264,0.248-0.384,0.44-0.544
		c0.344-0.296,0.712-0.432,1.2-0.432c0.936,0,1.496,0.552,1.496,1.488v2.008c0,0.368,0.016,0.6,0.056,0.896h-0.72
		c0.04-0.264,0.056-0.504,0.056-0.904v-1.888c0-0.696-0.344-1.072-0.968-1.072c-0.448,0-0.816,0.192-1.128,0.584
		c-0.224,0.288-0.328,0.504-0.4,0.84v1.536c0,0.352,0.016,0.592,0.056,0.904H43.099z"/>
	<path fill="#008CD6" d="M48.443,118.672c0.024,0.536,0.104,0.832,0.32,1.12c0.256,0.352,0.648,0.544,1.128,0.544
		c0.648,0,1.096-0.32,1.32-0.936l0.56,0.224c-0.152,0.336-0.256,0.48-0.44,0.664c-0.376,0.368-0.864,0.56-1.448,0.56
		c-1.256,0-2.048-0.88-2.048-2.264c0-1.368,0.784-2.264,1.984-2.264c1.032,0,1.776,0.664,1.936,1.736
		c0.008,0.088,0.04,0.4,0.056,0.616H48.443z M51.171,118.168c-0.048-0.448-0.168-0.736-0.424-0.984
		c-0.248-0.24-0.56-0.36-0.944-0.36c-0.488,0-0.896,0.248-1.136,0.696c-0.112,0.2-0.152,0.344-0.2,0.648H51.171z"/>
	<path fill="#008CD6" d="M5.364,126.04c-0.304-0.096-0.448-0.12-0.648-0.12c-0.408,0-0.744,0.168-0.984,0.488
		c-0.192,0.248-0.264,0.44-0.296,0.8v1.632c0,0.36,0.016,0.584,0.056,0.896h-0.72c0.04-0.368,0.056-0.576,0.056-0.904v-2.504
		c0-0.4-0.016-0.616-0.056-0.904h0.664v0.456c0,0.064,0,0.184-0.008,0.24c0.152-0.248,0.272-0.376,0.44-0.488
		c0.304-0.2,0.576-0.28,0.96-0.28c0.24,0,0.376,0.016,0.712,0.072L5.364,126.04z"/>
	<path fill="#008CD6" d="M9.355,129.216c0-0.088,0-0.144,0.024-0.352c-0.4,0.656-0.896,0.952-1.616,0.952
		c-0.576,0-1.024-0.208-1.28-0.592c-0.144-0.232-0.224-0.544-0.224-0.928v-1.976c0-0.36-0.016-0.64-0.056-0.896h0.72
		c-0.04,0.28-0.056,0.552-0.056,0.904v1.864c0,0.712,0.344,1.112,0.968,1.112c0.456,0,0.832-0.2,1.152-0.632
		c0.208-0.28,0.296-0.48,0.368-0.8v-1.544c0-0.344-0.016-0.624-0.056-0.904h0.712c-0.04,0.28-0.056,0.536-0.056,0.904v2.504
		c0,0.36,0.016,0.584,0.064,0.904H9.355V129.216z"/>
	<path fill="#008CD6" d="M11.155,129.736c0.04-0.304,0.056-0.536,0.056-0.92v-4.256c0-0.336-0.016-0.592-0.056-0.904h0.704
		c-0.04,0.296-0.056,0.528-0.056,0.912v1.08c0,0.216-0.008,0.36-0.032,0.568c0.376-0.592,0.92-0.88,1.648-0.88
		c1.232,0,1.968,0.832,1.968,2.224c0,1.408-0.752,2.256-2,2.256c-0.504,0-0.872-0.128-1.24-0.432
		c-0.176-0.136-0.248-0.224-0.376-0.416c0.016,0.152,0.024,0.216,0.024,0.32v0.448H11.155z M13.372,125.848
		c-0.944,0-1.568,0.688-1.568,1.712c0,1.032,0.624,1.736,1.544,1.736c0.896,0,1.424-0.648,1.424-1.744
		C14.771,126.472,14.259,125.848,13.372,125.848z"/>
	<path fill="#008CD6" d="M16.275,126.36c-0.36-0.792-0.36-0.792-0.44-0.936h0.784c0.04,0.224,0.144,0.544,0.272,0.848l1.16,2.688
		l1.032-2.688c0.16-0.408,0.232-0.624,0.264-0.848h0.744c-0.048,0.12-0.184,0.432-0.392,0.936l-1.792,4.368
		c-0.208,0.512-0.56,0.744-1.128,0.744c-0.176,0-0.352-0.024-0.656-0.088l0.168-0.592c0.224,0.104,0.336,0.136,0.488,0.136
		c0.272,0,0.464-0.144,0.592-0.44l0.368-0.88L16.275,126.36z"/>
	<path fill="#008CD6" d="M24.188,123.656v0.712h-0.776v-0.712H24.188z M24.156,125.424c-0.04,0.28-0.056,0.504-0.056,0.904v2.504
		c0,0.368,0.016,0.592,0.056,0.904h-0.72c0.04-0.344,0.056-0.568,0.056-0.904v-2.504c0-0.384-0.016-0.624-0.056-0.904H24.156z"/>
	<path fill="#008CD6" d="M25.748,128.456c0.056,0.296,0.12,0.44,0.28,0.584c0.2,0.184,0.52,0.28,0.928,0.28
		c0.696,0,1.136-0.296,1.136-0.768c0-0.224-0.08-0.392-0.248-0.496c-0.192-0.12-0.352-0.168-0.944-0.288
		c-0.64-0.136-0.912-0.232-1.184-0.416c-0.28-0.192-0.432-0.488-0.432-0.84c0-0.288,0.12-0.56,0.344-0.776
		c0.28-0.272,0.712-0.416,1.248-0.416c0.544,0,0.968,0.128,1.256,0.384c0.208,0.176,0.32,0.36,0.424,0.728l-0.632,0.104
		c-0.048-0.216-0.088-0.312-0.2-0.424c-0.184-0.2-0.472-0.304-0.832-0.304c-0.584,0-1,0.296-1,0.72c0,0.184,0.096,0.344,0.272,0.44
		c0.184,0.104,0.392,0.168,0.888,0.272c0.776,0.176,1.032,0.272,1.272,0.456c0.248,0.2,0.384,0.504,0.384,0.832
		c0,0.8-0.68,1.296-1.776,1.296c-0.728,0-1.288-0.216-1.584-0.624c-0.12-0.168-0.176-0.304-0.256-0.632L25.748,128.456z"/>
	<path fill="#008CD6" d="M32.283,131.416c0.04-0.312,0.056-0.568,0.056-0.896v-4.176c0-0.384-0.016-0.616-0.056-0.92h0.64v0.456
		c0,0.104-0.008,0.192-0.024,0.328c0.36-0.568,0.92-0.864,1.632-0.864c1.232,0,1.984,0.84,1.984,2.232
		c0,1.36-0.768,2.232-1.968,2.232c-0.704,0-1.272-0.296-1.648-0.848c0.024,0.224,0.032,0.344,0.032,0.56v0.992
		c0,0.376,0.016,0.608,0.056,0.904H32.283z M35.891,127.576c0-1.088-0.512-1.712-1.408-1.712c-0.92,0-1.544,0.688-1.544,1.72
		c0,0.52,0.168,1,0.456,1.28c0.28,0.272,0.68,0.424,1.096,0.424C35.363,129.288,35.891,128.64,35.891,127.576z"/>
	<path fill="#008CD6" d="M38.179,123.656c-0.04,0.288-0.056,0.504-0.056,0.904v4.28c0,0.36,0.016,0.576,0.056,0.896h-0.72
		c0.04-0.288,0.056-0.536,0.056-0.896v-4.288c0-0.392-0.016-0.608-0.056-0.896H38.179z"/>
	<path fill="#008CD6" d="M42.163,129.167c-0.312,0.28-0.464,0.384-0.736,0.488s-0.56,0.16-0.832,0.16
		c-0.88,0-1.416-0.456-1.416-1.216c0-0.64,0.4-1.104,1.144-1.312c0.472-0.136,0.856-0.184,1.84-0.208v-0.464
		c0-0.544-0.344-0.824-1.008-0.824c-0.44,0-0.768,0.112-0.992,0.344c-0.104,0.112-0.168,0.224-0.248,0.464l-0.624-0.136
		c0.144-0.368,0.248-0.536,0.448-0.712c0.328-0.304,0.808-0.456,1.408-0.456c1.056,0,1.6,0.448,1.6,1.312v2.248
		c0,0.36,0.016,0.56,0.064,0.88h-0.648V129.167z M42.163,127.552c-0.952,0.024-1.408,0.08-1.768,0.232
		c-0.408,0.168-0.608,0.44-0.608,0.824c0,0.44,0.328,0.72,0.848,0.72c0.464,0,0.968-0.224,1.28-0.568
		c0.184-0.2,0.248-0.368,0.248-0.688V127.552z"/>
	<path fill="#008CD6" d="M46.979,126.744c-0.232-0.624-0.616-0.92-1.208-0.92c-0.88,0-1.44,0.688-1.44,1.76
		c0,1.056,0.576,1.728,1.472,1.728c0.456,0,0.832-0.184,1.04-0.512c0.08-0.12,0.12-0.216,0.176-0.408l0.6,0.16
		c-0.112,0.288-0.192,0.44-0.328,0.616c-0.352,0.44-0.864,0.672-1.512,0.672c-1.256,0-2.064-0.872-2.064-2.24
		c0-1.384,0.8-2.288,2.024-2.288c0.664,0,1.2,0.256,1.544,0.736c0.112,0.152,0.184,0.28,0.28,0.512L46.979,126.744z"/>
	<path fill="#008CD6" d="M48.947,127.672c0.024,0.536,0.104,0.832,0.32,1.12c0.256,0.352,0.648,0.544,1.128,0.544
		c0.648,0,1.096-0.32,1.32-0.936l0.56,0.224c-0.152,0.336-0.256,0.48-0.44,0.664c-0.376,0.368-0.864,0.56-1.448,0.56
		c-1.256,0-2.048-0.88-2.048-2.264c0-1.368,0.784-2.264,1.984-2.264c1.032,0,1.776,0.664,1.936,1.736
		c0.008,0.088,0.04,0.4,0.056,0.616H48.947z M51.675,127.168c-0.048-0.448-0.168-0.736-0.424-0.984
		c-0.248-0.24-0.56-0.36-0.944-0.36c-0.488,0-0.896,0.248-1.136,0.696c-0.112,0.2-0.152,0.344-0.2,0.648H51.675z"/>
	<path fill="#008CD6" d="M56.627,129.344c0-0.112,0.008-0.256,0.024-0.392c-0.376,0.584-0.896,0.864-1.624,0.864
		c-1.232,0-1.984-0.848-1.984-2.24c0-1.368,0.768-2.24,1.968-2.24c0.728,0,1.288,0.296,1.64,0.848l-0.008-0.12
		c-0.024-0.168-0.024-0.24-0.024-0.424v-1.072c0-0.376-0.016-0.608-0.056-0.912h0.704c-0.04,0.32-0.056,0.552-0.056,0.904v4.256
		c0,0.4,0.016,0.608,0.056,0.92h-0.64V129.344z M53.675,127.56c0,0.528,0.12,0.984,0.328,1.248c0.248,0.312,0.624,0.48,1.072,0.48
		c0.936,0,1.536-0.68,1.536-1.736c0-0.528-0.16-0.992-0.448-1.272c-0.28-0.272-0.664-0.424-1.088-0.424
		C54.203,125.856,53.675,126.496,53.675,127.56z"/>
	<path fill="#008CD6" d="M3.02,134.936c-0.28,0-0.48,0.016-0.728,0.048v-0.608c0.216,0.032,0.408,0.048,0.728,0.048h0.328v-0.472
		c0-0.488,0.064-0.744,0.248-0.976c0.192-0.248,0.56-0.392,1.008-0.392c0.312,0,0.56,0.048,0.848,0.16l-0.168,0.536
		c-0.216-0.128-0.416-0.184-0.664-0.184c-0.256,0-0.44,0.072-0.544,0.216c-0.088,0.128-0.12,0.296-0.12,0.672v0.44h0.4
		c0.344,0,0.552-0.008,0.848-0.048v0.608c-0.272-0.04-0.456-0.048-0.848-0.048h-0.4v2.904c0,0.376,0.016,0.6,0.056,0.896h-0.72
		c0.04-0.296,0.056-0.568,0.056-0.904v-2.896H3.02z"/>
	<path fill="#008CD6" d="M6.828,132.656c-0.04,0.288-0.056,0.504-0.056,0.904v4.28c0,0.36,0.016,0.576,0.056,0.896h-0.72
		c0.04-0.288,0.056-0.536,0.056-0.896v-4.288c0-0.392-0.016-0.608-0.056-0.896H6.828z"/>
	<path fill="#008CD6" d="M11.107,138.216c0-0.088,0-0.144,0.024-0.352c-0.4,0.656-0.896,0.952-1.616,0.952
		c-0.576,0-1.024-0.208-1.28-0.592c-0.144-0.232-0.224-0.544-0.224-0.928v-1.976c0-0.36-0.016-0.64-0.056-0.896h0.72
		c-0.04,0.28-0.056,0.552-0.056,0.904v1.864c0,0.712,0.344,1.112,0.968,1.112c0.456,0,0.832-0.2,1.152-0.632
		c0.208-0.28,0.296-0.48,0.368-0.8v-1.544c0-0.344-0.016-0.624-0.056-0.904h0.712c-0.04,0.28-0.056,0.536-0.056,0.904v2.504
		c0,0.36,0.016,0.584,0.064,0.904h-0.664V138.216z"/>
	<path fill="#008CD6" d="M13.332,137.456c0.056,0.296,0.12,0.44,0.28,0.584c0.2,0.184,0.52,0.28,0.928,0.28
		c0.696,0,1.136-0.296,1.136-0.768c0-0.224-0.08-0.392-0.248-0.496c-0.192-0.12-0.352-0.168-0.944-0.288
		c-0.64-0.136-0.912-0.232-1.184-0.416c-0.28-0.192-0.432-0.488-0.432-0.84c0-0.288,0.12-0.56,0.344-0.776
		c0.28-0.272,0.712-0.416,1.248-0.416c0.544,0,0.968,0.128,1.256,0.384c0.208,0.176,0.32,0.36,0.424,0.728l-0.632,0.104
		c-0.048-0.216-0.088-0.312-0.2-0.424c-0.184-0.2-0.472-0.304-0.832-0.304c-0.584,0-1,0.296-1,0.72c0,0.184,0.096,0.344,0.272,0.44
		c0.184,0.104,0.392,0.168,0.888,0.272c0.776,0.176,1.032,0.272,1.272,0.456c0.248,0.2,0.384,0.504,0.384,0.832
		c0,0.8-0.68,1.296-1.776,1.296c-0.728,0-1.288-0.216-1.584-0.624c-0.12-0.168-0.176-0.304-0.256-0.632L13.332,137.456z"/>
	<path fill="#008CD6" d="M17.203,138.736c0.04-0.288,0.056-0.504,0.056-0.904v-4.272c0-0.4-0.016-0.608-0.056-0.904h0.712
		c-0.048,0.296-0.064,0.504-0.064,0.912v1.352c0,0.128,0,0.192-0.024,0.4c0.16-0.264,0.248-0.384,0.44-0.544
		c0.344-0.296,0.712-0.432,1.2-0.432c0.936,0,1.496,0.552,1.496,1.488v2.008c0,0.368,0.016,0.6,0.056,0.896h-0.72
		c0.04-0.264,0.056-0.504,0.056-0.904v-1.888c0-0.696-0.344-1.072-0.968-1.072c-0.448,0-0.816,0.192-1.128,0.584
		c-0.224,0.288-0.328,0.504-0.4,0.84v1.536c0,0.352,0.016,0.592,0.056,0.904H17.203z"/>
	<path fill="#008CD6" d="M27.651,138.167c-0.312,0.28-0.464,0.384-0.736,0.488s-0.56,0.16-0.832,0.16
		c-0.88,0-1.416-0.456-1.416-1.216c0-0.64,0.4-1.104,1.144-1.312c0.472-0.136,0.856-0.184,1.84-0.208v-0.464
		c0-0.544-0.344-0.824-1.008-0.824c-0.44,0-0.768,0.112-0.992,0.344c-0.104,0.112-0.168,0.224-0.248,0.464l-0.624-0.136
		c0.144-0.368,0.248-0.536,0.448-0.712c0.328-0.304,0.808-0.456,1.408-0.456c1.056,0,1.6,0.448,1.6,1.312v2.248
		c0,0.36,0.016,0.56,0.064,0.88h-0.648V138.167z M27.651,136.552c-0.952,0.024-1.408,0.08-1.768,0.232
		c-0.408,0.168-0.608,0.44-0.608,0.824c0,0.44,0.328,0.72,0.848,0.72c0.464,0,0.968-0.224,1.28-0.568
		c0.184-0.2,0.248-0.368,0.248-0.688V136.552z"/>
	<path fill="#008CD6" d="M29.899,139.296c0.112,0.152,0.16,0.208,0.256,0.28c0.304,0.264,0.64,0.376,1.072,0.376
		c0.696,0,1.184-0.304,1.392-0.88c0.08-0.232,0.112-0.52,0.144-1.184c-0.12,0.216-0.208,0.32-0.344,0.44
		c-0.304,0.272-0.752,0.416-1.24,0.416c-1.208,0-1.976-0.84-1.976-2.176c0-1.36,0.784-2.224,2.024-2.224
		c0.696,0,1.208,0.28,1.536,0.84c-0.008-0.136-0.016-0.2-0.016-0.304v-0.456h0.64c-0.04,0.312-0.056,0.52-0.056,0.896v2.864
		c0,0.784-0.144,1.288-0.464,1.664c-0.336,0.392-0.936,0.608-1.664,0.608c-0.792,0-1.288-0.224-1.816-0.8L29.899,139.296z
		 M31.211,138.24c0.912,0,1.52-0.696,1.52-1.736c0-1.008-0.576-1.656-1.472-1.656c-0.888,0-1.432,0.656-1.432,1.72
		C29.828,137.608,30.355,138.24,31.211,138.24z"/>
	<path fill="#008CD6" d="M37.379,138.167c-0.312,0.28-0.464,0.384-0.736,0.488c-0.272,0.104-0.56,0.16-0.832,0.16
		c-0.88,0-1.416-0.456-1.416-1.216c0-0.64,0.4-1.104,1.144-1.312c0.472-0.136,0.856-0.184,1.84-0.208v-0.464
		c0-0.544-0.344-0.824-1.008-0.824c-0.44,0-0.768,0.112-0.992,0.344c-0.104,0.112-0.168,0.224-0.248,0.464l-0.624-0.136
		c0.144-0.368,0.248-0.536,0.448-0.712c0.328-0.304,0.808-0.456,1.408-0.456c1.056,0,1.6,0.448,1.6,1.312v2.248
		c0,0.36,0.016,0.56,0.064,0.88h-0.648V138.167z M37.379,136.552c-0.952,0.024-1.408,0.08-1.768,0.232
		c-0.408,0.168-0.608,0.44-0.608,0.824c0,0.44,0.328,0.72,0.848,0.72c0.464,0,0.968-0.224,1.28-0.568
		c0.184-0.2,0.248-0.368,0.248-0.688V136.552z"/>
	<path fill="#008CD6" d="M39.899,132.656v0.712h-0.776v-0.712H39.899z M39.868,134.424c-0.04,0.28-0.056,0.504-0.056,0.904v2.504
		c0,0.368,0.016,0.592,0.056,0.904h-0.72c0.04-0.344,0.056-0.568,0.056-0.904v-2.504c0-0.384-0.016-0.624-0.056-0.904H39.868z"/>
	<path fill="#008CD6" d="M41.035,138.736c0.048-0.304,0.064-0.52,0.064-0.904v-2.504c0-0.36-0.016-0.584-0.064-0.904h0.664v0.544
		c0,0.096,0,0.16-0.024,0.344c0.376-0.656,0.896-0.968,1.616-0.968c0.576,0,1.024,0.208,1.28,0.6
		c0.152,0.232,0.224,0.528,0.224,0.92v1.976c0,0.408,0.016,0.632,0.056,0.896h-0.72c0.04-0.312,0.056-0.552,0.056-0.904v-1.864
		c0-0.72-0.344-1.104-0.976-1.104c-0.448,0-0.808,0.2-1.144,0.632c-0.208,0.272-0.304,0.472-0.368,0.792v1.544
		c0,0.352,0.016,0.592,0.056,0.904H41.035z"/>
	<path fill="#008CD6" d="M46.403,137.456c0.056,0.296,0.12,0.44,0.28,0.584c0.2,0.184,0.52,0.28,0.928,0.28
		c0.696,0,1.136-0.296,1.136-0.768c0-0.224-0.08-0.392-0.248-0.496c-0.192-0.12-0.352-0.168-0.944-0.288
		c-0.64-0.136-0.912-0.232-1.184-0.416c-0.28-0.192-0.432-0.488-0.432-0.84c0-0.288,0.12-0.56,0.344-0.776
		c0.28-0.272,0.712-0.416,1.248-0.416c0.544,0,0.968,0.128,1.256,0.384c0.208,0.176,0.32,0.36,0.424,0.728l-0.632,0.104
		c-0.048-0.216-0.088-0.312-0.2-0.424c-0.184-0.2-0.472-0.304-0.832-0.304c-0.584,0-1,0.296-1,0.72c0,0.184,0.096,0.344,0.272,0.44
		c0.184,0.104,0.392,0.168,0.888,0.272c0.776,0.176,1.032,0.272,1.272,0.456c0.248,0.2,0.384,0.504,0.384,0.832
		c0,0.8-0.68,1.296-1.776,1.296c-0.728,0-1.288-0.216-1.584-0.624c-0.12-0.168-0.176-0.304-0.256-0.632L46.403,137.456z"/>
	<path fill="#008CD6" d="M51.499,133.232c-0.04,0.256-0.056,0.544-0.056,0.888v0.304h0.384c0.368,0,0.536-0.008,0.816-0.048v0.608
		c-0.256-0.04-0.456-0.048-0.816-0.048h-0.384v2.784c0,0.232,0.032,0.352,0.104,0.424c0.088,0.088,0.224,0.136,0.392,0.136
		c0.208,0,0.368-0.048,0.632-0.208l0.176,0.56c-0.328,0.136-0.576,0.184-0.904,0.184c-0.352,0-0.624-0.088-0.784-0.248
		c-0.16-0.16-0.224-0.392-0.224-0.768v-2.864h-0.32c-0.272,0-0.456,0.016-0.72,0.048v-0.608c0.224,0.04,0.384,0.048,0.72,0.048h0.32
		v-0.304c0-0.32-0.016-0.624-0.056-0.888H51.499z"/>
	<path fill="#008CD6" d="M3.996,142.232c-0.04,0.256-0.056,0.544-0.056,0.888v0.304h0.384c0.368,0,0.536-0.008,0.816-0.048v0.608
		c-0.256-0.04-0.456-0.048-0.816-0.048H3.939v2.784c0,0.232,0.032,0.352,0.104,0.424c0.088,0.088,0.224,0.136,0.392,0.136
		c0.208,0,0.368-0.048,0.632-0.208l0.176,0.56c-0.328,0.136-0.576,0.184-0.904,0.184c-0.352,0-0.624-0.088-0.784-0.248
		c-0.16-0.16-0.224-0.392-0.224-0.768v-2.864h-0.32c-0.272,0-0.456,0.016-0.72,0.048v-0.608c0.224,0.04,0.384,0.048,0.72,0.048h0.32
		v-0.304c0-0.32-0.016-0.624-0.056-0.888H3.996z"/>
	<path fill="#008CD6" d="M5.908,147.736c0.04-0.288,0.056-0.504,0.056-0.904v-4.272c0-0.4-0.016-0.608-0.056-0.904H6.62
		c-0.048,0.296-0.064,0.504-0.064,0.912v1.352c0,0.128,0,0.192-0.024,0.4c0.16-0.264,0.248-0.384,0.44-0.544
		c0.344-0.296,0.712-0.432,1.2-0.432c0.936,0,1.496,0.552,1.496,1.488v2.008c0,0.368,0.016,0.6,0.056,0.896h-0.72
		c0.04-0.264,0.056-0.504,0.056-0.904v-1.888c0-0.696-0.344-1.072-0.968-1.072c-0.448,0-0.816,0.192-1.128,0.584
		c-0.224,0.288-0.328,0.504-0.4,0.84v1.536c0,0.352,0.016,0.592,0.056,0.904H5.908z"/>
	<path fill="#008CD6" d="M11.252,145.672c0.024,0.536,0.104,0.832,0.32,1.12c0.256,0.352,0.648,0.544,1.128,0.544
		c0.648,0,1.096-0.32,1.32-0.936l0.56,0.224c-0.152,0.336-0.256,0.48-0.44,0.664c-0.376,0.368-0.864,0.56-1.448,0.56
		c-1.256,0-2.048-0.88-2.048-2.264c0-1.368,0.784-2.264,1.984-2.264c1.032,0,1.776,0.664,1.936,1.736
		c0.008,0.088,0.04,0.4,0.056,0.616H11.252z M13.98,145.168c-0.048-0.448-0.168-0.736-0.424-0.984c-0.248-0.24-0.56-0.36-0.944-0.36
		c-0.488,0-0.896,0.248-1.136,0.696c-0.112,0.2-0.152,0.344-0.2,0.648H13.98z"/>
	<path fill="#008CD6" d="M21.276,144.744c-0.232-0.624-0.616-0.92-1.208-0.92c-0.88,0-1.44,0.688-1.44,1.76
		c0,1.056,0.576,1.728,1.472,1.728c0.456,0,0.832-0.184,1.04-0.512c0.08-0.12,0.12-0.216,0.176-0.408l0.6,0.16
		c-0.112,0.288-0.192,0.44-0.328,0.616c-0.352,0.44-0.864,0.672-1.512,0.672c-1.256,0-2.064-0.872-2.064-2.24
		c0-1.384,0.8-2.288,2.024-2.288c0.664,0,1.2,0.256,1.544,0.736c0.112,0.152,0.184,0.28,0.28,0.512L21.276,144.744z"/>
	<path fill="#008CD6" d="M22.836,147.736c0.04-0.288,0.056-0.504,0.056-0.904v-4.272c0-0.4-0.016-0.608-0.056-0.904h0.712
		c-0.048,0.296-0.064,0.504-0.064,0.912v1.352c0,0.128,0,0.192-0.024,0.4c0.16-0.264,0.248-0.384,0.44-0.544
		c0.344-0.296,0.712-0.432,1.2-0.432c0.936,0,1.496,0.552,1.496,1.488v2.008c0,0.368,0.016,0.6,0.056,0.896h-0.72
		c0.04-0.264,0.056-0.504,0.056-0.904v-1.888c0-0.696-0.344-1.072-0.968-1.072c-0.448,0-0.816,0.192-1.128,0.584
		c-0.224,0.288-0.328,0.504-0.4,0.84v1.536c0,0.352,0.016,0.592,0.056,0.904H22.836z"/>
	<path fill="#008CD6" d="M30.62,147.167c-0.312,0.28-0.464,0.384-0.736,0.488s-0.56,0.16-0.832,0.16
		c-0.88,0-1.416-0.456-1.416-1.216c0-0.64,0.4-1.104,1.144-1.312c0.472-0.136,0.856-0.184,1.84-0.208v-0.464
		c0-0.544-0.344-0.824-1.008-0.824c-0.44,0-0.768,0.112-0.992,0.344c-0.104,0.112-0.168,0.224-0.248,0.464l-0.624-0.136
		c0.144-0.368,0.248-0.536,0.448-0.712c0.328-0.304,0.808-0.456,1.408-0.456c1.056,0,1.6,0.448,1.6,1.312v2.248
		c0,0.36,0.016,0.56,0.064,0.88H30.62V147.167z M30.62,145.552c-0.952,0.024-1.408,0.08-1.768,0.232
		c-0.408,0.168-0.608,0.44-0.608,0.824c0,0.44,0.328,0.72,0.848,0.72c0.464,0,0.968-0.224,1.28-0.568
		c0.184-0.2,0.248-0.368,0.248-0.688V145.552z"/>
	<path fill="#008CD6" d="M34.964,144.04c-0.304-0.096-0.448-0.12-0.648-0.12c-0.408,0-0.744,0.168-0.984,0.488
		c-0.192,0.248-0.264,0.44-0.296,0.8v1.632c0,0.36,0.016,0.584,0.056,0.896h-0.72c0.04-0.368,0.056-0.576,0.056-0.904v-2.504
		c0-0.4-0.016-0.616-0.056-0.904h0.664v0.456c0,0.064,0,0.184-0.008,0.24c0.152-0.248,0.272-0.376,0.44-0.488
		c0.304-0.2,0.576-0.28,0.96-0.28c0.24,0,0.376,0.016,0.712,0.072L34.964,144.04z"/>
	<path fill="#008CD6" d="M38.66,147.167c-0.312,0.28-0.464,0.384-0.736,0.488s-0.56,0.16-0.832,0.16
		c-0.88,0-1.416-0.456-1.416-1.216c0-0.64,0.4-1.104,1.144-1.312c0.472-0.136,0.856-0.184,1.84-0.208v-0.464
		c0-0.544-0.344-0.824-1.008-0.824c-0.44,0-0.768,0.112-0.992,0.344c-0.104,0.112-0.168,0.224-0.248,0.464l-0.624-0.136
		c0.144-0.368,0.248-0.536,0.448-0.712c0.328-0.304,0.808-0.456,1.408-0.456c1.056,0,1.6,0.448,1.6,1.312v2.248
		c0,0.36,0.016,0.56,0.064,0.88H38.66V147.167z M38.66,145.552c-0.952,0.024-1.408,0.08-1.768,0.232
		c-0.408,0.168-0.608,0.44-0.608,0.824c0,0.44,0.328,0.72,0.848,0.72c0.464,0,0.968-0.224,1.28-0.568
		c0.184-0.2,0.248-0.368,0.248-0.688V145.552z"/>
	<path fill="#008CD6" d="M43.476,144.744c-0.232-0.624-0.616-0.92-1.208-0.92c-0.88,0-1.44,0.688-1.44,1.76
		c0,1.056,0.576,1.728,1.472,1.728c0.456,0,0.832-0.184,1.04-0.512c0.08-0.12,0.12-0.216,0.176-0.408l0.6,0.16
		c-0.112,0.288-0.192,0.44-0.328,0.616c-0.352,0.44-0.864,0.672-1.512,0.672c-1.256,0-2.064-0.872-2.064-2.24
		c0-1.384,0.8-2.288,2.024-2.288c0.664,0,1.2,0.256,1.544,0.736c0.112,0.152,0.184,0.28,0.28,0.512L43.476,144.744z"/>
	<path fill="#008CD6" d="M46.26,142.232c-0.04,0.256-0.056,0.544-0.056,0.888v0.304h0.384c0.368,0,0.536-0.008,0.816-0.048v0.608
		c-0.256-0.04-0.456-0.048-0.816-0.048h-0.384v2.784c0,0.232,0.032,0.352,0.104,0.424c0.088,0.088,0.224,0.136,0.392,0.136
		c0.208,0,0.368-0.048,0.632-0.208l0.176,0.56c-0.328,0.136-0.576,0.184-0.904,0.184c-0.352,0-0.624-0.088-0.784-0.248
		c-0.16-0.16-0.224-0.392-0.224-0.768v-2.864h-0.32c-0.272,0-0.456,0.016-0.72,0.048v-0.608c0.224,0.04,0.384,0.048,0.72,0.048h0.32
		v-0.304c0-0.32-0.016-0.624-0.056-0.888H46.26z"/>
	<path fill="#008CD6" d="M48.581,145.672c0.024,0.536,0.104,0.832,0.32,1.12c0.256,0.352,0.648,0.544,1.128,0.544
		c0.648,0,1.096-0.32,1.32-0.936l0.56,0.224c-0.152,0.336-0.256,0.48-0.44,0.664c-0.376,0.368-0.864,0.56-1.448,0.56
		c-1.256,0-2.048-0.88-2.048-2.264c0-1.368,0.784-2.264,1.984-2.264c1.032,0,1.776,0.664,1.936,1.736
		c0.008,0.088,0.04,0.4,0.056,0.616H48.581z M51.309,145.168c-0.048-0.448-0.168-0.736-0.424-0.984
		c-0.248-0.24-0.56-0.36-0.944-0.36c-0.488,0-0.896,0.248-1.136,0.696c-0.112,0.2-0.152,0.344-0.2,0.648H51.309z"/>
	<path fill="#008CD6" d="M55.469,144.04c-0.304-0.096-0.448-0.12-0.648-0.12c-0.408,0-0.744,0.168-0.984,0.488
		c-0.192,0.248-0.264,0.44-0.296,0.8v1.632c0,0.36,0.016,0.584,0.056,0.896h-0.72c0.04-0.368,0.056-0.576,0.056-0.904v-2.504
		c0-0.4-0.016-0.616-0.056-0.904h0.664v0.456c0,0.064,0,0.184-0.008,0.24c0.152-0.248,0.272-0.376,0.44-0.488
		c0.304-0.2,0.576-0.28,0.96-0.28c0.24,0,0.376,0.016,0.712,0.072L55.469,144.04z"/>
	<path fill="#008CD6" d="M3.02,152.936c-0.28,0-0.48,0.016-0.728,0.048v-0.608c0.216,0.032,0.408,0.048,0.728,0.048h0.328v-0.472
		c0-0.488,0.064-0.744,0.248-0.976c0.192-0.248,0.56-0.392,1.008-0.392c0.312,0,0.56,0.048,0.848,0.16l-0.168,0.536
		c-0.216-0.128-0.416-0.184-0.664-0.184c-0.256,0-0.44,0.072-0.544,0.216c-0.088,0.128-0.12,0.296-0.12,0.672v0.44h0.4
		c0.344,0,0.552-0.008,0.848-0.048v0.608c-0.272-0.04-0.456-0.048-0.848-0.048h-0.4v2.904c0,0.376,0.016,0.6,0.056,0.896h-0.72
		c0.04-0.296,0.056-0.568,0.056-0.904v-2.896H3.02z"/>
	<path fill="#008CD6" d="M8.7,153.04c-0.304-0.096-0.448-0.12-0.648-0.12c-0.408,0-0.744,0.168-0.984,0.488
		c-0.192,0.248-0.264,0.44-0.296,0.8v1.632c0,0.36,0.016,0.584,0.056,0.896h-0.72c0.04-0.368,0.056-0.576,0.056-0.904v-2.504
		c0-0.4-0.016-0.616-0.056-0.904h0.664v0.456c0,0.064,0,0.184-0.008,0.24c0.152-0.248,0.272-0.376,0.44-0.488
		c0.304-0.2,0.576-0.28,0.96-0.28c0.24,0,0.376,0.016,0.712,0.072L8.7,153.04z"/>
	<path fill="#008CD6" d="M12.396,156.167c-0.312,0.28-0.464,0.384-0.736,0.488s-0.56,0.16-0.832,0.16
		c-0.88,0-1.416-0.456-1.416-1.216c0-0.64,0.4-1.104,1.144-1.312c0.472-0.136,0.856-0.184,1.84-0.208v-0.464
		c0-0.544-0.344-0.824-1.008-0.824c-0.44,0-0.768,0.112-0.992,0.344c-0.104,0.112-0.168,0.224-0.248,0.464l-0.624-0.136
		c0.144-0.368,0.248-0.536,0.448-0.712c0.328-0.304,0.808-0.456,1.408-0.456c1.056,0,1.6,0.448,1.6,1.312v2.248
		c0,0.36,0.016,0.56,0.064,0.88h-0.648V156.167z M12.396,154.552c-0.952,0.024-1.408,0.08-1.768,0.232
		c-0.408,0.168-0.608,0.44-0.608,0.824c0,0.44,0.328,0.72,0.848,0.72c0.464,0,0.968-0.224,1.28-0.568
		c0.184-0.2,0.248-0.368,0.248-0.688V154.552z"/>
	<path fill="#008CD6" d="M14.147,156.736c0.04-0.288,0.056-0.528,0.056-0.904v-2.504c0-0.4-0.016-0.616-0.056-0.904h0.648v0.44
		c0,0.04-0.008,0.136-0.016,0.288c0.072-0.136,0.144-0.232,0.304-0.4c0.272-0.272,0.664-0.416,1.128-0.416
		c0.456,0,0.792,0.136,1.032,0.408c0.12,0.128,0.168,0.224,0.248,0.464c0.376-0.616,0.808-0.872,1.48-0.872
		c0.528,0,0.928,0.168,1.168,0.488c0.192,0.256,0.272,0.568,0.272,1.04v1.976c0,0.4,0.016,0.616,0.056,0.896h-0.72
		c0.048-0.296,0.056-0.48,0.056-0.904v-1.888c0-0.76-0.28-1.088-0.92-1.088c-0.4,0-0.776,0.216-1.008,0.584
		c-0.152,0.232-0.264,0.584-0.264,0.824v1.576c0,0.4,0.016,0.624,0.056,0.896h-0.72c0.04-0.288,0.056-0.496,0.056-0.904v-1.888
		c0-0.704-0.32-1.088-0.896-1.088c-0.416,0-0.8,0.224-1.048,0.608c-0.144,0.216-0.264,0.592-0.264,0.8v1.568
		c0,0.368,0.016,0.584,0.056,0.904H14.147z"/>
	<path fill="#008CD6" d="M22.003,154.672c0.024,0.536,0.104,0.832,0.32,1.12c0.256,0.352,0.648,0.544,1.128,0.544
		c0.648,0,1.096-0.32,1.32-0.936l0.56,0.224c-0.152,0.336-0.256,0.48-0.44,0.664c-0.376,0.368-0.864,0.56-1.448,0.56
		c-1.256,0-2.048-0.88-2.048-2.264c0-1.368,0.784-2.264,1.984-2.264c1.032,0,1.776,0.664,1.936,1.736
		c0.008,0.088,0.04,0.4,0.056,0.616H22.003z M24.731,154.168c-0.048-0.448-0.168-0.736-0.424-0.984
		c-0.248-0.24-0.56-0.36-0.944-0.36c-0.488,0-0.896,0.248-1.136,0.696c-0.112,0.2-0.152,0.344-0.2,0.648H24.731z"/>
	<path fill="#008CD6" d="M28.764,154.583c0-1.384,0.832-2.264,2.136-2.264c1.304,0,2.128,0.88,2.128,2.256
		c0,1.368-0.832,2.264-2.12,2.264C29.596,156.84,28.764,155.968,28.764,154.583z M29.379,154.568c0,1.088,0.584,1.752,1.52,1.752
		s1.512-0.664,1.512-1.744s-0.576-1.752-1.496-1.752C29.963,152.824,29.379,153.488,29.379,154.568z"/>
	<path fill="#008CD6" d="M34.211,152.936c-0.28,0-0.48,0.016-0.728,0.048v-0.608c0.216,0.032,0.408,0.048,0.728,0.048h0.328v-0.472
		c0-0.488,0.064-0.744,0.248-0.976c0.192-0.248,0.56-0.392,1.008-0.392c0.312,0,0.56,0.048,0.848,0.16l-0.168,0.536
		c-0.216-0.128-0.416-0.184-0.664-0.184c-0.256,0-0.44,0.072-0.544,0.216c-0.088,0.128-0.12,0.296-0.12,0.672v0.44h0.4
		c0.344,0,0.552-0.008,0.848-0.048v0.608c-0.272-0.04-0.456-0.048-0.848-0.048h-0.4v2.904c0,0.376,0.016,0.6,0.056,0.896h-0.72
		c0.04-0.296,0.056-0.568,0.056-0.904v-2.896H34.211z"/>
	<path fill="#008CD6" d="M41.188,151.232c-0.04,0.256-0.056,0.544-0.056,0.888v0.304h0.384c0.368,0,0.536-0.008,0.816-0.048v0.608
		c-0.256-0.04-0.456-0.048-0.816-0.048h-0.384v2.784c0,0.232,0.032,0.352,0.104,0.424c0.088,0.088,0.224,0.136,0.392,0.136
		c0.208,0,0.368-0.048,0.632-0.208l0.176,0.56c-0.328,0.136-0.576,0.184-0.904,0.184c-0.352,0-0.624-0.088-0.784-0.248
		c-0.16-0.16-0.224-0.392-0.224-0.768v-2.864h-0.32c-0.272,0-0.456,0.016-0.72,0.048v-0.608c0.224,0.04,0.384,0.048,0.72,0.048h0.32
		v-0.304c0-0.32-0.016-0.624-0.056-0.888H41.188z"/>
	<path fill="#008CD6" d="M43.099,156.736c0.04-0.288,0.056-0.504,0.056-0.904v-4.272c0-0.4-0.016-0.608-0.056-0.904h0.712
		c-0.048,0.296-0.064,0.504-0.064,0.912v1.352c0,0.128,0,0.192-0.024,0.4c0.16-0.264,0.248-0.384,0.44-0.544
		c0.344-0.296,0.712-0.432,1.2-0.432c0.936,0,1.496,0.552,1.496,1.488v2.008c0,0.368,0.016,0.6,0.056,0.896h-0.72
		c0.04-0.264,0.056-0.504,0.056-0.904v-1.888c0-0.696-0.344-1.072-0.968-1.072c-0.448,0-0.816,0.192-1.128,0.584
		c-0.224,0.288-0.328,0.504-0.4,0.84v1.536c0,0.352,0.016,0.592,0.056,0.904H43.099z"/>
	<path fill="#008CD6" d="M48.443,154.672c0.024,0.536,0.104,0.832,0.32,1.12c0.256,0.352,0.648,0.544,1.128,0.544
		c0.648,0,1.096-0.32,1.32-0.936l0.56,0.224c-0.152,0.336-0.256,0.48-0.44,0.664c-0.376,0.368-0.864,0.56-1.448,0.56
		c-1.256,0-2.048-0.88-2.048-2.264c0-1.368,0.784-2.264,1.984-2.264c1.032,0,1.776,0.664,1.936,1.736
		c0.008,0.088,0.04,0.4,0.056,0.616H48.443z M51.171,154.168c-0.048-0.448-0.168-0.736-0.424-0.984
		c-0.248-0.24-0.56-0.36-0.944-0.36c-0.488,0-0.896,0.248-1.136,0.696c-0.112,0.2-0.152,0.344-0.2,0.648H51.171z"/>
	<path fill="#008CD6" d="M2.771,165.736c0.04-0.304,0.056-0.536,0.056-0.92v-4.256c0-0.336-0.016-0.592-0.056-0.904h0.704
		c-0.04,0.296-0.056,0.528-0.056,0.912v1.08c0,0.216-0.008,0.36-0.032,0.568c0.376-0.592,0.92-0.88,1.648-0.88
		c1.232,0,1.968,0.832,1.968,2.224c0,1.408-0.752,2.256-2,2.256c-0.504,0-0.872-0.128-1.24-0.432
		c-0.176-0.136-0.248-0.224-0.376-0.416c0.016,0.152,0.024,0.216,0.024,0.32v0.448H2.771z M4.988,161.848
		c-0.944,0-1.568,0.688-1.568,1.712c0,1.032,0.624,1.736,1.544,1.736c0.896,0,1.424-0.648,1.424-1.744
		C6.388,162.472,5.875,161.848,4.988,161.848z"/>
	<path fill="#008CD6" d="M10.788,165.167c-0.312,0.28-0.464,0.384-0.736,0.488c-0.272,0.104-0.56,0.16-0.832,0.16
		c-0.88,0-1.416-0.456-1.416-1.216c0-0.64,0.4-1.104,1.144-1.312c0.472-0.136,0.856-0.184,1.84-0.208v-0.464
		c0-0.544-0.344-0.824-1.008-0.824c-0.44,0-0.768,0.112-0.992,0.344c-0.104,0.112-0.168,0.224-0.248,0.464l-0.624-0.136
		c0.144-0.368,0.248-0.536,0.448-0.712c0.328-0.304,0.808-0.456,1.408-0.456c1.056,0,1.6,0.448,1.6,1.312v2.248
		c0,0.36,0.016,0.56,0.064,0.88h-0.648V165.167z M10.788,163.552c-0.952,0.024-1.408,0.08-1.768,0.232
		c-0.408,0.168-0.608,0.44-0.608,0.824c0,0.44,0.328,0.72,0.848,0.72c0.464,0,0.968-0.224,1.28-0.568
		c0.184-0.2,0.248-0.368,0.248-0.688V163.552z"/>
	<path fill="#008CD6" d="M12.964,164.456c0.056,0.296,0.12,0.44,0.28,0.584c0.2,0.184,0.52,0.28,0.928,0.28
		c0.696,0,1.136-0.296,1.136-0.768c0-0.224-0.08-0.392-0.248-0.496c-0.192-0.12-0.352-0.168-0.944-0.288
		c-0.64-0.136-0.912-0.232-1.184-0.416c-0.28-0.192-0.432-0.488-0.432-0.84c0-0.288,0.12-0.56,0.344-0.776
		c0.28-0.272,0.712-0.416,1.248-0.416c0.544,0,0.968,0.128,1.256,0.384c0.208,0.176,0.32,0.36,0.424,0.728l-0.632,0.104
		c-0.048-0.216-0.088-0.312-0.2-0.424c-0.184-0.2-0.472-0.304-0.832-0.304c-0.584,0-1,0.296-1,0.72c0,0.184,0.096,0.344,0.272,0.44
		c0.184,0.104,0.392,0.168,0.888,0.272c0.776,0.176,1.032,0.272,1.272,0.456c0.248,0.2,0.384,0.504,0.384,0.832
		c0,0.8-0.68,1.296-1.776,1.296c-0.728,0-1.288-0.216-1.584-0.624c-0.12-0.168-0.176-0.304-0.256-0.632L12.964,164.456z"/>
	<path fill="#008CD6" d="M17.244,163.672c0.024,0.536,0.104,0.832,0.32,1.12c0.256,0.352,0.648,0.544,1.128,0.544
		c0.648,0,1.096-0.32,1.32-0.936l0.56,0.224c-0.152,0.336-0.256,0.48-0.44,0.664c-0.376,0.368-0.864,0.56-1.448,0.56
		c-1.256,0-2.048-0.88-2.048-2.264c0-1.368,0.784-2.264,1.984-2.264c1.032,0,1.776,0.664,1.936,1.736
		c0.008,0.088,0.04,0.4,0.056,0.616H17.244z M19.972,163.168c-0.048-0.448-0.168-0.736-0.424-0.984
		c-0.248-0.24-0.56-0.36-0.944-0.36c-0.488,0-0.896,0.248-1.136,0.696c-0.112,0.2-0.152,0.344-0.2,0.648H19.972z"/>
	<path fill="#008CD6" d="M27.268,162.744c-0.232-0.624-0.616-0.92-1.208-0.92c-0.88,0-1.44,0.688-1.44,1.76
		c0,1.056,0.576,1.728,1.472,1.728c0.456,0,0.832-0.184,1.04-0.512c0.08-0.12,0.12-0.216,0.176-0.408l0.6,0.16
		c-0.112,0.288-0.192,0.44-0.328,0.616c-0.352,0.44-0.864,0.672-1.512,0.672c-1.256,0-2.064-0.872-2.064-2.24
		c0-1.384,0.8-2.288,2.024-2.288c0.664,0,1.2,0.256,1.544,0.736c0.112,0.152,0.184,0.28,0.28,0.512L27.268,162.744z"/>
	<path fill="#008CD6" d="M28.828,165.736c0.04-0.288,0.056-0.504,0.056-0.904v-4.272c0-0.4-0.016-0.608-0.056-0.904h0.712
		c-0.048,0.296-0.064,0.504-0.064,0.912v1.352c0,0.128,0,0.192-0.024,0.4c0.16-0.264,0.248-0.384,0.44-0.544
		c0.344-0.296,0.712-0.432,1.2-0.432c0.936,0,1.496,0.552,1.496,1.488v2.008c0,0.368,0.016,0.6,0.056,0.896h-0.72
		c0.04-0.264,0.056-0.504,0.056-0.904v-1.888c0-0.696-0.344-1.072-0.968-1.072c-0.448,0-0.816,0.192-1.128,0.584
		c-0.224,0.288-0.328,0.504-0.4,0.84v1.536c0,0.352,0.016,0.592,0.056,0.904H28.828z"/>
	<path fill="#008CD6" d="M36.612,165.167c-0.312,0.28-0.464,0.384-0.736,0.488c-0.272,0.104-0.56,0.16-0.832,0.16
		c-0.88,0-1.416-0.456-1.416-1.216c0-0.64,0.4-1.104,1.144-1.312c0.472-0.136,0.856-0.184,1.84-0.208v-0.464
		c0-0.544-0.344-0.824-1.008-0.824c-0.44,0-0.768,0.112-0.992,0.344c-0.104,0.112-0.168,0.224-0.248,0.464l-0.624-0.136
		c0.144-0.368,0.248-0.536,0.448-0.712c0.328-0.304,0.808-0.456,1.408-0.456c1.056,0,1.6,0.448,1.6,1.312v2.248
		c0,0.36,0.016,0.56,0.064,0.88h-0.648V165.167z M36.612,163.552c-0.952,0.024-1.408,0.08-1.768,0.232
		c-0.408,0.168-0.608,0.44-0.608,0.824c0,0.44,0.328,0.72,0.848,0.72c0.464,0,0.968-0.224,1.28-0.568
		c0.184-0.2,0.248-0.368,0.248-0.688V163.552z"/>
	<path fill="#008CD6" d="M40.956,162.04c-0.304-0.096-0.448-0.12-0.648-0.12c-0.408,0-0.744,0.168-0.984,0.488
		c-0.192,0.248-0.264,0.44-0.296,0.8v1.632c0,0.36,0.016,0.584,0.056,0.896h-0.72c0.04-0.368,0.056-0.576,0.056-0.904v-2.504
		c0-0.4-0.016-0.616-0.056-0.904h0.664v0.456c0,0.064,0,0.184-0.008,0.24c0.152-0.248,0.272-0.376,0.44-0.488
		c0.304-0.2,0.576-0.28,0.96-0.28c0.24,0,0.376,0.016,0.712,0.072L40.956,162.04z"/>
	<path fill="#008CD6" d="M44.652,165.167c-0.312,0.28-0.464,0.384-0.736,0.488c-0.272,0.104-0.56,0.16-0.832,0.16
		c-0.88,0-1.416-0.456-1.416-1.216c0-0.64,0.4-1.104,1.144-1.312c0.472-0.136,0.856-0.184,1.84-0.208v-0.464
		c0-0.544-0.344-0.824-1.008-0.824c-0.44,0-0.768,0.112-0.992,0.344c-0.104,0.112-0.168,0.224-0.248,0.464l-0.624-0.136
		c0.144-0.368,0.248-0.536,0.448-0.712c0.328-0.304,0.808-0.456,1.408-0.456c1.056,0,1.6,0.448,1.6,1.312v2.248
		c0,0.36,0.016,0.56,0.064,0.88h-0.648V165.167z M44.652,163.552c-0.952,0.024-1.408,0.08-1.768,0.232
		c-0.408,0.168-0.608,0.44-0.608,0.824c0,0.44,0.328,0.72,0.848,0.72c0.464,0,0.968-0.224,1.28-0.568
		c0.184-0.2,0.248-0.368,0.248-0.688V163.552z"/>
	<path fill="#008CD6" d="M49.468,162.744c-0.232-0.624-0.616-0.92-1.208-0.92c-0.88,0-1.44,0.688-1.44,1.76
		c0,1.056,0.576,1.728,1.472,1.728c0.456,0,0.832-0.184,1.04-0.512c0.08-0.12,0.12-0.216,0.176-0.408l0.6,0.16
		c-0.112,0.288-0.192,0.44-0.328,0.616c-0.352,0.44-0.864,0.672-1.512,0.672c-1.256,0-2.064-0.872-2.064-2.24
		c0-1.384,0.8-2.288,2.024-2.288c0.664,0,1.2,0.256,1.544,0.736c0.112,0.152,0.184,0.28,0.28,0.512L49.468,162.744z"/>
	<path fill="#008CD6" d="M52.252,160.232c-0.04,0.256-0.056,0.544-0.056,0.888v0.304h0.384c0.368,0,0.536-0.008,0.816-0.048v0.608
		c-0.256-0.04-0.456-0.048-0.816-0.048h-0.384v2.784c0,0.232,0.032,0.352,0.104,0.424c0.088,0.088,0.224,0.136,0.392,0.136
		c0.208,0,0.368-0.048,0.632-0.208l0.176,0.56c-0.328,0.136-0.576,0.184-0.904,0.184c-0.352,0-0.624-0.088-0.784-0.248
		c-0.16-0.16-0.224-0.392-0.224-0.768v-2.864h-0.32c-0.272,0-0.456,0.016-0.72,0.048v-0.608c0.224,0.04,0.384,0.048,0.72,0.048h0.32
		v-0.304c0-0.32-0.016-0.624-0.056-0.888H52.252z"/>
	<path fill="#008CD6" d="M54.572,163.672c0.024,0.536,0.104,0.832,0.32,1.12c0.256,0.352,0.648,0.544,1.128,0.544
		c0.648,0,1.096-0.32,1.32-0.936l0.56,0.224c-0.152,0.336-0.256,0.48-0.44,0.664c-0.376,0.368-0.864,0.56-1.448,0.56
		c-1.256,0-2.048-0.88-2.048-2.264c0-1.368,0.784-2.264,1.984-2.264c1.032,0,1.776,0.664,1.936,1.736
		c0.008,0.088,0.04,0.4,0.056,0.616H54.572z M57.3,163.168c-0.048-0.448-0.168-0.736-0.424-0.984c-0.248-0.24-0.56-0.36-0.944-0.36
		c-0.488,0-0.896,0.248-1.136,0.696c-0.112,0.2-0.152,0.344-0.2,0.648H57.3z"/>
	<path fill="#008CD6" d="M61.46,162.04c-0.304-0.096-0.448-0.12-0.648-0.12c-0.408,0-0.744,0.168-0.984,0.488
		c-0.192,0.248-0.264,0.44-0.296,0.8v1.632c0,0.36,0.016,0.584,0.056,0.896h-0.72c0.04-0.368,0.056-0.576,0.056-0.904v-2.504
		c0-0.4-0.016-0.616-0.056-0.904h0.664v0.456c0,0.064,0,0.184-0.008,0.24c0.152-0.248,0.272-0.376,0.44-0.488
		c0.304-0.2,0.576-0.28,0.96-0.28c0.24,0,0.376,0.016,0.712,0.072L61.46,162.04z"/>
	<path fill="#008CD6" d="M62.732,164.456c0.056,0.296,0.12,0.44,0.28,0.584c0.2,0.184,0.52,0.28,0.928,0.28
		c0.696,0,1.136-0.296,1.136-0.768c0-0.224-0.08-0.392-0.248-0.496c-0.192-0.12-0.352-0.168-0.944-0.288
		c-0.64-0.136-0.912-0.232-1.184-0.416c-0.28-0.192-0.432-0.488-0.432-0.84c0-0.288,0.12-0.56,0.344-0.776
		c0.28-0.272,0.712-0.416,1.248-0.416c0.544,0,0.968,0.128,1.256,0.384c0.208,0.176,0.32,0.36,0.424,0.728l-0.632,0.104
		c-0.048-0.216-0.088-0.312-0.2-0.424c-0.184-0.2-0.472-0.304-0.832-0.304c-0.584,0-1,0.296-1,0.72c0,0.184,0.096,0.344,0.272,0.44
		c0.184,0.104,0.392,0.168,0.888,0.272c0.776,0.176,1.032,0.272,1.272,0.456c0.248,0.2,0.384,0.504,0.384,0.832
		c0,0.8-0.68,1.296-1.776,1.296c-0.728,0-1.288-0.216-1.584-0.624c-0.12-0.168-0.176-0.304-0.256-0.632L62.732,164.456z"/>
</g>
</svg>
